<svg xmlns="http://www.w3.org/2000/svg" width="2243.55" height="611.22" viewBox="0 0 2243.55 611.22"><title>devices</title><g id="14c58cc0-444b-4b6b-acfe-20f60c0967c9" data-name="Layer 1"><path d="M1077.16,558.82H48.66v-512h1028.5Zm-1024.5-4h1020.5v-504H52.66Z" fill="#f4f142"/><path d="M2176.62,558.82h-840v-512h840Zm-836-4h832v-504h-832Z" fill="#f4f142"/><path d="M2065.27,367.28h-95.49l-31.69-59-28.69,59h-98.68a9.05,9.05,0,0,1-9-9v-132a9.05,9.05,0,0,1,9-9h254.54a9.05,9.05,0,0,1,9,9v132A9.05,9.05,0,0,1,2065.27,367.28Zm-93.1-4h93.1a5,5,0,0,0,5-5v-132a5,5,0,0,0-5-5H1810.72a5,5,0,0,0-5,5v132a5,5,0,0,0,5,5h96.17l31-63.73Z" fill="#f4f142"/><path d="M1873.77,316.42a31.34,31.34,0,1,1,31.34-31.34A31.38,31.38,0,0,1,1873.77,316.42Zm0-58.68a27.34,27.34,0,1,0,27.34,27.34A27.37,27.37,0,0,0,1873.77,257.73Z" fill="#f4f142"/><path d="M2000.31,316.42a31.34,31.34,0,1,1,31.34-31.34A31.38,31.38,0,0,1,2000.31,316.42Zm0-58.68a27.34,27.34,0,1,0,27.34,27.34A27.37,27.37,0,0,0,2000.31,257.73Z" fill="#f4f142"/><path d="M1576.29,406h-97.57a14,14,0,0,1-14-14V192.45a14,14,0,0,1,14-14h97.57a14,14,0,0,1,14,14V392A14,14,0,0,1,1576.29,406Zm-97.57-223.6a10,10,0,0,0-10,10V392a10,10,0,0,0,10,10h97.57a10,10,0,0,0,10-10V192.45a10,10,0,0,0-10-10Z" fill="#f4f142"/><path d="M1569.24,386.06h-83.49a14,14,0,0,1-14-14V198.36a14,14,0,0,1,14-14h83.49a14,14,0,0,1,14,14v173.7A14,14,0,0,1,1569.24,386.06Zm-83.49-197.7a10,10,0,0,0-10,10v173.7a10,10,0,0,0,10,10h83.49a10,10,0,0,0,10-10V198.36a10,10,0,0,0-10-10Z" fill="#f4f142"/><path d="M924,450H716.58a14,14,0,0,1-14-14V148.52a14,14,0,0,1,14-14H924a14,14,0,0,1,14,14V436A14,14,0,0,1,924,450ZM716.58,138.52a10,10,0,0,0-10,10V436a10,10,0,0,0,10,10H924a10,10,0,0,0,10-10V148.52a10,10,0,0,0-10-10Z" fill="#f4f142"/><path d="M916.93,430H723.62a14,14,0,0,1-14-14V154.43a14,14,0,0,1,14-14h193.3a14,14,0,0,1,14,14V416A14,14,0,0,1,916.93,430ZM723.62,144.43a10,10,0,0,0-10,10V416a10,10,0,0,0,10,10h193.3a10,10,0,0,0,10-10V154.43a10,10,0,0,0-10-10Z" fill="#f4f142"/><path d="M560,449.48H161a12,12,0,0,1,0-24H560a12,12,0,1,1,0,24Zm-399-20a8,8,0,0,0,0,16H560a8,8,0,1,0,0-16Z" fill="#f4f142"/><path d="M558,419.48H163a14,14,0,0,1-14-14V149a14,14,0,0,1,14-14H558a14,14,0,0,1,14,14V405.48A14,14,0,0,1,558,419.48ZM163,139a10,10,0,0,0-10,10V405.48a10,10,0,0,0,10,10H558a10,10,0,0,0,10-10V149a10,10,0,0,0-10-10Z" fill="#f4f142"/><path d="M550.91,411.58h0l-380.91-1c-8,0-14-5.59-14-13V154.93a14,14,0,0,1,14-14H550.91a14,14,0,0,1,14,14V397.58A14,14,0,0,1,550.91,411.58ZM170,144.93a10,10,0,0,0-10,10V397.58c0,5.21,4.21,9,10,9l380.91,1a10,10,0,0,0,10-10V154.93a10,10,0,0,0-10-10Z" fill="#f4f142"/><path d="M602.81,293.42a29.27,29.27,0,0,1,1.34-9,22.5,22.5,0,0,1,3.94-7.41A18.72,18.72,0,0,1,614.5,272,21.47,21.47,0,0,1,632,272,18.74,18.74,0,0,1,638.4,277a22.53,22.53,0,0,1,3.94,7.41,29.3,29.3,0,0,1,1.34,9,29.71,29.71,0,0,1-1.34,9,22,22,0,0,1-3.94,7.4,18.93,18.93,0,0,1-6.41,5,21.47,21.47,0,0,1-17.49,0,18.91,18.91,0,0,1-6.41-5,21.92,21.92,0,0,1-3.94-7.4A29.68,29.68,0,0,1,602.81,293.42Zm3.29,0a26,26,0,0,0,1.13,7.67,20.75,20.75,0,0,0,3.29,6.54,16,16,0,0,0,5.37,4.55,16.89,16.89,0,0,0,14.72,0,16,16,0,0,0,5.37-4.55,20.81,20.81,0,0,0,3.29-6.54,26.66,26.66,0,0,0,0-15.33,20.84,20.84,0,0,0-3.29-6.54,16,16,0,0,0-5.37-4.55,16.89,16.89,0,0,0-14.72,0,16,16,0,0,0-5.37,4.55,20.78,20.78,0,0,0-3.29,6.54A26.06,26.06,0,0,0,606.1,293.42Z" fill="#f4f242"/><path d="M654.69,281h.26a10.84,10.84,0,0,1,2.21-4.07,15.53,15.53,0,0,1,3.9-3.29,19.27,19.27,0,0,1,5.11-2.12,20.71,20.71,0,0,1,5.85-.65v3.29a15.61,15.61,0,0,0-5.93.52,14.4,14.4,0,0,0-6.37,3.81,30.78,30.78,0,0,0-2.12,2.51,12.2,12.2,0,0,0-1.52,2.69,16.9,16.9,0,0,0-1,3.29,28.66,28.66,0,0,0-.43,4.33v24.34h-3.29V271.16h3.29Z" fill="#f4f242"/><path d="M1663.59,306.84h-.17a13.75,13.75,0,0,1-2.25,3.77,16,16,0,0,1-3.59,3.16,17.83,17.83,0,0,1-4.81,2.17,21.07,21.07,0,0,1-5.89.78q-7.1,0-11-3.07t-3.9-9.48a11.13,11.13,0,0,1,5.5-10.26,16.88,16.88,0,0,1,5.28-2,51.78,51.78,0,0,1,5.59-.87l5.11-.43a30.11,30.11,0,0,0,5.59-.82,7.13,7.13,0,0,0,3.07-1.56,4.44,4.44,0,0,0,1.3-2.56,24.37,24.37,0,0,0,.26-3.9,8.22,8.22,0,0,0-.69-3.38,7.59,7.59,0,0,0-2.17-2.77,10.75,10.75,0,0,0-3.81-1.91,20.38,20.38,0,0,0-5.72-.69,15,15,0,0,0-9.66,2.94q-3.68,2.95-4,8.92h-3.29q.34-7.36,4.72-11t12.43-3.68q8.05,0,11.74,3.16a10.38,10.38,0,0,1,3.68,8.27v25.9q0,1,0,1.91a6.4,6.4,0,0,0,.3,1.73,2.59,2.59,0,0,0,.87,1.26,2.74,2.74,0,0,0,1.73.48,15.85,15.85,0,0,0,2.42-.26v2.77a10.36,10.36,0,0,1-2.69.35,7.94,7.94,0,0,1-3.16-.52,4.16,4.16,0,0,1-1.78-1.39,5.11,5.11,0,0,1-.82-2,13.94,13.94,0,0,1-.22-2.55Zm0-16.46a6.25,6.25,0,0,1-3.68,2,45.71,45.71,0,0,1-5.5.78l-5.54.52q-2.43.26-4.85.74a14.14,14.14,0,0,0-4.37,1.6,9,9,0,0,0-3.16,3.07,9.46,9.46,0,0,0-1.21,5.07q0,4.94,3.12,7.32t8.57,2.38q5.63,0,8.92-2a15.79,15.79,0,0,0,5-4.68,14.38,14.38,0,0,0,2.21-5.11,21.84,21.84,0,0,0,.48-3.33Z" fill="#f4f242"/><path d="M1677.36,271.16h3.29v9.53h.17a14.26,14.26,0,0,1,2.47-4.46,16.4,16.4,0,0,1,8.36-5.41,19.14,19.14,0,0,1,5.11-.69,20.23,20.23,0,0,1,6.63,1,13,13,0,0,1,4.46,2.51,12.16,12.16,0,0,1,2.73,3.51A16.26,16.26,0,0,1,1712,281a23.3,23.3,0,0,1,.52,3.85q.08,1.86.09,3.25v27.54h-3.29V287.53q0-1.64-.26-4.16a12.68,12.68,0,0,0-1.52-4.81,11,11,0,0,0-3.81-3.94,13,13,0,0,0-7.06-1.65,15.7,15.7,0,0,0-6.75,1.39,14.63,14.63,0,0,0-5,3.85,17,17,0,0,0-3.16,5.89,24.7,24.7,0,0,0-1.08,7.49v24.08h-3.29Z" fill="#f4f242"/><path d="M1756.69,306.15h-.17a20.22,20.22,0,0,1-6.93,7.92,20.7,20.7,0,0,1-18.79.74,17.09,17.09,0,0,1-6-5.11,22.11,22.11,0,0,1-3.46-7.4,35.29,35.29,0,0,1,.09-18,21,21,0,0,1,3.68-7.41,17.65,17.65,0,0,1,6.19-4.94,19.72,19.72,0,0,1,8.75-1.82,19.34,19.34,0,0,1,5.28.74,18.52,18.52,0,0,1,4.81,2.12,15.25,15.25,0,0,1,6.37,8.14h.17V253.84H1760v61.84h-3.29Zm-16.54,7.71a14.67,14.67,0,0,0,7.32-1.73,15.6,15.6,0,0,0,5.11-4.59,20.32,20.32,0,0,0,3-6.54,28.59,28.59,0,0,0,1-7.49,28.93,28.93,0,0,0-1-7.58,21.41,21.41,0,0,0-3-6.58,14.77,14.77,0,0,0-5.15-4.63,15.18,15.18,0,0,0-7.4-1.73,15.62,15.62,0,0,0-7.54,1.69,15,15,0,0,0-5.15,4.55,19,19,0,0,0-2.94,6.58,32.38,32.38,0,0,0-.91,7.71,28.88,28.88,0,0,0,1,7.58,20.26,20.26,0,0,0,3,6.54,15,15,0,0,0,5.15,4.55A15.42,15.42,0,0,0,1740.15,313.86Z" fill="#f4f242"/><path d="M1171.7,306.84h-.17a13.75,13.75,0,0,1-2.25,3.77,16,16,0,0,1-3.59,3.16,17.83,17.83,0,0,1-4.81,2.17,21.07,21.07,0,0,1-5.89.78q-7.1,0-11-3.07t-3.9-9.48a11.13,11.13,0,0,1,5.5-10.26,16.88,16.88,0,0,1,5.28-2,51.78,51.78,0,0,1,5.59-.87l5.11-.43a30.11,30.11,0,0,0,5.59-.82,7.13,7.13,0,0,0,3.07-1.56,4.44,4.44,0,0,0,1.3-2.56,24.37,24.37,0,0,0,.26-3.9,8.22,8.22,0,0,0-.69-3.38,7.59,7.59,0,0,0-2.17-2.77,10.75,10.75,0,0,0-3.81-1.91,20.38,20.38,0,0,0-5.72-.69,15,15,0,0,0-9.66,2.94q-3.68,2.95-4,8.92h-3.29q.34-7.36,4.72-11t12.43-3.68q8.05,0,11.74,3.16a10.38,10.38,0,0,1,3.68,8.27v25.9q0,1,0,1.91a6.4,6.4,0,0,0,.3,1.73,2.59,2.59,0,0,0,.87,1.26,2.74,2.74,0,0,0,1.73.48,15.85,15.85,0,0,0,2.42-.26v2.77a10.36,10.36,0,0,1-2.69.35,7.94,7.94,0,0,1-3.16-.52,4.16,4.16,0,0,1-1.78-1.39,5.11,5.11,0,0,1-.82-2,13.94,13.94,0,0,1-.22-2.55Zm0-16.46a6.25,6.25,0,0,1-3.68,2,45.71,45.71,0,0,1-5.5.78l-5.54.52q-2.43.26-4.85.74a14.14,14.14,0,0,0-4.37,1.6,9,9,0,0,0-3.16,3.07,9.46,9.46,0,0,0-1.21,5.07q0,4.94,3.12,7.32t8.57,2.38q5.63,0,8.92-2a15.79,15.79,0,0,0,5-4.68,14.38,14.38,0,0,0,2.21-5.11,21.84,21.84,0,0,0,.48-3.33Z" fill="#f4f242"/><path d="M1185.47,271.16h3.29v9.53h.17a14.26,14.26,0,0,1,2.47-4.46,16.4,16.4,0,0,1,8.36-5.41,19.14,19.14,0,0,1,5.11-.69,20.23,20.23,0,0,1,6.63,1,13,13,0,0,1,4.46,2.51,12.16,12.16,0,0,1,2.73,3.51,16.26,16.26,0,0,1,1.43,3.94,23.3,23.3,0,0,1,.52,3.85q.08,1.86.09,3.25v27.54h-3.29V287.53q0-1.64-.26-4.16a12.68,12.68,0,0,0-1.52-4.81,11,11,0,0,0-3.81-3.94,13,13,0,0,0-7.06-1.65,15.7,15.7,0,0,0-6.75,1.39,14.63,14.63,0,0,0-5,3.85,17,17,0,0,0-3.16,5.89,24.7,24.7,0,0,0-1.08,7.49v24.08h-3.29Z" fill="#f4f242"/><path d="M1264.8,306.15h-.17a20.22,20.22,0,0,1-6.93,7.92,20.7,20.7,0,0,1-18.79.74,17.09,17.09,0,0,1-6-5.11,22.11,22.11,0,0,1-3.46-7.4,35.29,35.29,0,0,1,.09-18,21,21,0,0,1,3.68-7.41,17.65,17.65,0,0,1,6.19-4.94,19.72,19.72,0,0,1,8.75-1.82,19.34,19.34,0,0,1,5.28.74,18.52,18.52,0,0,1,4.81,2.12,15.25,15.25,0,0,1,6.37,8.14h.17V253.84h3.29v61.84h-3.29Zm-16.54,7.71a14.67,14.67,0,0,0,7.32-1.73,15.6,15.6,0,0,0,5.11-4.59,20.32,20.32,0,0,0,3-6.54,28.59,28.59,0,0,0,1-7.49,28.93,28.93,0,0,0-1-7.58,21.41,21.41,0,0,0-3-6.58,14.77,14.77,0,0,0-5.15-4.63,15.18,15.18,0,0,0-7.4-1.73,15.62,15.62,0,0,0-7.54,1.69,15,15,0,0,0-5.15,4.55,19,19,0,0,0-2.94,6.58,32.38,32.38,0,0,0-.91,7.71,28.88,28.88,0,0,0,1,7.58,20.26,20.26,0,0,0,3,6.54,15,15,0,0,0,5.15,4.55A15.42,15.42,0,0,0,1248.26,313.86Z" fill="#f4f242"/></g></svg>