<svg xmlns="http://www.w3.org/2000/svg" width="2243.55" height="611.22" viewBox="0 0 2243.55 611.22"><title>devices</title><g id="97f74567-a5dd-416d-a4b4-2474e36b25b4" data-name="Layer 1"><path d="M2176.62,558.82H48.66v-512h2128Zm-2121.26-4H2169.92v-504H55.36Z" fill="#28fcfb"/><path d="M1644.56,403.19H1547a14,14,0,0,1-14-14V189.59a14,14,0,0,1,14-14h97.57a14,14,0,0,1,14,14v199.6A14,14,0,0,1,1644.56,403.19ZM1547,179.59a10,10,0,0,0-10,10v199.6a10,10,0,0,0,10,10h97.57a10,10,0,0,0,10-10V189.59a10,10,0,0,0-10-10Z" fill="#28fcfb"/><path d="M1637.52,383.2H1554a14,14,0,0,1-14-14V195.5a14,14,0,0,1,14-14h83.49a14,14,0,0,1,14,14V369.2A14,14,0,0,1,1637.52,383.2ZM1554,185.5a10,10,0,0,0-10,10V369.2a10,10,0,0,0,10,10h83.49a10,10,0,0,0,10-10V195.5a10,10,0,0,0-10-10Z" fill="#28fcfb"/><path d="M1320.9,447.11H1113.51a14,14,0,0,1-14-14V145.66a14,14,0,0,1,14-14H1320.9a14,14,0,0,1,14,14V433.11A14,14,0,0,1,1320.9,447.11ZM1113.51,135.66a10,10,0,0,0-10,10V433.11a10,10,0,0,0,10,10H1320.9a10,10,0,0,0,10-10V145.66a10,10,0,0,0-10-10Z" fill="#28fcfb"/><path d="M1313.86,427.12h-193.3a14,14,0,0,1-14-14V151.57a14,14,0,0,1,14-14h193.3a14,14,0,0,1,14,14V413.12A14,14,0,0,1,1313.86,427.12Zm-193.3-285.55a10,10,0,0,0-10,10V413.12a10,10,0,0,0,10,10h193.3a10,10,0,0,0,10-10V151.57a10,10,0,0,0-10-10Z" fill="#28fcfb"/><path d="M896.89,447.11h-399a12,12,0,0,1,0-24h399a12,12,0,0,1,0,24Zm-399-20a8,8,0,0,0,0,16h399a8,8,0,0,0,0-16Z" fill="#28fcfb"/><path d="M894.89,417.12h-395a14,14,0,0,1-14-14V146.66a14,14,0,0,1,14-14h395a14,14,0,0,1,14,14V403.12A14,14,0,0,1,894.89,417.12Zm-395-280.46a10,10,0,0,0-10,10V403.12a10,10,0,0,0,10,10h395a10,10,0,0,0,10-10V146.66a10,10,0,0,0-10-10Z" fill="#28fcfb"/><path d="M887.84,409.22h0l-380.91-1c-8,0-14-5.59-14-13V152.57a14,14,0,0,1,14-14H887.84a14,14,0,0,1,14,14V395.22A14,14,0,0,1,887.84,409.22ZM506.94,142.57a10,10,0,0,0-10,10V395.22c0,5.21,4.21,9,10,9l380.91,1a10,10,0,0,0,10-10V152.57a10,10,0,0,0-10-10Z" fill="#28fcfb"/><path d="M972.74,290.56a29.27,29.27,0,0,1,1.34-9,22.5,22.5,0,0,1,3.94-7.41,18.72,18.72,0,0,1,6.41-5.07,21.47,21.47,0,0,1,17.49,0,18.74,18.74,0,0,1,6.41,5.07,22.53,22.53,0,0,1,3.94,7.41,29.3,29.3,0,0,1,1.34,9,29.7,29.7,0,0,1-1.34,9,22,22,0,0,1-3.94,7.4,18.93,18.93,0,0,1-6.41,5,21.48,21.48,0,0,1-17.49,0,18.92,18.92,0,0,1-6.41-5,21.93,21.93,0,0,1-3.94-7.4A29.67,29.67,0,0,1,972.74,290.56Zm3.29,0a26,26,0,0,0,1.13,7.66,20.75,20.75,0,0,0,3.29,6.54,16,16,0,0,0,5.37,4.55,16.89,16.89,0,0,0,14.72,0,16,16,0,0,0,5.37-4.55,20.81,20.81,0,0,0,3.29-6.54,26.66,26.66,0,0,0,0-15.33,20.84,20.84,0,0,0-3.29-6.54,16,16,0,0,0-5.37-4.55,16.89,16.89,0,0,0-14.72,0,16,16,0,0,0-5.37,4.55,20.78,20.78,0,0,0-3.29,6.54A26.06,26.06,0,0,0,976,290.56Z" fill="#28fcfb"/><path d="M1024.62,278.17h.26a10.84,10.84,0,0,1,2.21-4.07,15.53,15.53,0,0,1,3.9-3.29,19.27,19.27,0,0,1,5.11-2.12,20.71,20.71,0,0,1,5.85-.65v3.29a15.61,15.61,0,0,0-5.93.52,14.4,14.4,0,0,0-6.37,3.81,30.78,30.78,0,0,0-2.12,2.51,12.2,12.2,0,0,0-1.52,2.69,16.9,16.9,0,0,0-1,3.29,28.66,28.66,0,0,0-.43,4.33v24.34h-3.29V268.3h3.29Z" fill="#28fcfb"/><path d="M1398.22,290.56a29.27,29.27,0,0,1,1.34-9,22.5,22.5,0,0,1,3.94-7.41,18.73,18.73,0,0,1,6.41-5.07,21.48,21.48,0,0,1,17.5,0,18.74,18.74,0,0,1,6.41,5.07,22.54,22.54,0,0,1,3.94,7.41,29.3,29.3,0,0,1,1.34,9,29.7,29.7,0,0,1-1.34,9,22,22,0,0,1-3.94,7.4,18.93,18.93,0,0,1-6.41,5,21.48,21.48,0,0,1-17.5,0,18.93,18.93,0,0,1-6.41-5,21.92,21.92,0,0,1-3.94-7.4A29.67,29.67,0,0,1,1398.22,290.56Zm3.29,0a26,26,0,0,0,1.13,7.66,20.77,20.77,0,0,0,3.29,6.54,16,16,0,0,0,5.37,4.55,16.89,16.89,0,0,0,14.72,0,16,16,0,0,0,5.37-4.55,20.81,20.81,0,0,0,3.29-6.54,26.67,26.67,0,0,0,0-15.33,20.84,20.84,0,0,0-3.29-6.54,16,16,0,0,0-5.37-4.55,16.89,16.89,0,0,0-14.72,0,16,16,0,0,0-5.37,4.55,20.8,20.8,0,0,0-3.29,6.54A26.06,26.06,0,0,0,1401.51,290.56Z" fill="#28fcfb"/><path d="M1450.1,278.17h.26a10.84,10.84,0,0,1,2.21-4.07,15.54,15.54,0,0,1,3.9-3.29,19.28,19.28,0,0,1,5.11-2.12,20.71,20.71,0,0,1,5.85-.65v3.29a15.61,15.61,0,0,0-5.93.52,14.4,14.4,0,0,0-6.37,3.81,30.68,30.68,0,0,0-2.12,2.51,12.18,12.18,0,0,0-1.52,2.69,16.89,16.89,0,0,0-1,3.29,28.6,28.6,0,0,0-.43,4.33v24.34h-3.29V268.3h3.29Z" fill="#28fcfb"/></g></svg>