<svg id="567a7796-b943-4066-9f74-d43f95ad6e2b" data-name="Layer 1" xmlns="http://www.w3.org/2000/svg" xmlns:xlink="http://www.w3.org/1999/xlink" width="2048" height="2048" viewBox="0 0 2048 2048"><defs><radialGradient id="3c1cc28c-800f-48da-8522-c1163102866c" cx="1024" cy="1024" r="1024" gradientUnits="userSpaceOnUse"><stop offset="0.4" stop-color="#daff00"/><stop offset="1" stop-color="#daff00" stop-opacity="0"/></radialGradient><clipPath id="2e5612f5-db71-4fae-ba3a-0fb4625ed199"><path d="M420.67,1862.42H1607c73.47,0,82.11-51.86,82.11-69.15V261.22c0-34.57-30.25-69.15-64.83-69.15H433.63c-43.22,0-77.79,36.73-77.79,60.5V1784.63C355.84,1827.85,420.67,1862.42,420.67,1862.42Z" fill="none"/></clipPath></defs><title>one-way</title><circle cx="1024" cy="1024" r="1024" fill="url(#3c1cc28c-800f-48da-8522-c1163102866c)"/><g clip-path="url(#2e5612f5-db71-4fae-ba3a-0fb4625ed199)"><path d="M338.52,184.1h1410.1V1929H338.52Zm38.54,850.62h.2q0,367.83,0,735.67c0,56.54,24.13,80.5,81,80.51q565.9.14,1131.8.2c59.49,0,83.48-23.75,83.47-82.91q0-732.4-.21-1464.81c0-60.65-23.46-83.77-84.71-83.79q-563.72-.15-1127.45-.24c-61,0-84.07,23-84.07,84Q377,669.06,377.06,1034.72Z" fill="#fff"/><path d="M377.06,1034.72q0-365.66,0-731.32c0-61,23-84.06,84.07-84q563.72.09,1127.45.24c61.25,0,84.7,23.14,84.71,83.79q.16,732.41.21,1464.81c0,59.16-24,82.91-83.47,82.91q-565.9-.06-1131.8-.2c-56.83,0-80.95-24-81-80.51q-.07-367.83,0-735.67Zm34.94.19h-.18q0,366.7,0,733.41c0,39.91,8.22,48,48.54,48q564.75-.07,1129.5-.19c40.19,0,48.7-8.4,48.71-48.28q.17-732.32.29-1464.65c0-41-8.36-49.17-50.17-49.16q-563.66.11-1127.32.26c-41.92,0-49.37,7.45-49.37,49.34Q412,669.29,412,1034.91Z"/><path d="M412,1034.91q0-365.62,0-731.23c0-41.89,7.46-49.33,49.37-49.34q563.66-.14,1127.32-.26c41.81,0,50.17,8.16,50.17,49.16q-.12,732.32-.29,1464.65c0,39.88-8.52,48.28-48.71,48.28q-564.75.11-1129.5.19c-40.32,0-48.54-8.13-48.54-48q0-366.71,0-733.41Zm736,355H547.34V1567.6h600c-10.7,33.79-20.2,64.15-29.93,94.43-5.17,16.09-2.36,30.25,10.16,41.68,13.57,12.39,29.06,11.57,44.61,4.37,6.52-3,12.59-7.16,18.51-11.29q148.16-103.24,296.19-206.65c5.06-3.53,9.72-7.63,16.64-13.1-110.15-76.53-218.27-152-326.84-226.72-15.28-10.52-32.9-12.18-48.41,1.31-14.41,12.53-15.68,28.24-9.94,45.65C1128.08,1326.76,1137.29,1356.41,1148,1390ZM616.4,1136.19c45.48,7.66,45.72,7.57,56.15-33.78,13.94-55.26,27.77-110.54,43-171.09,3.4,9.47,5.37,13.79,6.51,18.32,14.5,57.63,29.81,115.07,42.84,173,5.47,24.33,22.63,13.86,35.79,16.11,14.14,2.42,16.22-6.36,17.78-17.84,7.72-56.74,16.28-113.36,24.37-170,6.82-47.81,13.41-95.66,20.3-144.92-9-.54-15.41-.34-21.65-1.4-23.57-4-32.47,4.77-34.82,29.47-4.47,47.08-13.32,93.74-20.35,140.57a1542.64,1542.64,0,0,1-40.62-151.36c-3.81-17.66-13.09-19-27.45-18.88-14.59.13-25.34-.14-29.57,19.13C677.53,874.34,663.58,924.57,650.76,975c-4.34-6.9-6-13.8-7-20.8-6.13-43.79-12.61-87.54-17.86-131.43-1.6-13.38-6-19.62-20.18-18.38-11.22,1-22.59.2-35.77.2Zm310.74-762.8V693.72h48.34V484.06c39.17,61,74,122.77,108.87,184.49,17.17,30.41,18.2,30.84,56.31,23.77v-317H1091.2V575.09c-7.11-11.9-10.86-17.9-14.34-24.05-30.66-54.26-61.08-108.67-92.17-162.68-3.51-6.1-10.26-13.28-16.44-14.3C955,371.88,941.17,373.39,927.14,373.39ZM1177,1138.74c-2.37-8.39-3.67-14-5.51-19.36-33.72-98.75-68.07-197.3-100.77-296.39-5.86-17.74-16-18.93-30.69-18.46-15.18.49-28-1.54-34.83,19-32.28,97.71-66.61,194.73-100.13,292-2.3,6.67-4,13.54-6.83,23.25,10.43,0,18.4-1,26,.19,20.79,3.23,31.7-4.85,36.7-25.55,4.57-18.92,13.08-36.86,18.88-55.53,3.5-11.26,8.94-16.45,21.59-15.91,23.89,1,47.9,1.14,71.77-.07,13.78-.7,19,5.38,22.74,17.24,6.9,22.13,14.48,44.09,23,65.63,2.19,5.55,8.48,12.58,13.62,13.26C1146.58,1139.94,1161,1138.74,1177,1138.74ZM861.61,531.42c-7.62-34.67-12-70.17-23.55-103.19-14.38-41.22-49-59.61-91.44-61.74-43.12-2.16-75.21,17.74-91.55,56.88-29.73,71.18-29.63,144.36-3.07,216.31,14.68,39.78,53,62.75,94.19,60.52,43.28-2.33,78.2-20.8,92-63.78C849,603,853.77,567.72,861.61,531.42Zm409.8-27.59v-81h132.33V374.88H1220.6V693.49h193.48V643.79H1271.19V553.74h90v-49.9Zm40.17,633.22h52.53c0-41.57-.94-81.35.52-121,.5-13.67,4.34-28.68,11.2-40.42,29.58-50.65,60.87-100.29,91.47-150.34,3.46-5.65,6.55-11.53,9.92-17.49-39.23-9.84-68.55-4-82.78,35.48-2.64,7.34-8.06,13.69-12.29,20.45-14.31,22.9-28.66,45.78-44.28,70.71-22-35.73-42.18-68.34-62.26-101-18.56-30.19-39.3-37-75.73-23.73,33.7,55.12,67.75,109.7,100.37,165.13a84,84,0,0,1,10.83,38.35C1312.44,1054.19,1311.58,1095.29,1311.58,1137.06Z" fill="#fff"/><path d="M1148,1390c-10.69-33.54-19.9-63.19-29.63-92.67-5.74-17.4-4.48-33.12,9.94-45.65,15.52-13.49,33.14-11.82,48.41-1.31,108.58,74.76,216.69,150.19,326.84,226.72-6.92,5.47-11.58,9.57-16.64,13.1q-148,103.41-296.19,206.65c-5.93,4.13-12,8.27-18.51,11.29-15.54,7.2-31,8-44.61-4.37-12.52-11.43-15.33-25.59-10.16-41.68,9.73-30.28,19.24-60.64,29.93-94.43h-600V1390Z"/><path d="M616.4,1136.19,570,804.61c13.18,0,24.56.78,35.77-.2,14.15-1.24,18.57,5,20.18,18.38,5.25,43.89,11.73,87.64,17.86,131.43,1,7,2.63,13.91,7,20.8,12.83-50.47,26.77-100.69,37.91-151.52,4.22-19.27,15-19,29.57-19.13,14.36-.13,23.65,1.22,27.45,18.88a1542.64,1542.64,0,0,0,40.62,151.36c7-46.83,15.88-93.49,20.35-140.57,2.35-24.7,11.25-33.49,34.82-29.47,6.24,1.06,12.7.86,21.65,1.4-6.89,49.26-13.48,97.11-20.3,144.92-8.09,56.69-16.65,113.31-24.37,170-1.56,11.48-3.64,20.26-17.78,17.84-13.17-2.25-30.32,8.22-35.79-16.11-13-58-28.34-115.41-42.84-173-1.14-4.53-3.11-8.85-6.51-18.32-15.2,60.55-29,115.83-43,171.09C662.12,1143.76,661.88,1143.86,616.4,1136.19Z"/><path d="M927.14,373.39c14,0,27.88-1.52,41.11.67,6.18,1,12.92,8.2,16.44,14.3,31.1,54,61.51,108.42,92.17,162.68,3.48,6.16,7.23,12.15,14.34,24.05V375.33h49.45v317c-38.11,7.07-39.14,6.64-56.31-23.77-34.85-61.72-69.7-123.45-108.87-184.49V693.72H927.14Z"/><path d="M1177,1138.74c-16,0-30.42,1.2-44.45-.63-5.15-.67-11.43-7.71-13.62-13.26-8.51-21.55-16.1-43.51-23-65.63-3.7-11.87-9-17.94-22.74-17.24-23.87,1.21-47.88,1.09-71.77.07-12.65-.54-18.09,4.65-21.59,15.91-5.8,18.67-14.31,36.61-18.88,55.53-5,20.7-15.91,28.78-36.7,25.55-7.63-1.19-15.6-.19-26-.19,2.83-9.71,4.53-16.58,6.83-23.25,33.53-97.29,67.85-194.32,100.13-292,6.8-20.57,19.65-18.55,34.83-19,14.74-.47,24.83.71,30.69,18.46,32.71,99.09,67,197.64,100.77,296.39C1173.33,1124.77,1174.63,1130.35,1177,1138.74ZM1072,989.37l-34.1-99.05-33.69,99.05Z"/><path d="M861.61,531.42c-7.84,36.29-12.64,71.61-23.39,105-13.83,43-48.76,61.44-92,63.78-41.22,2.22-79.5-20.74-94.19-60.52-26.56-71.95-26.65-145.13,3.07-216.31,16.35-39.14,48.44-59,91.55-56.88,42.48,2.13,77.06,20.52,91.44,61.74C849.58,461.26,854,496.75,861.61,531.42Zm-52.24,9.38c-1.89-21.25-2.91-36.4-4.7-51.46a173.6,173.6,0,0,0-5.11-25.48c-8.75-31.74-27.8-48.95-53.21-48.6-27.37.38-47.24,17.88-55,49.37-11.31,45.8-10.56,91.78-.23,137.61,7.29,32.36,22.9,47.18,49.77,48.55,28.35,1.44,49.56-13.74,57.75-45.38C804.55,582.52,806.53,558.58,809.37,540.81Z"/><path d="M1271.42,503.84h89.76v49.9h-90v90.06h142.89v49.69H1220.6V374.88h183.15V422.8H1271.42Z"/><path d="M1311.58,1137.06c0-41.77.86-82.87-.5-123.9a84,84,0,0,0-10.83-38.35c-32.62-55.42-66.67-110-100.37-165.13,36.43-13.25,57.17-6.45,75.73,23.73,20.08,32.66,40.23,65.27,62.26,101,15.62-24.93,30-47.81,44.28-70.71,4.22-6.76,9.64-13.11,12.29-20.45,14.23-39.52,43.55-45.32,82.78-35.48-3.37,6-6.46,11.84-9.92,17.49-30.61,50-61.89,99.7-91.47,150.34-6.86,11.74-10.69,26.74-11.2,40.42-1.46,39.69-.52,79.47-.52,121Z"/><path d="M1072,989.37h-67.8l33.69-99.05Z" fill="#fff"/><path d="M809.37,540.81c-2.84,17.78-4.82,41.71-10.75,64.62-8.19,31.64-29.4,46.82-57.75,45.38-26.86-1.37-42.47-16.18-49.77-48.55-10.33-45.83-11.09-91.81.23-137.61,7.78-31.49,27.64-49,55-49.37,25.41-.35,44.47,16.86,53.21,48.6a173.6,173.6,0,0,1,5.11,25.48C806.46,504.41,807.48,519.56,809.37,540.81Z" fill="#fff"/></g></svg>