<svg id="a16d801c-ee63-471d-a233-8c29f4ddef1d" data-name="Layer 4" xmlns="http://www.w3.org/2000/svg" xmlns:xlink="http://www.w3.org/1999/xlink" width="2048" height="2048" viewBox="0 0 2048 2048"><defs><radialGradient id="dee5f02a-1958-4165-932a-590ede8a0be9" cx="1018.6" cy="1019.5" r="1009.4" gradientUnits="userSpaceOnUse"><stop offset="0.14" stop-color="#daff00"/><stop offset="1" stop-color="#daff00" stop-opacity="0"/></radialGradient></defs><title>barbecue-glow</title><circle cx="1018.6" cy="1019.5" r="1009.4" fill="url(#dee5f02a-1958-4165-932a-590ede8a0be9)"/><path d="M1771.24,891.41q-7.42-.44-14.83-1l-7.38-.56c-2.44-.18-4.9-.43-7.35-.41a4.08,4.08,0,0,0-3.89,3,4.24,4.24,0,0,0,1.5,4.36q3.51,104.23,2.34,208.57c-.7,70.32-3,140.62-6.38,210.86q-1.31,26.9-2.86,53.79-.78,13.72-1.6,27.43-.39,6.4-.77,12.8l0,0a4.57,4.57,0,0,0-1.38,3.33q.37,5,.73,10c0,.42,0,.83,0,1.25a3.31,3.31,0,0,0,.22,1.23c3,42.08,5.4,84.21,5.74,126.4.19,23.52-.29,47.06-1.67,70.54q-1,17.37-2.77,34.69c-1.14,11.35-2.57,22.66-3.9,34-.24,2-.49,4-.68,6,0,.47-.08.94-.11,1.42q-9.12,2.51-18.39,4.42c-8.39,1.72-16.86,3.09-25.34,4.24a556.67,556.67,0,0,1-63.18,4.2c-10.59.17-21.18.13-31.76,0-5.38-.05-10.76-.13-16.15-.17-2.55,0-5.1,0-7.64.07-1.27,0-2.54.13-3.81.25-.86.08-1.7.21-2.55.34a4.82,4.82,0,0,0-.9.24,2.94,2.94,0,0,0-5.53,1.39,153.39,153.39,0,0,1-1.31,19.29,146.16,146.16,0,0,1-9.83,36,138.54,138.54,0,0,1-17.19,29.51,133.75,133.75,0,0,1-22.94,23,127.35,127.35,0,0,1-27,15.84,124.61,124.61,0,0,1-30.2,8.2,126.45,126.45,0,0,1-31.86,0,137,137,0,0,1-33.6-9.3,123.94,123.94,0,0,1-13.27-6.65,121.3,121.3,0,0,1-12.41-8.35,135.69,135.69,0,0,1-22.83-22.9,145.46,145.46,0,0,1-18-30.82,137.29,137.29,0,0,1-8.93-32.48,121.71,121.71,0,0,1-.08-30,117.68,117.68,0,0,1,7.68-27.86c1.74-4,3.72-7.87,5.32-11.92a5.64,5.64,0,0,0,.13-2.37l.26-.21a5,5,0,0,0,1.47-3.56l-.18-1.33a5,5,0,0,0-1.3-2.22l-1.67-2.13q-2.43-3.15-4.74-6.38c-.89-1.25-1.7-2.54-2.47-3.86s-1.42-2.72-2.14-4.07a60.66,60.66,0,0,0-4.36-7c-2-2.68-4.22-5.34-7.17-7a5,5,0,0,0-2.39-.63,4.61,4.61,0,0,0-1,.12c-1.14-1.62-4.29-2.78-11.28-2.78-85.62,0-171.24.59-256.86.1q-64.21-.37-128.41-1.15-32.15-.39-64.3-.89c-21.27-.33-42.55-.51-63.82-.69-24.26-.21-48.53-.47-72.79-1.06q-8.93-.22-17.85-.51l-8.92-.31c-2.34-.08-4.69-.26-7-.18-.7,0-1.41.07-2.11.12,0-.64,0-1.28,0-1.92a5.05,5.05,0,0,0-5-4.86h-.15a5.07,5.07,0,0,0-4.85,5.17c0,.87,0,1.73,0,2.6-.78.07-1.56.14-2.34.18l-.14-.24a4.7,4.7,0,0,0-2.84-2,5,5,0,0,0-1.15-.13,3.92,3.92,0,0,0-2.41.71c-.53.43-1.07.85-1.57,1.32a8.4,8.4,0,0,0-1.08,1.46,5.15,5.15,0,0,0-.49,4.24l.07.16a4.69,4.69,0,0,0,1.28,2,5.27,5.27,0,0,0,1.27,1,9.78,9.78,0,0,0,3.9,1,31.36,31.36,0,0,0,5.51-.07c0,14.81-.23,29.61-.51,44.41q-.28,14.39-.59,28.77c-.09,4.63-.18,9.26-.22,13.89,0,2.46,0,4.93,0,7.39,0,1.44.13,2.87.19,4.3-1,0-2,.09-3,.14-2.69.15-5.38.36-8.07.6s-5.39.54-8.08.86a55.57,55.57,0,0,0-8.65,1.55,5.48,5.48,0,0,0-2.13,9.24l1.14.82h0a80.89,80.89,0,0,0-3.69,11.3,156.67,156.67,0,0,0-3.26,19.51c-1.53,12.85-2.49,25.92-7,38.16a57.39,57.39,0,0,1-6.21,11.62,55.07,55.07,0,0,1-8.37,8.89,56.78,56.78,0,0,1-10.46,6.73,38.38,38.38,0,0,1-7.87,2.5,32,32,0,0,1-6.79.24,31.57,31.57,0,0,1-6.24-1.51,35.92,35.92,0,0,1-6.32-3.46,45.88,45.88,0,0,1-6.93-6.59,65.18,65.18,0,0,1-7.79-12.62,67.89,67.89,0,0,1-2.73-7.07,48,48,0,0,1-1.43-5.93,71.92,71.92,0,0,1-.38-16.94,75.79,75.79,0,0,1,4.07-17.27,57.13,57.13,0,0,1,5.88-11,43.19,43.19,0,0,1,6-6.49,36.32,36.32,0,0,1,6.19-3.89,34.58,34.58,0,0,1,6.67-2,41.59,41.59,0,0,1,6.88-.35c3.21.09,5.8-3,5.7-6.07a5.9,5.9,0,0,0-1.86-4.1l-1.22-.88a5.83,5.83,0,0,0-3-.71,39.33,39.33,0,0,0-8.19.18,3.89,3.89,0,0,0,1.24-2.31,32.55,32.55,0,0,0,.35-3.51c.26-3.7.36-7.41.47-11.12.35-12.38.44-24.77.54-37.15q.17-21.24.17-42.48c0-10.11,0-20.23-.19-30.34-.22-10.6-.59-21.19-.89-31.79q-.55-19.6-1.06-39.18-1-39.17-1.68-78.34-1.26-78.43-.09-156.87c1.68-104.71,6.45-209.42,4.4-314.17-.25-12.83-.58-25.66-1.27-38.48a4.48,4.48,0,0,0-.29-6.12l-.13-.13a5.46,5.46,0,0,0-4.19-4.3c-7.08-7.26-14.16-14.52-21.32-21.71-4.3-4.31-8.62-8.59-13.07-12.75q-3.2-3-6.53-5.83a48.21,48.21,0,0,0-8-5.76,3.8,3.8,0,0,0-1.19-.41v-.13a3.22,3.22,0,0,0-1-2.24,3.49,3.49,0,0,0-2.3-.87c-29.74-2.64-59.56-3.58-89.39-3.58-21.79,0-43.58.5-65.36,1.21-51.9,1.69-103.78,4.54-155.72,4.75q-22.84.09-45.67-.61-11.57-.38-23.12-1-5.77-.32-11.53-.69l-5.37-.32a42.19,42.19,0,0,0-6.12-.13,4.18,4.18,0,0,0-1.91.65l-.08-.18A68.06,68.06,0,0,1,93,871.35c-1.51-12.16-.94-24.48-.13-36.67.4-6.12.9-12.24,1.28-18.37.36-5.93.49-11.85.4-17.79-.25-16-1.19-32-2.34-48-.57-8-1.22-16-1.82-24-.58-7.77-1.11-15.55-1.73-23.32A4.65,4.65,0,0,0,91.49,699c0-.45,0-.9.09-1.35a19.3,19.3,0,0,1,1-3.5A25.18,25.18,0,0,1,95.09,690a39.83,39.83,0,0,1,6.09-5.91,92.55,92.55,0,0,1,19.19-10.64,244.8,244.8,0,0,1,33.49-10.74c5.1-1.3,10.24-2.49,15.38-3.61l6.44-1.38c1.86-.39,3.71-.86,5.58-1.2a5.33,5.33,0,0,0,3.3-2.54,5.4,5.4,0,0,0,.34-.75c54.1,1.62,108.23,1.8,162.34,3.41,27.81.82,55.61,1.91,83.37,3.78,13.85.93,27.67,2.14,41.5,3.33s27.6,2.33,41.43,2.93q7.05.31,14.11.36a86,86,0,0,0,15.3-.86,4.46,4.46,0,0,0,3.29-4.32c0-.14,0-.27,0-.4a4,4,0,0,0,.74-2.56c-6.79-52.49-6.12-105.57-3.63-158.33,1-21.93,2.4-43.85,3.56-65.77.59-11.07,1.18-22.14,1.6-33.22.21-5.52.35-11.05.49-16.59.13-5.37.38-10.79,0-16.16a92.21,92.21,0,0,1,.66-10,146.22,146.22,0,0,1,5.88-24.23c2.26-7.09,4.94-14,6.76-21.26,3-11.88,4.8-24.17,9.44-35.58a46.65,46.65,0,0,1,5-9,33.14,33.14,0,0,1,3.53-3.68c107.67-8.36,215.81-4.79,323.56.13,54.51,2.49,109,5.34,163.54,7.23,55.79,1.93,111.62,2.45,167.44,2.4q45.21,0,90.43-.52,22.61-.21,45.22-.47,11.72-.13,23.44-.31,5.86-.1,11.72-.24c1.67,0,3.35-.12,5-.18a44.74,44.74,0,0,0,6-.65,3,3,0,0,0,1.77-1.1l4.5.07,12.18.25c1.91,0,3.81.16,5.72.18a50.94,50.94,0,0,0,6.41-.33l.53-.07q5.37,10.43,10,21.23a311.64,311.64,0,0,1,13.77,40.54,342.78,342.78,0,0,1,8.27,42q2.13,16.2,3,32.53c.68,11.82.81,23.66.89,35.5q.27,38.68.07,77.37-.21,32.93-1,65.86-.37,16.25-.88,32.49-.24,8.11-.48,16.22c-.08,2.83-.16,5.66-.23,8.49s-.17,5.66,0,8.48a3.51,3.51,0,0,0,2.23,3.2,2.91,2.91,0,0,0,0,.42,3,3,0,0,0,.86,2.08,2.81,2.81,0,0,0,2.08.86c42.85-5.21,86.06-7,129.2-7.25,43.66-.26,87.3,1.18,130.93,2.73,13.41.48,26.81,1,40.22,1.4q10,.32,20,.57,4.35.1,8.7.17a3.83,3.83,0,0,0,1,1.74,3.68,3.68,0,0,0,2.73,1.13,162.15,162.15,0,0,1,42.19.16,143.42,143.42,0,0,1,34.89,9.17,95.93,95.93,0,0,1,20.15,11.56A72.92,72.92,0,0,1,1928.27,692q1.52,2,2.9,4.14a5.39,5.39,0,0,0,2.37,2.07q3.18,28.21,4.62,56.58,1.64,31.59,1.08,63.25-.35,19.06-1.6,38.08c-.39,6.08-.86,12.15-1.37,18.22-.25,3-.52,5.95-.75,8.93q-.12,1.55-.21,3.1A935.48,935.48,0,0,1,1771.24,891.41Z" fill="#fff"/><path d="M552.65,1692.78Q550.8,1357.1,549,1021.42c0-3,.16-6.08.25-9.12q.56-28,1.17-55.9a14.86,14.86,0,0,1,.91-3.41c.41.7,1.09,1.36,1.18,2.1,5.88,45.61,43.87,52,77.62,62.73,24.23,7.69,12.85-13.09,13.41-20.57,1.69-22.69.74-45.57.81-68.37l1.58,55q.65,50.88,1.29,101.77l.92,163.45.18,114.57.1,159.25q0,76.31-.06,152.63c0,53.88,0,52.78-54,54.33-25.94.75-46.79,1.33-39.15-34.4,1.63-7.62-.06-16-.22-24l-1.66,21.07Z" fill="#707070"/><path d="M1877.36,893.42l-132.36.21-29.79-.18-4.08-1.09-9.25.06-78.34-.32c-16.92-.37-33.93.2-50.72-1.48-8.85-.88-17.31-5.68-25.95-8.71,5.67-7.37,10-16.61,17.26-21.79,31-22.2,38.64-75,10.9-95.51-12.24-9-30.09-10.15-44.4-16.94-4.87-2.31-6-11.55-10.22-16.53-2.21-2.65-7.22-3-11-4.33,5.84-2.22,11.68-6.32,17.52-6.32,21.55,0,43.12,2.28,64.66,2,23.26-.27,46.49-2.56,69.75-3.61,5.08-.23,13.14-.73,14.81,2,5,8.15,7.54,17.81,11,26.89-30.16,10.8-44.59,31.8-39.25,63.86,2.13,12.82,7.6,25.09,11.55,37.61l27.1,15.71c1.49,1.91,2.63,5,4.54,5.55,20.82,6.5,71.7-28.07,66.87-49-7.22-31.29-22.24-60.77-34-91-.87-2.24-3.2-5.51-2.47-6.45a10.36,10.36,0,0,1,7.07-3.64c37.7-.73,75.81,2.05,113-2.61,37.93-4.75,46.58,12.38,44.5,44.11-.39,40.75-.62,81.5-1.5,122.23C1884.59,887.28,1879.9,890.33,1877.36,893.42ZM1810.53,754c18.26,0,36.57.6,54.74-.65,2.71-.19,5.69-9,6.74-14.12.39-1.91-4.41-7-6.89-7-33.48-.48-67-1-100.42.31-5.35.2-10.37,8.95-15.55,13.75,5,2.59,9.92,7.07,15.09,7.4C1779.61,754.65,1795.09,754,1810.53,754Z" fill="#d3d3d3"/><path d="M1608,1716.31l-50.9,0,66.38-2.64c20.24-.08,40.51.54,60.68-.71,5.26-.32,14.49-6.29,14.61-9.9,3-92.73,5.61-185.48,7-278.25,2.64-174.52,4.48-349.06,6.71-523.59,0-2.55.83-5.08,1.27-7.62.58,30-4.09,62.14,31.22,78.32q-3.36,364.46-7,728.91c0,2.52-4.25,7-6.77,7.18C1690.13,1711.12,1649,1713.65,1608,1716.31Z" fill="#474747"/><path d="M209.28,654.78q161.15-.08,322.3-.2c3.63,0,7.26-.79,10.89-1.21l31.29,11.79a8.83,8.83,0,0,0,.23,1.2l-1.23,2.87L549,692.55h-5.22l-403.54.06-1.27-4,2.69-6.44c3-2.43,5.62-5.87,9-7.11C170.12,668,189.73,661.5,209.28,654.78Z" fill="#d1d1d1"/><path d="M1486.71,654.6q162.29,0,324.58,0c2.77,0,5.55-.77,8.32-1.18,3.29,2.17,6.36,4.87,9.92,6.41,20.13,8.74,40.38,17.21,60.58,25.78q0,1.6,0,3.2l-.46,3.34c-4.34.16-8.68.45-13,.45q-195.09,0-390.17,0l-3.94,0-26-22.43Z" fill="#cdcdcd"/><path d="M543.78,692.56H549L546.17,729l-1.23,36.83-1.19-18.44c-2-11-3.82-31.67-5.94-31.7-129.64-1.69-259.31-1.73-389-1.63-2,0-5.86,3.5-5.85,5.35.22,54.17.82,108.33,1.36,162.49q0,5.91-.05,11.83c-16.86.54-33.74,1.6-50.57,1.06-2.44-.08-6.57-7.74-6.66-12C85.82,822,85.14,761.24,84.32,700.45L139,688.65l1.27,4c6.7,6.45,13.36,18.48,20.1,18.53q178.94,1.16,357.88-1.07C526.82,710,535.27,698.66,543.78,692.56Z" fill="#747474"/><path d="M1412.82,262.9c21.82-5.49,41.57-4.42,50.3,20.55,31.82,91,29.31,185.71,28.82,280.13-.1-7.61,1.5-15.77-.72-22.69-2.64-8.22-8.58-15.39-13.09-23-2.83,7.42-7.86,14.76-8.11,22.27-.95,29.34-.22,58.73-.48,88.1-.09,9.87-1.26,19.74-1.94,29.61-1.15-10-2.27-20-3.46-30a39.68,39.68,0,0,0-1-4.35c-.88,1.69-2.26,3.3-2.56,5.09-1.15,7-2,14-2.9,21l-32.28-3.8-.11-93.17c10.84-2.4,31.1-4.69,31.13-7.22.56-48-1.26-96-2.59-144-2.23-5.64-4.89-16.22-6.61-16.07-8.72.77-17.19,4.32-25.75,6.89q-.06-12.33-.11-24.66c14.17-5,37.51-6.77,40.58-15.61,6.13-17.66,1.69-39.22.35-59.08-.28-4.17-6.14-11.43-9.24-11.34-12,.37-23.91,3.15-35.85,5l-1.19-2.73q0-2,0-3.95l29.67.63c-1.68-3.91-2.47-10.29-5.2-11.28C1431.65,266.07,1422.1,264.87,1412.82,262.9Z" fill="#8f8f8f"/><path d="M1889.69,692.18l.46-3.34,54.62,10.29c-.85,62-1.51,123.95-3,185.9-.09,3.67-6.78,10.19-10.49,10.26-17.95.34-35.93-1.07-53.9-1.86,2.54-3.09,7.23-6.14,7.29-9.29.88-40.74,1.11-81.48,1.5-122.23q.09-23.69.18-47.38c-4.32-.27-8.65-.79-13-.79q-193.43-.21-386.86-.33l-4-20.77,3.94,0c4.29,6.09,8.52,17.45,12.87,17.49,122.1,1.32,244.22,1.87,366.33,1C1873.73,711.06,1881.69,698.78,1889.69,692.18Zm44.64,61.5h1.27c0-10.86.25-21.74-.22-32.58-.09-2.07-3-4-4.66-6-1,1.56-2.79,3.11-2.82,4.68q-1.48,81.68-2.44,163.36c0,2.89,2.77,5.82,4.25,8.73,1.54-2.84,4.4-5.66,4.41-8.51C1934.41,840.13,1934.32,796.91,1934.32,753.68Z" fill="#717171"/><path d="M1457.68,649.59c.94-7,1.75-14,2.9-21,.3-1.79,1.68-3.4,2.56-5.09a39.68,39.68,0,0,1,1,4.35c1.19,10,2.32,20,3.46,30,.68-9.87,1.85-19.73,1.94-29.61.26-29.37-.47-58.76.48-88.1.24-7.5,5.28-14.85,8.11-22.27,4.51,7.62,10.45,14.79,13.09,23,2.23,6.92.63,15.08.72,22.69q-2.62,45.51-5.23,91l-30.14,15.61c-3.58,7-7.12,19.9-10.76,19.93-38.14.32-76.3-2-114.46-2.48q-106.69-1.28-213.39-1.2c-21.13,0-42.27,1.79-63.4,2.77l1.22-28.45c4,2.73,8,7.79,12.12,7.84,47.16.53,94.33.3,141.49.28,77.59,0,155.19.06,232.78-.32,4.42,0,8.83-3.82,13.24-5.87-4.15-.85-8.31-1.63-12.44-2.55-6.31-1.41-12.6-2.91-18.89-4.38Z" fill="#747474"/><path d="M537.41,500.71c9.15-71.38,17.28-142.91,28-214,3.59-23.79,34.74-36.07,51.31-23.61q0,.53,0,1.07l-32.62,10.24c-5.88,7.07-15.62,13.53-16.84,21.33-2.7,17.13-3.78,35.53-.12,52.23,1.89,8.63,15.45,14.58,23.45,22.05,5.88,5.48,11.29,11.45,16.91,17.21-11.91,3.95-34.25-10.52-32.13,18.2l-2.71,78.2-9.28,3.95-2.13-14.37C556.09,481.75,550.29,490,546,499c-2.69,5.69-3.07,12.48-4.49,18.77Z" fill="#969696"/><path d="M644.31,928.88c-.08,22.81.88,45.69-.81,68.37-.56,7.47,10.82,28.26-13.41,20.57-33.75-10.72-71.74-17.12-77.62-62.73-.1-.74-.78-1.4-1.18-2.1a14.86,14.86,0,0,0-.91,3.41q-.64,27.95-1.17,55.9-.19-28-.39-55.94.06-7.85.13-15.69l1.24-14.6c8.75,1.57,25.14,3.38,25.1,4.68-.67,21.65,8.81,7.85,15.36,5.16,1.64-.68,4.24,1.34,6.22,1C612.71,934.39,628.51,931.59,644.31,928.88Zm-91,10.3c6.35,2.72,11.06,5.15,16.06,6.48.88.23,3-4.17,4.53-6.44-4.76-2.25-9.41-4.88-14.39-6.44C558.49,932.46,556.2,936.11,553.32,939.18Z" fill="#484848"/><path d="M537.41,500.71l4.15,17.07c1.42-6.29,1.8-13.08,4.49-18.77,4.25-9,10-17.26,15.18-25.84l2.13,14.37-1.29,54.82,9,22.31q.65,43,1.3,85.9L605,657.13c-5.3,1-10.67,1.71-15.88,3.05s-10.24,3.29-15.35,5l-31.29-11.79Z" fill="#828282"/><path d="M549,940.67q-.07,7.84-.13,15.69C543.1,927.92,501.11,893.7,472,893.7H144.3q0-5.91,0-11.83c3.12,3.45,6.22,9.9,9.35,9.91,112.41.5,224.84,1.34,337.19-1.19,10.12-.23,36.77,20.6,38.57-14.46,1.49-28.85,6.89-57.47,9.54-86.29,1-10.54-1.52-21.36-1.25-32,.09-3.54,3.89-7,6-10.47l1.19,18.44q.05,43,.1,86C538.38,881.78,543.54,911.23,549,940.67Z" fill="#b4b4b4"/><path d="M1744.94,972c-35.31-16.18-30.64-48.3-31.22-78.32l1.49-.18,29.79.18Q1745,932.79,1744.94,972Z" fill="#353535"/><path d="M139,688.65l-54.65,11.8c8.32-9.64,15-24.8,25.29-27.9,30.83-9.3,63.08-13.89,94.78-20.31-21.37,8.73-42.76,17.4-64,26.34-1,.43-1.1,3.12-1.61,4.76l2.93-1.12Z" fill="#b3b3b3"/><path d="M1944.76,699.13l-54.62-10.29q0-1.6,0-3.2c-1.92-4.07-2.87-10.63-5.92-11.82-20-7.85-40.53-14.54-60.88-21.62,37.24,10.12,74.61,19.81,111.54,30.94C1939.35,684.5,1941.51,693.61,1944.76,699.13Z" fill="#b4b4b4"/><path d="M1823.32,652.21c20.34,7.07,40.84,13.77,60.88,21.62,3,1.19,4,7.75,5.92,11.82-20.21-8.56-40.45-17-60.58-25.78-3.56-1.55-6.63-4.25-9.92-6.41Z" fill="#606060"/><path d="M141.66,682.21l-2.93,1.12c.51-1.64.59-4.33,1.61-4.76,21.28-8.93,42.68-17.61,64-26.34l4.89,2.55C189.73,661.5,170.12,668,150.7,675.1,147.28,676.34,144.65,679.78,141.66,682.21Z" fill="#575757"/><path d="M647.19,1085.66q-.65-50.88-1.29-101.77l2.44-27.82-.1.24c9.36.44,18.72,1.25,28.08,1.25q338.46.1,676.92,0c9.61,0,19.22-.77,28.83-1.18l1.27,32.57c-.42,2.33-1.19,4.66-1.2,7q-.71,131.7-1.29,263.41c-.44,101.58-1.72,203.16-.66,304.72.23,21.74-3.41,28.82-26.52,28.73-225.63-.84-451.27-.52-676.91-.47-6,0-12.07.7-18.1,1.08l-7.64.34-1.65-70.7q-.55-79.69-1.09-159.37l-.18-114.57Zm371.88-32.73c0,18.6.53,37.24-.42,55.79-.41,8-4,15.89-6.08,23.83l-1.32-11.74q.66-70.34,1.26-140.68c0-4.89-.83-9.79-1.27-14.69q-173.66,0-347.33.26c-3.22,0-9.18,3.62-9.23,5.67-.83,34.14-.93,68.29-1.19,102.45q.66,103.18,1.32,206.36c.41,99,.73,198,1.63,297,0,3.27,5.9,9.31,9.06,9.32q168.11.73,336.22,0c3.2,0,9.13-6,9.15-9.21.47-89,.33-178,.3-267,.46-13.37.57-26.77,1.49-40.12.79-11.51,2.5-23,3.8-34.43l1.3,0q0,36,.08,71.91c0,89.62-.09,179.24.28,268.86,0,3.46,4.39,9.91,6.76,9.92q165.42.71,330.84-.12c5.78,0,16.46-6.79,16.55-10.59,1.44-66.74,1.58-133.5,2-200.26.41-3.64,1.18-7.28,1.18-10.92q.1-130.31.06-260.62,0-31.37,0-62.74c0-22.41.3-44.84-.35-67.23-.08-2.91-5.07-8.14-7.8-8.15q-169.73-.62-339.47-.18c-2.83,0-8.08,2.58-8.12,4C1019.17,997.41,1019.18,1025.17,1019.06,1052.93Z" fill="#050505"/><path d="M648.33,956.08l-2.44,27.82-1.58-55c-15.81,2.72-31.6,5.51-47.44,8-2,.32-4.57-1.7-6.22-1-6.55,2.7-16,16.49-15.36-5.16,0-1.3-16.35-3.11-25.1-4.68l8-23.48q370.73.08,741.45.1c57.61,0,115.22-.62,172.83-.95l7.63-.26,6.65-9.27,5.16,1.29c-2.12,2.88-5.72,5.57-6.11,8.66-2.24,18.07-3.72,36.24-5.45,54.37l-6-27.37-20.39,15.26c-11-3.06-22-8.58-33-8.54-12.52,0-25.11,4.78-37.45,8.24-1.49.42-1.66,5.56-2.44,8.51-3.48-1.9-7-3.76-10.43-5.72-3-1.7-5.81-4.92-8.82-5.06q-37-1.72-74-2.43c-20.92-.42-41.87-.78-62.78-.24-14.36.37-28.7,3.53-43,3.33-29.56-.41-59.09-3.12-88.64-3.2-24.24-.07-48.48,3.34-72.73,3.35-37.55,0-75.09-2-112.64-2.25-23.85-.14-47.71,2-71.58,2.09-20,.06-39.95-1.8-59.94-2.09-25.13-.36-50.47-1.9-75.34.72C683.18,943,665.89,950.88,648.33,956.08Zm657.73-56.61,5.67,7.16,14-1.43c-4.37-.37-8.75-1.08-13.13-1.08q-370.81-.08-741.62,0c-2.83,0-6-.65-8.37.44-1.91.88-4.1,4-4,6,.36,4.92,2,9.74,3.09,14.6,1.29-1.28,2.38-2.93,3.91-3.78,6.35-3.52,13.37-10.39,19.19-9.53,24.13,3.55,47.9,13.69,71.84,13.82,204.44,1.16,408.88.67,613.32.56a13.69,13.69,0,0,0,8.12-2.6C1287.62,915.76,1296.78,907.53,1306.06,899.46Z" fill="#444"/><path d="M649.38,1523.06q.82,35.35,1.64,70.7-.11,9.7-.22,19.4l-1.12,116.27c-4.16,2.08-8.31,5.92-12.49,6-28.12.22-56.25-.38-84.38-.71q.23-21,.46-42.07l1.66-21.07c.16,8,1.85,16.33.22,24-7.64,35.73,13.21,35.15,39.15,34.4,54.06-1.55,54.06-.45,54-54.33q0-76.31.06-152.63Z" fill="#404040"/><path d="M647.19,1085.66l.92,163.45Z" fill="#141414"/><path d="M649.38,1523.06l-1-.12q0-79.63-.09-159.25Q648.83,1443.37,649.38,1523.06Z" fill="#2e2e2e"/><path d="M1715.21,893.45l-1.49.18c-.44,2.54-1.24,5.08-1.27,7.62-2.23,174.53-4.07,349.07-6.71,523.59-1.41,92.77-4,185.52-7,278.25-.12,3.61-9.35,9.57-14.61,9.9-20.16,1.24-40.44.63-60.68.71-27.94-5.75-71.81,20.83-74.32-36.58,1.73-3.1,5.39-6.57,4.88-9.25-4.53-23.68-10-47.18-14.79-70.81-6.05-29.67-18-59.78-16.31-89,3.41-57.75,13.53-115.21,22.72-172.49,6.45-40.22,13.63-80.6,24.74-119.71,9.94-35,25.68-68.37,38.95-102.42.49-1.26,1.8-2.2,2.73-3.29.52.57,1.32,1.05,1.51,1.71.65,2.28,1.09,4.61,1.61,6.93,2.35-2.1,5.16-3.87,6.93-6.38,1.58-2.24,2-5.27,2.94-8,2-6,2.88-13,6.54-17.76,2.39-3.12,9.06-2.68,13.51-4.55,5.24-2.21,11.06-4.27,15-8.1,4.18-4.1,5.59-11,9.66-15.24,7.1-7.45,21.35-13.25,22.08-20.75,4.22-43.61,5.38-87.51,7.57-131.31-5.87-4.35-11.67-12.39-17.61-12.49-59-1-118.09-.68-177.14-.73l119-1.35,78.34.32q-2,250.33-4,500.67c0,5,1,10.1,1.51,15.15,1.09-4.16,3.06-8.31,3.13-12.49q3.83-226.37,7.35-452.74c.27-16.88.8-33.76,1.2-50.64Z" fill="#686868"/><path d="M1623.54,892.11l-119,1.35-11.61.37-1.06-.31-5.16-1.29L1482.69,729q-.06-2.1-.11-4.2l1.72-7.5a40.7,40.7,0,0,1,6.41-1q191.3.44,382.6.88c4.19,0,8.38-1.54,12.57-2.36l.46-.3q-.09,23.69-.18,47.38c2.08-31.73-6.57-48.87-44.5-44.11-37.18,4.66-75.29,1.87-113,2.61a10.36,10.36,0,0,0-7.07,3.64c-.73.94,1.6,4.21,2.47,6.45,11.72,30.25,26.74,59.74,34,91,4.83,20.93-46,55.5-66.87,49-1.9-.59-3-3.64-4.54-5.55l-27.1-15.71c-3.95-12.52-9.41-24.79-11.55-37.61-5.34-32.05,9.09-53.06,39.25-63.86-3.5-9.08-6-18.74-11-26.89-1.67-2.71-9.72-2.21-14.81-2-23.26,1.05-46.49,3.34-69.75,3.61-21.54.25-43.11-2-64.66-2-5.84,0-11.68,4.1-17.52,6.32,3.74,1.37,8.75,1.68,11,4.33,4.17,5,5.35,14.22,10.22,16.53,14.32,6.79,32.16,7.89,44.4,16.94,27.74,20.5,20.12,73.3-10.9,95.51-7.24,5.18-11.58,14.42-17.26,21.79,8.64,3,17.1,7.83,25.95,8.71C1589.62,892.31,1606.63,891.74,1623.54,892.11Zm-44-63.66c1.05-11.33,6.31-24.63,2.15-33.53-5.79-12.38-18.83-30.3-28.4-30.07-18.12.43-36,12.07-54,19,5.88,20.83,5.5,50.29,19.25,60.25C1535,856,1565.29,857.4,1579.57,828.44Zm168.87-22c-2.45-30.14-19.23-48.33-49.26-47.48-26.82.76-44,18.23-43.3,46,.72,29.09,18,46.47,47.48,46.16C1730.86,850.75,1746.2,834.75,1748.44,806.4Z" fill="#c4c4c4"/><path d="M1711.13,892.37c-.41,16.88-.93,33.76-1.2,50.64q-3.65,226.37-7.35,452.74c-.07,4.18-2,8.33-3.13,12.49-.53-5-1.55-10.1-1.51-15.15q1.88-250.33,4-500.67Z" fill="#989898"/><path d="M1810.53,754c-15.44,0-30.92.64-46.29-.35-5.17-.33-10.07-4.82-15.09-7.4,5.18-4.8,10.2-13.54,15.55-13.75,33.43-1.27,66.94-.8,100.42-.31,2.48,0,7.28,5.12,6.89,7-1,5.17-4,13.94-6.74,14.12C1847.1,754.61,1828.79,754,1810.53,754Z" fill="#292929"/><path d="M1659.52,849.26l27.1,15.71Z" fill="#888"/><path d="M1306.17,1687.51l1.34-2.66c2.89-15.9,5.83-31.79,8.65-47.7.8-4.5,1.29-9.05,1.92-13.58l5.15-.11c22-7.41,43.61-17.35,66.24-21.51,22.93-4.21,47-1.84,70.37-4.29,5.8-.61,10.81-8.7,16.18-13.36q2.17-313.88,4.33-627.76c1.74-18.13,3.22-36.3,5.45-54.37.38-3.09,4-5.79,6.11-8.66l1.06.31c-.86,35.37-2.27,70.74-1.94,106.1,0,4.66,8.94,9.23,13.74,13.84h2.53c-4.07.44-8.16.81-12.21,1.42-.47.07-.75,1.47-1.11,2.25l9.65,1.08c-3.44.29-7.16-.11-10.21,1.13-1.61.66-2.9,4.16-2.91,6.39q-1.49,185.14-2.69,370.28c-.38,27.38-1.23,54.77-1,82.15.22,28.36-5.26,59.11,3.79,84.53,14.21,39.92,38.5,76.25,58.53,114.1,2.52,57.41,46.38,30.83,74.32,36.58l-66.38,2.64c1.23,42.83-16.24,77-48.28,104.48L1489,1833.6l-20.6,8.34-82.52-1.54-22.25-10.34C1312.46,1795.45,1293,1748,1306.17,1687.51Zm95.4-75.8c-20.44,12.83-45.44,21.75-60.46,39.24-41.45,48.27-41.57,98.81-6.15,145.32,32.91,43.21,90.84,58.33,142.49,37.2,48.73-19.94,77.77-69.47,74.2-126.5-2.22-35.35-35.11-77.85-67.65-87.41Z" fill="#141414"/><path d="M522.88,1801.11c-23.57-24,17.57-28.74,13.92-46.8l21.15-2.68c14.54,4.1,29.1,8.16,43.61,12.38,1.68.49,3.09,1.88,4.63,2.85a32,32,0,0,1-1.69-4.6c-1.39-6.76-2.66-13.54-4-20.32,2.32-.12,6.6-.65,6.68-.29,1.33,6.28,2.06,12.67,3.1,19a124.27,124.27,0,0,0,2.57,12.53c.46,1.68,1.92,3.09,2.93,4.62l1.08-5.44-1.3,24.85c-3.63,2.23-7.48,4.18-10.85,6.75-12.27,9.38-24.33,26.32-36.55,26.38-11.79.06-23.84-17-35.44-26.95-4.62-4-8.32-9-12.44-13.5Zm46-51c-15.47,17.62-25,28.22-34,39.2-.91,1.11,1,4.57,1.66,6.94,2.46-1.64,5-3.13,7.35-5,8.81-6.89,17.64-19.43,26.25-19.26,8.27.16,16.24,13.49,24.44,20.94a79.35,79.35,0,0,0,6.55,4.87c.73-2.21,2.77-5.46,2-6.46C593.78,1779.63,584.07,1768.24,568.88,1750.07Z" fill="#434343"/><path d="M535.74,1826.12l-8.64-12-4.22-13-2.56-11.2c4.12,4.53,7.83,9.54,12.44,13.5,11.6,9.94,23.64,27,35.44,26.95,12.21-.06,24.28-17,36.55-26.38,3.37-2.58,7.22-4.52,10.85-6.75l-1.45,8.83-13.94,22.72C578,1845.74,556.46,1845.74,535.74,1826.12Z" fill="#090909"/><path d="M616.9,1772.38l-1.08,5.44c-1-1.53-2.47-2.94-2.93-4.62a124.27,124.27,0,0,1-2.57-12.53c-1-6.34-1.77-12.74-3.1-19-.08-.36-4.35.17-6.68.29,1.31,6.78,2.57,13.56,4,20.32a32,32,0,0,0,1.69,4.6c-1.54-1-3-2.36-4.63-2.85-14.51-4.22-29.07-8.27-43.61-12.38l13.89-12.68-15.32-1.6-3.71-2.67c28.13.33,56.26.93,84.38.71,4.18,0,8.33-3.88,12.49-6l2.56-6.72c-8.77,5-17.4,10.18-26.39,14.7-2.67,1.34-6.35.66-9.57.9Q616.59,1755.34,616.9,1772.38Z" fill="#060606"/><path d="M556.52,1737.35l15.32,1.6L558,1751.63l-21.15,2.68c-4.86-4.88-10-9.51-14.28-14.88-.68-.86,2.83-5,4.4-7.67,3.82,2.56,7.42,6.72,11.52,7.3C544.28,1739.87,550.48,1738,556.52,1737.35Z" fill="#424242"/><path d="M1489,1833.6l19.79-12.78,7,16.47-35.64,12.28-.23-.34Z" fill="#cecece"/><path d="M1484.3,717.3l-1.72,7.5c-4.77-3.38-9.51-9.63-14.32-9.69-39.9-.46-79.81.47-119.71.52q-194,.21-388.06.06c-133.27-.19-266.53-.84-399.8-.55-4.26,0-8.49,8.08-12.74,12.39l-.78,5-1-3.5L549,692.55l23.74-23.32c6.32,7.53,12.63,21.55,19,21.57,54.94.12,109.87-2.92,164.82-3.73,59.12-.88,118.31-1.65,177.38.37,16.56.56,32.38,13,49.27,16.56a226.41,226.41,0,0,0,56.68,4.19c5.2-.25,9.82-12.31,14.7-19,21.13-1,42.27-2.77,63.4-2.77q106.69,0,213.39,1.2c38.17.46,76.32,2.8,114.46,2.48,3.64,0,7.18-13,10.76-19.93l26,22.43,4,20.77-2.19,1.36Z" fill="#292929"/><path d="M1054.57,689.23c-4.88,6.64-9.5,18.7-14.7,19A226.41,226.41,0,0,1,983.19,704c-16.89-3.51-32.71-16-49.27-16.56-59.06-2-118.25-1.24-177.38-.37-55,.81-109.89,3.86-164.82,3.73-6.34,0-12.65-14-19-21.57l1.23-2.87c2.89.8,5.79,2.29,8.68,2.3q192.19.24,384.38,0c2.08,0,6-3.61,5.85-5.17-.39-3.42-2.83-9.45-4.49-9.47-42.61-.4-85.23-.11-127.85,0-39.16.07-78.32-.21-117.47.13s-78.51,1.26-117.77,1.92V652c119.82.08,239.63.22,359.45-.21,2.39,0,4.76-6.58,7.15-10.09l-1.16-14.43-1.65-2.92.06-3.35.17-6.89c-1.71-1.81-3.38-5.16-5.13-5.2q-170.31-4-340.63-7.58l29.91-2.94-15.34,1.36c5.16.44,10.32,1.3,15.47,1.25,12.16-.13,24.32-.74,36.48-1.07,97.33-2.67,194.65-6.61,292-7.2,29.79-.18,59.56,12.41,89.46,13,92.82,1.85,185.7.77,278.55.71,5.2,0,10.41-1.11,15.61-1.7l-16.28-2.17-288.57-.22c3.05-.79,6.11-2.28,9.15-2.27q158,.48,316,1.22l-27.62,7.9-7.71-.38c-3.87-.36-7.74-1-11.61-1q-129.12-.1-258.25,0c-6.66,0-13.32.87-20,1.33l.08-.06c-26.44-1.33-52.87-2.85-79.33-3.73-3-.1-6.2,3.3-9.3,5.08,3.23,1,6.73,1.53,9.66,3.11,23.47,12.65,61.83-28.49,75.08,20.78l.08,6.13-1.37,20.36Zm-237-87.13c0,.15,0,.3,0,.45q-73.44,0-146.88.09c-2.1,0-4.2,1.4-6.3,2.15,1.58.79,3.16,2.28,4.74,2.28q147.19-.24,294.39-.8c1.89,0,3.78-1.32,5.67-2-2-.72-4-2.07-6-2.07Q890.4,602,817.61,602.1Z" fill="#6a6a6a"/><path d="M543.78,692.56c-8.52,6.1-17,17.41-25.56,17.52q-178.93,2.29-357.88,1.07c-6.74,0-13.4-12.07-20.1-18.53Z" fill="#999"/><path d="M605.31,656.06c39.26-.66,78.51-1.58,117.77-1.92s78.31-.06,117.47-.13c42.62-.08,85.23-.36,127.85,0,1.65,0,4.1,6,4.49,9.47.18,1.56-3.77,5.17-5.85,5.17q-192.19.31-384.38,0c-2.89,0-5.79-1.5-8.68-2.3a8.83,8.83,0,0,1-.23-1.2c5.11-1.69,10.15-3.64,15.35-5s10.58-2.06,15.88-3.05Q605.16,656.6,605.31,656.06Z" fill="#292929"/><path d="M1889.69,692.18c-8,6.6-16,18.88-24,18.94-122.11.86-244.23.32-366.33-1-4.35,0-8.58-11.41-12.87-17.49q195.08,0,390.17,0C1881,692.63,1885.34,692.34,1889.69,692.18Z" fill="#999"/><path d="M546.17,729l1,3.5.78-5c10.72,3.09,21.49,9,32.17,8.85,133.82-1.8,267.63-4.92,401.45-6.6,29.2-.37,58.47,5.54,87.67,5.25,137.83-1.38,275.64-3.91,413.46-6l4.06,163.22-6.65,9.27-1.29-79.59,3.32,16.2c.59-6.31,1.54-12.6,1.71-18.92q.42-15.95,0-31.91c-.1-3.36-1.5-6.68-2.3-10l-3,9.62-10.59-40.48L1096.11,746l41.66-1.27q129.84-.64,259.69-1.34c1.75,0,3.51-.77,5.26-1.17a15.29,15.29,0,0,0-3.56-.93q-165.94-2.2-331.87-4.31c-8.79-2.17-17.74-6.67-26.34-6.08-23.71,1.63-47.23,6-70.92,8.12-24.81,2.2-49.74,3-74.61,4.46a17.57,17.57,0,0,0-3.22.8,31,31,0,0,0,3.16.38q38.34.74,76.68,1.45-201.33.06-402.67.23c-2.92,0-5.84,1.48-8.77,2.26-2.6,2.16-7.38,4.23-7.48,6.5-1.33,31.77-2,63.56-2.87,95.35L546,854.81l-1-3q-.05-43-.1-86Z" fill="#484848"/><path d="M1425.28,552.63l.11,93.17-1.52,6.31c0-30.9.24-61.8-.29-92.68,0-2.69-5-7.6-7.7-7.6q-405.35-.5-810.7-.27.73-56.71,1.46-113.41l1.3-26.47c3.84-1.26,7.69-3.65,11.52-3.61q193.27,2.33,386.54,5.08h18.29c30.56-1.7,61.11-4.61,91.68-4.86q126.63-1,253.28.07c17.35.16,34.66,4.8,52,7.38l1.1,4.05Q1423.81,486.2,1425.28,552.63ZM777.44,527.45c1.53-11.33,3.52-22.62,4.51-34,1.91-22-7.1-30.56-30.31-28.87-30,2.18-60.37,0-90.55.78-10.84.26-30.54,2.32-31,5.53-2.47,19.1-.48,38.78,0,58.26,3.18,1.81,6.35,5.16,9.55,5.18,42.33.35,84.66.41,127-.07C770.29,534.23,773.85,529.83,777.44,527.45Z" fill="#666"/><path d="M1416,283.85l1.19,2.73c7.39,1.27,14.88,2.17,22.14,4,3.92,1,7.46,3.46,11.17,5.26-3.51,1.62-7.36,5.13-10.48,4.57-20.23-3.64-23.73,6.31-21.43,23.47,1.57,11.77,1.06,23.82,1.48,35.74,5.28,35.26-22.67,20.78-35.56,21-95.06,1.44-190.15.93-285.23.78-13.26,0-26.53-1.44-39.79-2.21l-2.65-44.3c-15.1-7.87-30.19-21.77-45.3-21.79-13.19,0-26.41,15.58-39.62,24.28l-2.44,39.22c-6.2,1.75-12.41,5-18.6,5-81.37-.19-162.74-1.16-244.12-1.21-32.54,0-65.08,1.71-97.63,2.64.39-19.32-.6-38.8,1.55-57.93,2.2-19.5-3-28.43-23.72-24.68-2.28.41-5.26-3.07-7.92-4.75,2.84-1.74,5.48-4.15,8.56-5.1,8.09-2.5,16.37-4.37,24.57-6.48,13.6.42,27.2,1.19,40.8,1.21q125.68.25,251.36.24c127.39.12,254.78.45,382.18.31C1329.67,285.74,1372.84,284.53,1416,283.85Z" fill="#131313"/><path d="M1416,283.85c-43.16.68-86.33,1.89-129.49,1.94-127.39.14-254.78-.19-382.18-.31q-125.68-.12-251.36-.24c-13.6,0-27.2-.79-40.8-1.21a5.52,5.52,0,0,0-.7-.35l10.7-18q389.5,0,779,.67c5,0,9.91,8.88,14.86,13.61Q1416,281.88,1416,283.85Z" fill="#434343"/><path d="M1059.49,379.14c13.26.77,26.53,2.19,39.79,2.21,95.08.15,190.17.66,285.23-.78,12.89-.2,40.84,14.28,35.56-21l1.29,8q.06,12.33.11,24.66-.12,11.75-.23,23.49c-17.33-2.58-34.64-7.22-52-7.38q-126.63-1.14-253.28-.07c-30.57.25-61.12,3.16-91.68,4.86l-4-7.9,13.05-15.7,11.06,6.34,3.36-19.24Z" fill="#3d3d3d"/><path d="M1421.36,367.58l-1.29-8c-.42-11.92.09-24-1.48-35.74-2.29-17.16,1.21-27.11,21.43-23.47,3.12.56,7-2.94,10.48-4.57-3.71-1.8-7.25-4.29-11.17-5.26-7.26-1.79-14.75-2.69-22.14-4,11.94-1.88,23.86-4.65,35.85-5,3.1-.1,9,7.16,9.24,11.34,1.34,19.86,5.79,41.42-.35,59.08C1458.87,360.8,1435.53,362.6,1421.36,367.58Z" fill="#575757"/><path d="M1453.83,401.41c-12,3.56-35.11-12-31.5,18.37l-1.1-4.05q.11-11.74.23-23.49c8.56-2.58,17-6.13,25.75-6.89C1448.94,385.19,1451.6,395.78,1453.83,401.41Z" fill="#bcbcbc"/><path d="M1423.88,652.1l1.52-6.31,32.28,3.8-33.6,6.19Q1424,653.94,1423.88,652.1Z" fill="#d5d5d5"/><path d="M1934.32,753.68c0,43.22.09,86.44-.2,129.66,0,2.85-2.88,5.67-4.41,8.51-1.48-2.91-4.28-5.83-4.25-8.73q.86-81.69,2.44-163.36c0-1.58,1.84-3.12,2.82-4.68,1.62,2,4.57,3.95,4.66,6,.47,10.84.22,21.72.22,32.58Z" fill="#9f9f9f"/><path d="M1484.32,714.77l2.19-1.36q193.43.15,386.86.33c4.32,0,8.65.52,13,.79l-.46.3Z" fill="#c4c4c4"/><path d="M1423.88,652.1q.1,1.84.2,3.68c6.3,1.46,12.58,3,18.89,4.38,4.13.92,8.29,1.71,12.44,2.55-4.41,2-8.82,5.85-13.24,5.87-77.59.38-155.18.3-232.78.32-47.16,0-94.33.25-141.49-.28-4.07,0-8.08-5.11-12.12-7.84l1.37-20.36c4.51-.47,9-1.36,13.54-1.35q159.09.43,318.18,1c8.67-4.67,20.27-7.4,25.08-14.64,3.82-5.75,2.54-20.25-2.27-25-6.11-6.07-18-6.72-27.6-8.6-2-.39-4.91,4.09-7.4,6.32l17.1,4.21-7.74-1.08q-158-.66-316-1.22c-3,0-6.1,1.48-9.15,2.27,2.74.88,5.47,2.54,8.21,2.54q140.26.22,280.53.14a37.39,37.39,0,0,0,4.35-.5l-4.51-2,16.28,2.17c-5.2.59-10.41,1.69-15.61,1.7-92.86.06-185.74,1.14-278.55-.71-29.9-.6-59.67-13.19-89.46-13-97.34.59-194.66,4.53-292,7.2-12.16.33-24.32.94-36.48,1.07-5.15.05-10.31-.81-15.47-1.25l15.34-1.36c-1.52-1.88-3.22-5.5-4.54-5.37-9.94,1-22.23-.3-28.93,5.12-5.49,4.45-8.58,19.89-5,25.54,5,7.86,17.21,11.13,26.34,16.37,5.71,0,11.42.09,17.12.09,76.74-.09,153.48-.37,230.22-.21,27.73.06,55.47,1.14,83.2,1.76-2.38,3.51-4.75,10.08-7.15,10.09-119.81.42-239.63.29-359.45.21q-.22-.57-.38-1.16l.06-99.37.19.11q405.35,0,810.7.27c2.69,0,7.65,4.92,7.7,7.6C1424.12,590.31,1423.9,621.21,1423.88,652.1Z" fill="#292929"/><path d="M572.64,483.59c-.08,15.19,1.58,30.63-.61,45.51-4.72,32.11,15.6,24.42,33,22.35l-.06,99.37-32.53-.23q-.65-43-1.29-85.9-.83-16.23-1.66-32.46l-7.38,10.15,1.29-54.82Z" fill="#a1a1a1"/><path d="M612.17,284c-8.2,2.12-16.49,4-24.57,6.48-3.08,1-5.72,3.36-8.56,5.1,2.66,1.68,5.64,5.16,7.92,4.75,20.76-3.75,25.92,5.18,23.72,24.68-2.16,19.13-1.16,38.61-1.55,57.93L607.94,400l-.45-12.85c-5.62-5.75-11-11.73-16.91-17.21-8-7.47-21.56-13.42-23.45-22.05-3.65-16.7-2.57-35.1.12-52.23,1.23-7.8,11-14.26,16.84-21.33,1.59,2.7,2.83,7.4,4.83,7.75,7.38,1.3,15,1.16,22.55,1.56A5.52,5.52,0,0,1,612.17,284Z" fill="#595959"/><path d="M607.49,387.18l.45,12.85q0,5.82,0,11.64l-1.3,26.47c2-22.78,2.08-43.75-31.29-32.75C573.23,376.66,595.58,391.13,607.49,387.18Z" fill="#cdcdcd"/><path d="M545,851.81l1,3,4.22-4.36,7.7,51.18q.14.47.24,1l-8,23.48L549,940.67C543.54,911.23,538.38,881.78,545,851.81Z" fill="#747474"/><path d="M553.32,939.18c2.88-3.07,5.16-6.72,6.2-6.4,5,1.56,9.63,4.19,14.39,6.44-1.54,2.26-3.65,6.67-4.53,6.44C564.38,944.33,559.67,941.9,553.32,939.18Z" fill="#979797"/><path d="M562.08,542.36l7.38-10.15q.83,16.23,1.66,32.46Z" fill="#969696"/><path d="M1011.15,1310.26c0,89,.17,178-.3,267,0,3.22-6,9.2-9.15,9.21q-168.11.72-336.22,0c-3.17,0-9-6.05-9.06-9.32-.9-99-1.22-198-1.63-297,4.72-7.94,8.34-21.59,14.35-22.73,16.66-3.17,34.31-1.13,51.57-1.18a24.24,24.24,0,0,0,2.67-.33c16.84-1.93,33.64-4.59,50.54-5.51,10.34-.56,20.83,1.45,31.23,2.48,8.95.89,17.87,2,26.8,3.07a41.35,41.35,0,0,0-2.07,5.57c-.15.63.88,2.19,1.4,2.2,7.4.23,14.8.26,22.2.34-1.7-1.43-3.49-2.76-5.09-4.3-2.37-2.29-4.61-4.72-6.9-7.09,2.81-.3,6-1.54,8.32-.63s3.39,5,5.71,5.89a214.54,214.54,0,0,0,24.49,8.2c10.72,2.83,21.94,4,32.39,7.6,10.19,3.47,19.35,10.31,29.66,12.93,3.5.89,13-6.37,13.19-10.23,2-39.23,2.61-78.52,3.61-117.8q1.29,90.22,2.58,180.45c.13,22.85.06,45.7.6,68.54.07,3,3.2,6,4.91,8.95,1.94-2.52,5.54-5,5.57-7.57Q974,1277.5,974.41,1146c0-3.69-5-7.4-7.61-11.1l-6.53,10.7-2.39.36c.2-7.37-.78-15,1-22,1.41-5.69,6.08-10.57,9.3-15.8,2.82,5.15,7.8,10.18,8.08,15.46,1.18,22.09.94,44.26,1.23,66.4,0,61.07-.11,122.14.15,183.2,0,2,3,5,5.27,5.83,24.47,8.8,21.8-11,24-24C1009.28,1340.26,1009.79,1325.19,1011.15,1310.26Z" fill="#303030"/><path d="M1374.25,1375.46c-.42,66.76-.57,133.52-2,200.26-.08,3.8-10.76,10.56-16.55,10.59q-165.42,1-330.84.12c-2.37,0-6.74-6.46-6.76-9.92-.37-89.62-.28-179.24-.28-268.86,10,21.93-10.35,56.92,28.63,66.57,1.49.37,2.18,4,3.24,6.12.66-2.53,1.88-5.06,1.89-7.59q.16-86.81.09-173.61l1.33-40.42c.51,2.43,1.46,4.86,1.47,7.29q.23,110.31.38,220.62c0,1.58,1.27,3.15,1.95,4.73q.1,10.31.2,20.63l-3.76,7c-.51-4.06-1.08-8.11-1.53-12.18-.71-6.41-1.35-12.82-2-19.23.06,6.11.35,12.23.12,18.34-.22,5.84-2.42,12-1.2,17.41,2.24,10,6.16,19.62,10,29.14.29.71,8.33-.55,8.35-1.07.53-13.11.46-26.24.5-39.37,1-87.43,2.11-174.85,2.65-262.28,0-4.94-4.74-9.9-7.27-14.85l-7.33,11.91a3.69,3.69,0,0,1-1.24,0c-.53-5.83-2.48-12-1.23-17.4,1.7-7.35,5.84-14.13,8.94-21.16,3.13,7.05,8.47,14,9,21.19,1.57,22.72,1.32,45.56,1.77,68.35q0,81.88,0,163.75c0,2.7.77,5.41,1.26,8.1,0,0,1.54,0,1.68-.28,1.58-3.33,2.92-6.78,4.54-10.09.7-1.43,2.06-3.8,2.88-3.71,5.43.65,10.9,2.84,16.15,2.36,2-.19,2.79-7.8,5.46-8.95,8.62-3.7,17.83-6.06,26.86-8.76,15.83-4.73,31.69-9.33,47.54-14,3.29-1,6.59-1.9,9.88-2.84a97.69,97.69,0,0,1-9.55-3.78c-2.15-1.11-3.92-3-5.85-4.5,2.57-.13,5.64-1.23,7.62-.21,6.53,3.36,12.93,11.08,18.9,10.63,17.73-1.32,35.26-5.57,52.79-9.1,3.67-.74,7-3.31,10.45-5a48.67,48.67,0,0,1-2.22,7.18c-.74,1.56-2.32,2.71-3.53,4,2.86,1.15,5.66,2.75,8.63,3.22,1,.16,2.44-2.51,3.78-3.78,2.61-2.48,5.34-7.06,7.91-7,15.29.46,30.58,1.63,45.79,3.29,14.21,1.56,35.47-.78,40.86,7.21C1373.29,1338.47,1371.57,1358.46,1374.25,1375.46Z" fill="#2f2f2f"/><path d="M958.87,1158.66c-1,39.28-1.63,78.57-3.61,117.8-.2,3.86-9.68,11.12-13.19,10.23-10.31-2.62-19.47-9.46-29.66-12.93-10.44-3.56-21.66-4.76-32.39-7.6a214.54,214.54,0,0,1-24.49-8.2c-2.32-.92-3.39-5-5.71-5.89s-5.51.33-8.32.63c2.29,2.37,4.53,4.8,6.9,7.09,1.6,1.54,3.39,2.88,5.09,4.3-7.4-.08-14.81-.11-22.2-.34-.52,0-1.55-1.58-1.4-2.2A41.35,41.35,0,0,1,832,1256c-8.93-1-17.85-2.18-26.8-3.07-10.4-1-20.89-3-31.23-2.48-16.9.92-33.7,3.58-50.54,5.51a24.24,24.24,0,0,1-2.67.33c-17.26,0-34.91-2-51.57,1.18-6,1.15-9.64,14.79-14.35,22.73q-.66-103.18-1.32-206.36c.88-3.89.67-8.58,2.82-11.54,6.93-9.53,13.52-24.51,22.46-26.3,18.12-3.63,37.69.31,56.67.52,7.2.08,14.56-2.86,21.58-2.07,10.81,1.23,21.35,4.71,32.13,6.58,1.2.21,3.36-5.75,4.71-5.61,11.75,1.29,23.4,4.73,35.1,4.82,17.15.13,34.37-3.32,51.47-2.72,14,.49,27.72,6.27,41.68,6.85,19.51.81,39.12-1.06,58.7-1.64.89,0,1.84,1.29,2.73,2,4.15,3.44,8,8.9,12.53,9.57,2.71.4,9-6.48,9.44-10.51,2.56-26.05,3.94-52.22,5.71-78.35.45,4.9,1.31,9.8,1.27,14.69q-.5,70.34-1.26,140.69c.16,12.37,2.24,25.1,0,37-2.48,13-8.46,25.46-14.59,37.29-.65,1.26-12.51-3.28-19.18-5.14-.28-22.14-.05-44.31-1.23-66.4-.28-5.28-5.26-10.32-8.08-15.46-3.22,5.24-7.89,10.12-9.3,15.8-1.74,7-.76,14.65-1,22Z" fill="#141414"/><path d="M1374.25,1375.46c-2.69-17-1-37-9.69-49.92-5.39-8-26.65-5.65-40.86-7.21-15.21-1.67-30.51-2.83-45.79-3.29-2.57-.08-5.31,4.5-7.91,7-1.34,1.27-2.75,3.95-3.78,3.78-3-.48-5.77-2.07-8.63-3.22,1.21-1.33,2.79-2.48,3.53-4a48.67,48.67,0,0,0,2.22-7.18c-3.47,1.73-6.78,4.29-10.45,5-17.53,3.53-35.06,7.77-52.79,9.1-6,.44-12.37-7.28-18.9-10.63-2-1-5.05.08-7.62.21,1.94,1.53,3.7,3.39,5.85,4.5a97.69,97.69,0,0,0,9.55,3.78c-3.29.95-6.59,1.88-9.88,2.84-15.85,4.65-31.72,9.24-47.54,14-9,2.7-18.24,5.06-26.86,8.76-2.67,1.14-3.42,8.76-5.46,8.95-5.25.48-10.71-1.72-16.15-2.36-.82-.1-2.17,2.28-2.88,3.71-1.63,3.31-3,6.75-4.54,10.09-.14.3-1.68.3-1.68.28-.49-2.69-1.26-5.39-1.26-8.1q-.08-81.87,0-163.75c9.77-7.74,19-16.44,29.5-22.91,8-4.88,17.74-6.71,26.55-10.28,7.42-3,14.33-7.67,22-9.6,8.18-2.07,17.3-.58,25.36-2.89,9-2.57,17.13-10.85,25.77-11,20.87-.47,41.82,3.5,62.73,3.37,13.27-.08,26.44-5,39.79-6.36,7.33-.73,15,2.23,22.46,2.2,8.79,0,17.58-1.52,26.37-2.37-4.34,2.65-8.84,5.06-13,8-2.35,1.69-4.05,4.26-6,6.44,11.23.42,22.53,1.58,33.63.58,2-.18,4.06-9.08,4.69-14.13,1.44-11.55,2-23.21,2.94-34.83q0,130.31-.06,260.62C1375.43,1368.19,1374.67,1371.82,1374.25,1375.46Z" fill="#1e1e1e"/><path d="M1375.49,1103.93c-.93,11.62-1.5,23.28-2.94,34.83-.63,5-2.66,13.95-4.69,14.13-11.1,1-22.4-.16-33.63-.58,2-2.18,3.7-4.75,6-6.44,4.11-3,8.62-5.38,13-8-8.79.86-17.58,2.34-26.37,2.37-7.49,0-15.13-2.93-22.46-2.2-13.35,1.33-26.52,6.28-39.79,6.36-20.91.13-41.86-3.84-62.73-3.37-8.64.19-16.81,8.48-25.77,11-8.06,2.31-17.18.82-25.36,2.89-7.64,1.93-14.55,6.59-22,9.6-8.81,3.58-18.6,5.4-26.55,10.28-10.55,6.47-19.73,15.17-29.5,22.91-.45-22.79-.2-45.63-1.77-68.35-.5-7.23-5.84-14.13-9-21.19-3.1,7-7.24,13.81-8.94,21.16-1.25,5.42.7,11.57,1.23,17.4l-1.27,12-1.33,40.42a47.87,47.87,0,0,1-7.76.07c-1.35-.19-2.52-1.63-3.78-2.5l3.87-3.51c-6.29-1.69-12.55-3.56-18.93-4.81-.75-.15-3,3.07-3.15,4.88-1.58,14.14-2.83,28.31-4.18,42.47l-1.3,0-3.88-103.16c2.12-7.94,5.67-15.8,6.08-23.83.95-18.56.38-37.19.42-55.79,1-5.29,2.2-15.22,2.94-15.18,16.07.75,32.06,3,48.12,4.18,19.49,1.44,39.07,1.85,58.55,3.4,8.47.67,16.81,4.35,25.2,4.34,9.67,0,19.31-2.93,29-4,13-1.4,26.09-2.81,39.16-3.17q43.13-1.18,86.29-1.2c15.55,0,32.06-1.7,46.31,3,9.54,3.12,16.43,21.8,20.85-3.08Q1375.5,1072.56,1375.49,1103.93Z" fill="#141414"/><path d="M1375.5,1041.19c-4.42,24.88-11.31,6.2-20.85,3.08-14.25-4.66-30.76-2.95-46.31-3q-43.15,0-86.29,1.2c-13.07.36-26.14,1.77-39.16,3.17-9.72,1-19.35,4-29,4-8.39,0-16.73-3.67-25.2-4.34-19.48-1.55-39.06-2-58.55-3.4-16.06-1.19-32.05-3.42-48.12-4.18-.74,0-1.95,9.89-2.94,15.18.12-27.76.11-55.51.71-83.26,0-1.46,5.29-4,8.12-4q169.73-.31,339.47.18c2.73,0,7.71,5.24,7.8,8.15C1375.81,996.35,1375.51,1018.78,1375.5,1041.19Z" fill="#111"/><path d="M1011.23,965.43c-1.77,26.13-3.14,52.3-5.71,78.35-.4,4-6.73,10.91-9.44,10.51-4.55-.67-8.39-6.14-12.53-9.57-.89-.74-1.84-2.06-2.73-2-19.57.58-39.19,2.45-58.7,1.64-14-.58-27.72-6.36-41.68-6.85-17.1-.6-34.32,2.85-51.47,2.72-11.7-.09-23.35-3.52-35.1-4.82-1.36-.15-3.51,5.81-4.71,5.61-10.77-1.87-21.31-5.35-32.13-6.58-7-.8-14.39,2.15-21.58,2.07-19-.21-38.55-4.15-56.67-.52-8.94,1.79-15.53,16.77-22.46,26.3-2.16,3-1.95,7.64-2.82,11.54.26-34.15.35-68.31,1.19-102.45.05-2,6-5.66,9.23-5.67Q837.56,965.24,1011.23,965.43Z" fill="#111"/><path d="M1323.22,1623.46l-5.15.11q-327.56,0-655.12-.5c-4.06,0-8.1-6.46-12.15-9.9q.11-9.7.22-19.4l7.64-.34c4.78.09,9.56.25,14.35.25q342.57.06,685.15.13a67,67,0,0,1,7,.71c-.11.36-.11.89-.35,1.06Q1344,1609.54,1323.22,1623.46Z" fill="#6e6e6e"/><path d="M648.33,956.08c17.56-5.19,34.85-13,52.76-14.93,24.87-2.62,50.21-1.08,75.34-.72,20,.29,40,2.15,59.94,2.09,23.86-.07,47.72-2.23,71.58-2.09,37.55.22,75.1,2.27,112.64,2.25,24.24,0,48.49-3.42,72.73-3.35,29.55.08,59.08,2.79,88.64,3.2,14.32.2,28.65-3,43-3.33,20.91-.54,41.86-.17,62.78.24q37,.74,74,2.43c3,.14,5.85,3.36,8.82,5.06,3.45,2,7,3.82,10.43,5.72.78-3,.95-8.09,2.44-8.51,12.34-3.46,24.93-8.19,37.45-8.24,11,0,22,5.48,33,8.54,7.78,1.06,20.8-.22,22.48,3.56,10.57,23.7-7.94,46.64-32.56,50.88-28.61,4.92-73.28-3-59.4,52.29.32,1.28-.69,2.9-1.08,4.37q0-33.29-.06-66.57l-1.27-32.58-733.83-.07Z" fill="#484848"/><path d="M1012.56,1132.55l3.88,103.16c-1.3,11.48-3,22.92-3.8,34.43-.92,13.34-1,26.74-1.49,40.12-1.36,14.93-1.88,30-4.34,44.74-2.17,13,.51,32.79-24,24-2.24-.81-5.26-3.82-5.27-5.83-.25-61.07-.18-122.13-.15-183.2,6.66,1.85,18.52,6.4,19.18,5.14,6.13-11.83,12.1-24.31,14.59-37.29,2.28-11.9.2-24.64,0-37Z" fill="#1f1f1f"/><path d="M1017.74,1235.74c1.35-14.16,2.6-28.33,4.18-42.47.2-1.81,2.41-5,3.15-4.88,6.38,1.25,12.64,3.12,18.93,4.81l-3.87,3.51c1.25.87,2.43,2.31,3.78,2.5a47.87,47.87,0,0,0,7.76-.07q0,86.8-.09,173.61c0,2.53-1.23,5.06-1.89,7.59-1.06-2.12-1.75-5.76-3.24-6.12-39-9.65-18.64-44.64-28.63-66.57Q1017.78,1271.7,1017.74,1235.74Z" fill="#1f1f1f"/><path d="M1323.22,1623.46q20.78-13.94,41.55-27.9c.24-.16.24-.7.35-1.06a67,67,0,0,0-7-.71q-342.57-.09-685.15-.13c-4.78,0-9.56-.16-14.35-.25,6-.37,12.07-1.07,18.1-1.08,225.64-.05,451.28-.37,676.91.47,23.1.09,26.74-7,26.52-28.73-1.06-101.56.22-203.14.66-304.72.41-.05.82-.09,1.24-.12q-.57,164.08-1.1,328.16a47.11,47.11,0,0,0,.8,6.28,4.69,4.69,0,0,1,1.54-.68c28.56-1,57.12-1.9,85.66-3.27,2.43-.12,4.69-3.55,7-5.44-5.37,4.65-10.38,12.75-16.18,13.36-23.37,2.45-47.44.08-70.37,4.29C1366.83,1606.11,1345.26,1616.05,1323.22,1623.46Z" fill="#333"/><path d="M648.23,956.32l733.83.07c-9.61.41-19.22,1.17-28.83,1.18q-338.46.11-676.92,0C666.95,957.57,657.59,956.76,648.23,956.32Z" fill="#1e1e1e"/><path d="M1382.08,1259.25c-.41,0-.83.06-1.24.12q.62-131.7,1.29-263.41c0-2.33.78-4.66,1.2-7q0,33.29.06,66.57Q1382.74,1157.39,1382.08,1259.25Z" fill="#111"/><path d="M1382.08,1259.25q.66-101.85,1.31-203.71c.39-1.46,1.4-3.08,1.08-4.37-13.89-55.29,30.78-47.37,59.4-52.29,24.62-4.24,43.13-27.18,32.56-50.88-1.68-3.78-14.7-2.5-22.48-3.56l20.39-15.26,6,27.37q-2.16,313.88-4.33,627.76c-2.34,1.89-4.61,5.32-7,5.44-28.54,1.37-57.1,2.23-85.66,3.27a4.69,4.69,0,0,0-1.54.68,47.11,47.11,0,0,1-.8-6.28Q1381.49,1423.33,1382.08,1259.25Z" fill="#696969"/><path d="M1306.06,899.46c-9.28,8.07-18.43,16.29-27.94,24.09a13.69,13.69,0,0,1-8.12,2.6c-204.44.12-408.89.6-613.32-.56-23.94-.14-47.71-10.28-71.84-13.82-5.82-.85-12.83,6-19.19,9.53-1.53.85-2.62,2.5-3.91,3.78-1.11-4.86-2.73-9.69-3.09-14.6-.14-2,2-5.09,4-6,2.36-1.08,5.54-.44,8.37-.44q370.81,0,741.62,0c4.37,0,8.75.7,13.13,1.08l-14,1.43Z" fill="#484848"/><path d="M558,901.64l-7.7-51.18c.85-31.79,1.54-63.58,2.87-95.35.09-2.27,4.88-4.34,7.48-6.5-1.22,47.8-2.53,95.61-3.35,143.42,0,2.28,4.28,6.66,6.57,6.66q450.35.38,900.71-.06c2.6,0,7.49-3.21,7.45-4.84-1.05-49.14-2.59-98.27-4-147.4l10.59,40.48q.14,17.51.28,35l1.29,79.59-7.63.25-.51-.41c-2.74-.43-5.49-1.23-8.23-1.23Q1015.34,900,567,900c-2.93,0-5.87.92-8.8,1.42Z" fill="#858585"/><path d="M558.19,902.59q-.1-.48-.24-1l.2-.18,913.81-.12.51.41c-57.61.33-115.22.93-172.82.95Q928.92,902.78,558.19,902.59Z" fill="#858585"/><path d="M650.8,1613.17c4.05,3.44,8.09,9.89,12.15,9.9q327.56.77,655.12.5c-.63,4.53-1.12,9.08-1.92,13.58-2.83,15.91-5.76,31.8-8.65,47.7l2.48-9.11q.1-7,.2-14.05l-6.28-5.56-18.3-23.54c-1.18-.39-2.36-1.13-3.53-1.13q-203.32,0-406.65.13l-216.71-.07c-2.26,1.21-6.46,2.36-6.49,3.63-.37,14-.09,27.94,0,41.92V1681q0,2.61,0,5.22v36.51l-2.56,6.72Q650.24,1671.3,650.8,1613.17Z" fill="#2e2e2e"/><path d="M1507.31,1013.78h-2.53c3.75-2.72,9.66-4.68,10.91-8.27,13.16-37.71,80.16-69.42,120.15-67.34,20.61,1.07,63.46,19.76,63.5-31.49-2.19,43.8-3.34,87.71-7.57,131.31-.73,7.51-15,13.31-22.08,20.75-4.07,4.27-5.49,11.13-9.66,15.24-3.89,3.83-9.71,5.89-15,8.1-4.45,1.88-11.12,1.44-13.51,4.55-3.67,4.78-4.5,11.73-6.54,17.76-.92,2.7-1.37,5.73-2.94,8-1.77,2.51-4.57,4.29-6.93,6.38-.52-2.32-1-4.65-1.61-6.93-.19-.66-1-1.15-1.51-1.71-.93,1.09-2.24,2-2.73,3.29-13.26,34.06-29,67.42-38.95,102.42-11.11,39.1-18.29,79.49-24.74,119.71-9.18,57.28-19.31,114.74-22.72,172.49-1.73,29.26,10.25,59.37,16.31,89,4.82,23.63,10.27,47.13,14.79,70.81.51,2.67-3.15,6.14-4.88,9.25-20-37.85-44.32-74.18-58.53-114.1-9-25.42-3.57-56.16-3.79-84.53-.21-27.38.64-54.77,1-82.15,2.13-59.44,3.28-118.94,6.65-178.31,3.63-63.83,9.39-127.53,14-191.31C1508.83,1022.46,1507.74,1018.09,1507.31,1013.78Z" fill="#565656"/><path d="M1699.33,906.67c0,51.25-42.89,32.56-63.5,31.49-40-2.08-107,29.63-120.15,67.34-1.25,3.59-7.16,5.55-10.91,8.27-4.8-4.61-13.7-9.18-13.74-13.84-.33-35.36,1.08-70.73,1.94-106.1l11.61-.37c59.05.05,118.11-.26,177.14.73C1687.66,894.29,1693.46,902.32,1699.33,906.67Z" fill="#454545"/><path d="M1482.69,729c-137.82,2.12-275.63,4.65-413.46,6-29.2.29-58.47-5.61-87.67-5.25-133.82,1.68-267.63,4.79-401.45,6.6-10.68.14-21.44-5.76-32.17-8.85,4.25-4.31,8.49-12.38,12.74-12.39,133.27-.29,266.53.36,399.8.55q194,.27,388.06-.06c39.91,0,79.82-1,119.71-.52,4.81.06,9.55,6.31,14.32,9.69Q1482.63,726.9,1482.69,729Z" fill="#a2a2a2"/><path d="M1748.44,806.4c-2.24,28.36-17.58,44.36-45.08,44.64-29.49.3-46.76-17.08-47.48-46.16-.69-27.73,16.48-45.2,43.3-46C1729.21,758.06,1746,776.26,1748.44,806.4Zm4.84-3.82c-14-10.64-25.58-19.46-37.22-28.2-.49-.37-1.58.06-2.39.12a16.24,16.24,0,0,0,2.06,1.3c27.29,12.12,30.87,31,15.7,55.17-.53.85-1,1.75-1.47,2.63.87-.45,2-.67,2.55-1.38C1737.83,824.77,1743,817.25,1753.28,802.57Zm-61.65-30.91c-5.67,7.36-16.77,15.57-18.23,25.24-1.76,11.72,4.62,24.67,7.59,37.05.11.46,1.42.62,2.17.92a12.91,12.91,0,0,0-1.22-2.6c-17.12-22.07-11-45.12,15-56.13a19.44,19.44,0,0,0,2.61-1.62Z" fill="#595959"/><path d="M1499.36,783.89c18-7,35.83-18.62,54-19,9.57-.22,22.61,17.69,28.4,30.07,4.16,8.9-1.09,22.19-2.15,33.53-7.26,4.22-14,10.2-21.87,12.38-39.9,11.11-59.57-6.84-53.47-47.65.65-4.33-.19-8.88-.34-13.32Z" fill="#313131"/><path d="M1484.32,714.77l401.56.06c-4.19.82-8.38,2.37-12.57,2.36q-191.3-.32-382.6-.88a40.7,40.7,0,0,0-6.41,1Z" fill="#d3d3d3"/><path d="M1499.36,783.89l4.52-4c.15,4.45,1,9,.34,13.32-6.1,40.81,13.57,58.76,53.47,47.65,7.83-2.18,14.61-8.16,21.87-12.38-14.27,29-44.57,27.55-61,15.69C1504.86,834.18,1505.24,804.71,1499.36,783.89Z" fill="#070707"/><path d="M1363.62,1830.06l22.25,10.34,21,10.24c-13.58-1.81-27.28-3.05-40.59-6.07C1364.44,1844.14,1364.48,1835.11,1363.62,1830.06Z" fill="#999"/><path d="M1406.93,1850.64l-21-10.24,82.52,1.54-18.49,8.7Z" fill="#575757"/><path d="M1449.9,1850.63l18.49-8.7,20.6-8.34-9.12,15.63Z" fill="#979797"/><path d="M1484,1619.55c32.54,9.56,65.43,52.06,67.65,87.41,3.58,57-25.47,106.56-74.2,126.5-51.64,21.14-109.58,6-142.49-37.2-35.42-46.51-35.3-97,6.15-145.32,15-17.49,40-26.41,60.46-39.24Zm-5.3,198.55c36.87-16.29,50-49.19,58.39-84.88,1.68-7.16-.69-15.28-1.2-23L1514,1725.39c.64-21.06,9.06-46.24.51-62.45-30.67-58.14-134.46-57-169.11.12-6.53,10.76-8.89,25.91-7.73,38.53.44,4.78,16.28,8.13,25.1,12.14l4.44,3.64c-3.27.92-6.59,2.8-9.79,2.61-27.63-1.64-36.1,4.33-27.25,36.19C1346.45,1815,1427.6,1851.57,1478.7,1818.1Z" fill="#444"/><path d="M1507.31,1013.78c.44,4.32,1.52,8.68,1.21,12.94-4.66,63.77-10.42,127.48-14,191.31-3.37,59.37-4.52,118.87-6.65,178.31q1.29-185.14,2.69-370.28c0-2.23,1.3-5.73,2.91-6.39,3.05-1.24,6.77-.85,10.21-1.13l-9.65-1.08c.37-.78.64-2.18,1.11-2.25C1499.15,1014.59,1503.23,1014.22,1507.31,1013.78Z" fill="#454545"/><path d="M1484,1619.55l-82.42-7.84Z" fill="#353535"/><path d="M568.88,1750.07c15.19,18.17,24.9,29.55,34.18,41.28.79,1-1.25,4.25-2,6.46a79.35,79.35,0,0,1-6.55-4.87c-8.19-7.45-16.17-20.78-24.44-20.94-8.62-.17-17.45,12.37-26.25,19.26-2.32,1.82-4.89,3.31-7.35,5-.62-2.37-2.57-5.84-1.66-6.94C543.89,1778.29,553.41,1767.69,568.88,1750.07Z" fill="#070707"/><path d="M535.74,1826.12c20.72,19.62,42.25,19.62,64.48,2.66-3,4.18-5.72,11.76-9,12a287.07,287.07,0,0,1-47.81-.72C540.44,1839.72,538.29,1831,535.74,1826.12Z" fill="#717171"/><path d="M1388.89,640.11q-159.09-.55-318.19-1c-4.51,0-9,.88-13.54,1.35q0-3.07-.08-6.13c5.1-3.18,10.08-8.84,15.33-9.11,22.27-1.14,44.63-.68,67-.8l247.9.24,17,6.82Zm-223-2.5v-.14q49.88,0,99.76,0a23.72,23.72,0,0,0,3.17-.42,20,20,0,0,0-3.12-.51q-99.73-.75-199.45-1.39c-1.55,0-3.1.76-4.66,1.17,1.73.44,3.46,1.25,5.19,1.26Q1116.31,637.67,1165.87,637.61Zm162.89.14.11,1.33c15.53-1.4,31.06-2.76,46.58-4.28,1.5-.15,2.9-1.32,4.35-2a27,27,0,0,0-4.29-.66c-20.25.05-40.51.05-60.76.43-2,0-3.9,3.1-6.1,3.58-3.81.84-7.83.77-11.76,1.08,4.1.18,8.19.46,12.29.51C1315.71,637.81,1322.23,637.75,1328.76,637.75Z" fill="#434343"/><path d="M971.91,641.68c-27.73-.62-55.46-1.7-83.2-1.76-76.74-.16-153.48.12-230.22.21-5.71,0-11.42-.06-17.12-.09l-15.2-5.69,11.73-3.21c11.65-.86,23.29-2.45,34.94-2.47q143.7-.3,287.41-.17c3.5,0,7-.81,10.51-1.25Zm-106.74-4.09q48.91,0,97.83,0a32.82,32.82,0,0,0,5.51-.94c-1.68-.49-3.36-1.41-5-1.4q-98.77.6-197.54,1.37a20.48,20.48,0,0,0-3.07.48,25.9,25.9,0,0,0,3.18.39Q815.61,637.47,865.17,637.58Zm-170.51,1.94.27-2.36h26.6q-13.67-1.07-27.33-2.12c-1.08-.08-2.17,0-3.25,0l-40-2Z" fill="#494949"/><path d="M1061,609c3.15,2.28,6.29,6.55,9.46,6.56,94.64.56,189.27.67,283.91,1,3.33,0,6.65,1.52,10,2.33-3.47.62-6.94,1.78-10.4,1.78q-141.67.06-283.34,0c-2.64,0-5.29.84-7.93,1.29,2.74.56,5.48,1.56,8.24,1.61,22.83.36,45.66.55,68.49.79-22.32.12-44.68-.34-67,.8-5.25.27-10.23,5.93-15.33,9.11-13.25-49.26-51.62-8.13-75.08-20.78-2.93-1.58-6.43-2.1-9.66-3.11,3.1-1.78,6.26-5.19,9.3-5.08C1008.09,606.2,1034.53,607.71,1061,609Z" fill="#929292"/><path d="M619.56,616.39c87.34-.2,174.69-.27,262-.66,29.25-.13,58.5-1.07,87.75-1.64l-.17,6.89q-101-.14-202-.28-61.44-.06-122.87,0h-2.6Z" fill="#a2a2a2"/><path d="M641.71,620.73h2.6c2.08.4,4.16,1.13,6.25,1.15q159.27,1.29,318.54,2.46l1.65,2.92c-3.5.43-7,1.25-10.51,1.25q-143.7.1-287.41.17c-11.65,0-23.3,1.61-34.94,2.47-.91-2.61-2.46-5.25-2.38-7.83C635.55,622.39,639.53,621.59,641.71,620.73Z" fill="#292929"/><path d="M817.61,602.1q72.79,0,145.58.09c2,0,4,1.35,6,2.07-1.89.7-3.78,2-5.67,2q-147.19.55-294.39.8c-1.58,0-3.16-1.49-4.74-2.28,2.1-.75,4.2-2.15,6.3-2.15q73.44-.18,146.88-.09C817.61,602.4,817.61,602.25,817.61,602.1Z" fill="#292929"/><path d="M1349.43,602.56l4.51,2a37.39,37.39,0,0,1-4.35.5q-140.26,0-280.53-.14c-2.74,0-5.47-1.66-8.21-2.54Z" fill="#090909"/><path d="M641.71,620.73c-2.18.86-6.16,1.65-6.19,2.58-.08,2.58,1.47,5.22,2.38,7.83l-11.73,3.21,15.2,5.69c-9.13-5.24-21.35-8.51-26.34-16.37-3.59-5.65-.49-21.09,5-25.54,6.69-5.43,19-4.14,28.93-5.12,1.32-.13,3,3.49,4.54,5.37l-29.91,2.94-4,15.08Z" fill="#979797"/><path d="M1350.72,608.81l-289.83.29c6.66-.46,13.32-1.32,20-1.33q129.12-.13,258.25,0C1343,607.78,1346.85,608.45,1350.72,608.81Z" fill="#929292"/><path d="M1409.07,613.21c-14.54-1-29.08-2-43.62-3-2.35-.17-4.68-.67-7-1l27.62-7.9,7.74,1.08,16,10.22Z" fill="#aaa"/><path d="M257.41,726c2.84,3.68,8.58,8.09,7.86,10.8-1.43,5.42-5.52,11.42-10.26,14.15-2.44,1.41-8.63-3.69-13.12-5.85,3.36-.77,6.77-1.4,10.08-2.33,4-1.14,8-2.53,12-3.81-3.89-2.48-7.74-5-11.7-7.4a19.88,19.88,0,0,0-4.09-1.38Z" fill="#5b5b5b"/><path d="M1096.11,746l-37.68.24c-13.06,7.64-25.82,15.85-39.32,22.61-4.91,2.46-13.17,4-17.11,1.52-10.81-6.79-20.15-15.94-30.07-24.15l.1-.11q-38.34-.72-76.68-1.45a31,31,0,0,1-3.16-.38,17.57,17.57,0,0,1,3.22-.8c24.87-1.46,49.8-2.26,74.61-4.46,23.7-2.1,47.21-6.49,70.92-8.12,8.6-.59,17.55,3.9,26.34,6.08l70.48,7.75Z" fill="#292929"/><path d="M1137.77,744.74,1067.28,737q165.94,2.14,331.87,4.31a15.29,15.29,0,0,1,3.56.93c-1.75.41-3.5,1.16-5.26,1.17Q1267.61,744.13,1137.77,744.74Z" fill="#444"/><path d="M1478.8,821.9q-.14-17.52-.28-35l3-9.62c.81,3.34,2.21,6.66,2.3,10q.45,15.95,0,31.91c-.17,6.32-1.11,12.61-1.71,18.92Z" fill="#444"/><path d="M607.95,411.67q0-5.82,0-11.64L609.12,383c32.54-.93,65.09-2.67,97.63-2.64,81.37.06,162.74,1,244.12,1.21,6.2,0,12.4-3.26,18.6-5,1.09,3.9,1.56,8.13,3.43,11.61,2.71,5.06,6.44,9.57,9.73,14.32l2.36-6.29,11.91,1.22,11.77,7.85-2.67,7.91q-193.27-2.62-386.54-5.08C615.64,408,611.79,410.41,607.95,411.67Z" fill="#3b3b3b"/><path d="M630.15,529.15l147.3-1.7c-3.59,2.37-7.16,6.77-10.77,6.81-42.32.48-84.65.42-127,.07C636.5,534.31,633.33,531,630.15,529.15Z" fill="#333"/><path d="M1006,413.14l2.67-7.91c0-2.06-.6-4.48.27-6.09,1.45-2.68,3.86-4.85,5.86-7.23l5.52,13.32,4,7.9Z" fill="#2c2c2c"/><path d="M1020.33,405.24l-5.52-13.32c-2,2.38-4.42,4.55-5.86,7.23-.87,1.61-.23,4-.27,6.09l-11.77-7.85c-4.2-6.61-8.37-13.23-12.7-19.75a7,7,0,0,0-2.77,1c1.07,5.86,2.33,11.69,3.57,17.52l-2.36,6.29c-3.29-4.75-7-9.26-9.73-14.32-1.87-3.48-2.33-7.71-3.43-11.61l2.44-39.22c2.56-.43,6.38.06,7.48-1.44,18.33-25,52.43-25.07,70.67.13.93,1.28,2.47,2.13,3.72,3.17l3-4.35,2.65,44.3-11.69-2.5-14.42,12.9Zm-39.34-39c-.38,1.43-1.58,3.44-1,4.21,13.39,18.69,54.86,19.26,68.91.93.52-.68-.84-2.8-1.32-4.25L1050,360l-11.9,10.55c-.17-14.8,5.16-34.23-2.2-43-6.22-7.4-27.24-3.43-41.5-2.15-2.93.26-8,11.68-6.75,16.58,3,11.57,9.19,22.3,14.1,33.37-5-2.69-10.31-5-15-8.22-2.38-1.6-3.75-4.69-5.58-7.11Z" fill="#666"/><path d="M1033.38,389.54l14.42-12.9-3.36,19.24Z" fill="#2c2c2c"/><path d="M1387.27,624.61l21.8-11.4.75-.62,3.41,7.15c-.72-5-.26-13.84-2.37-14.51-11-3.49-22.71-4.92-34.16-7.06,2.49-2.23,5.42-6.71,7.4-6.32,9.61,1.88,21.49,2.52,27.6,8.6,4.81,4.78,6.09,19.28,2.27,25-4.81,7.24-16.41,10-25.08,14.64l15.37-8.68Z" fill="#aaa"/><path d="M1376.7,598.17c11.45,2.15,23.13,3.57,34.16,7.06,2.11.67,1.65,9.46,2.37,14.51l-3.41-7.15-16-10.22Z" fill="#6a6a6a"/><path d="M960.27,1145.57c3,36.7,6.1,73.39,9,110.11.17,2.21-1.3,4.55-2,6.82-.55-2.17-1.5-4.32-1.58-6.51-1-27.58-1.92-55.17-2.87-82.75-.05-1.49-.3-3-.46-4.45a27.57,27.57,0,0,0-.78,4.61q-.1,82.86-.11,165.72-1.29-90.22-2.58-180.45l-1-12.73Z" fill="#c8c8c8"/><path d="M1055.52,1146.79c3,35.36,6.13,70.72,9,106.1.2,2.53-1.34,5.19-2.07,7.8-.54-2.36-1.46-4.71-1.55-7.09-1-27.15-1.89-54.31-2.88-81.46a32.52,32.52,0,0,0-1.1-5.38,30.63,30.63,0,0,0-.93,5.38q.36,109.62.82,219.23c-.68-1.58-1.94-3.15-1.95-4.73q-.26-110.31-.38-220.62c0-2.43-1-4.86-1.47-7.29l1.27-12A3.69,3.69,0,0,0,1055.52,1146.79Z" fill="#c3c3c3"/><path d="M1057,1412l10.47,0c0,13.13,0,26.26-.5,39.37,0,.52-8.06,1.78-8.35,1.07-3.86-9.52-7.79-19.16-10-29.14-1.22-5.43,1-11.57,1.2-17.41.23-6.1-.05-12.22-.12-18.34.67,6.41,1.31,12.82,2,19.23.45,4.07,1,8.12,1.53,12.18Z" fill="#1f1f1f"/><path d="M1472,901.33l-913.81.12C561.08,901,564,900,567,900q448.39-.06,896.77.07C1466.47,900.1,1469.21,900.9,1472,901.33Z" fill="#cdcdcd"/><path d="M1285.61,1632.59H875.47c0-.33,0-.67,0-1q203.32-.09,406.65-.13C1283.25,1631.46,1284.43,1632.19,1285.61,1632.59Z" fill="#cecece"/><path d="M1753.28,802.57c-10.25,14.68-15.45,22.2-20.77,29.65-.5.71-1.69.93-2.55,1.38.49-.88.93-1.78,1.47-2.63,15.17-24.2,11.59-43-15.7-55.17a16.24,16.24,0,0,1-2.06-1.3c.81-.06,1.9-.49,2.39-.12C1727.7,783.11,1739.28,791.93,1753.28,802.57Z" fill="#c1c1c1"/><path d="M1691.62,771.66l7.95,2.86a19.44,19.44,0,0,1-2.61,1.62c-26,11-32.14,34.07-15,56.13a12.91,12.91,0,0,1,1.22,2.6c-.75-.3-2.06-.47-2.17-.92-3-12.39-9.35-25.34-7.59-37.05C1674.85,787.24,1686,779,1691.62,771.66Z" fill="#a3a3a3"/><path d="M1362.72,1713.73c-8.82-4-24.67-7.36-25.11-12.14-1.16-12.62,1.2-27.76,7.73-38.53,34.65-57.15,138.44-58.26,169.11-.12,8.55,16.21.13,41.38-.51,62.45l-14.45,14.23c-1.3-4.74-4.28-9.75-3.58-14.18,2.21-14.08,5.8-27.95,8.85-41.9-4.69-9.81-8.36-20.35-14.59-29.06-2.37-3.32-13.48-5.24-15.71-3-11.28,11.42-21,24.42-31.17,36.89a40.58,40.58,0,0,0-2.4,3.64c1.36-.8,3-1.32,4-2.44,14.41-16.42,23.79-9.35,31.72,6.45,1,2,3.89,3,5.91,4.4-3,2.94-5.6,7.21-9.21,8.45-3.81,1.31-8.62-.29-13-.61l2.21-13.85c-5.12.58-12.61-.79-15,2.07-14.3,17.34-17.63,3.75-23.66-6.78-1.66-2.91-8.25-4.42-12.24-3.91-1.78.23-4.13,7.23-3.68,10.84.6,4.74,4.57,9,5.33,13.79.31,1.94-4,4.62-6.22,7l-1.55-9-15.77-28.56c10.93-3.11,22.32-5.29,32.32-10.28,1.62-.81-1.13-15.35-5.23-21.17-3.61-5.11-14.74-11.22-17.65-9.34-8.4,5.45-14.33,14.71-21.23,22.47l-20.56,32.82,31.18,16.7Z" fill="#353535"/><path d="M1499.5,1739.62l14.45-14.23,21.94-15.13c.5,7.68,2.88,15.8,1.2,23-8.39,35.69-21.52,68.59-58.39,84.88,5.24-4.16,10.89-7.91,15.65-12.57,18.93-18.54,3.09-18.15-10.48-18.86,4.41-.93,10.37-.49,12.74-3.2,2-2.24.74-11.41-.91-12-7.52-2.49-15.69-3-23.63-4.25l-12.77-6.54-13.2-9.11c5.34.71,11.06,3,15.93,1.77,6.66-1.64,12.68-5.91,19-9.05-1.79-2.64-3.32-5.52-5.48-7.82-1.16-1.24-3.39-1.49-5.14-2.18a6.62,6.62,0,0,1,0,1.11q-1.37,7.46-2.77,14.92c-4.69-1.23-9.74-4.18-14-3.31-7.18,1.46-13.86,5.35-20.75,8.22-5.44-1.35-15.69-3.32-15.61-4,3.7-29.42-17.72-10.41-26.93-14.39-3.85-1.66-7.12-4.64-10.66-7,3-3.25,5.64-6.87,9-9.66,4.51-3.75,9.55-6.85,14.36-10.23l2.56-1.58,1.55,9c2.21-2.35,6.53-5,6.22-7-.76-4.76-4.73-9.05-5.33-13.79-.46-3.61,1.9-10.61,3.68-10.84,4-.51,10.58,1,12.24,3.91,6,10.52,9.35,24.11,23.66,6.78,2.36-2.86,9.85-1.48,15-2.07l-2.21,13.86c-1.4,4.33-4.51,12.22-4,12.48C1470.53,1727.55,1485,1733.52,1499.5,1739.62Z" fill="#535353"/><path d="M1483.86,1786.66c13.57.71,29.41.32,10.48,18.87-4.76,4.66-10.41,8.41-15.65,12.57-51.09,33.47-132.24-3.09-148.58-61.93-8.85-31.86-.38-37.83,27.25-36.19,3.2.19,6.53-1.69,9.79-2.61l-4.43-3.64,25.9-2.69,11.72-1.33c-3.22,2.49-6.68,4.72-9.61,7.51-5.15,4.89-10,10.12-14.93,15.2,6,2.26,12,4.73,18.15,6.67,2.54.8,5.43.45,8.17.62l-5.56,5.39-14.58,3.6c-10.75.1-21.5.06-32.24.45-1.68.06-4.38,1.94-4.62,3.32s1.47,3.76,2.88,5.11c14.79,14.13,29.69,28.14,44.56,42.19-.21,2.51-1,7.12-.55,7.24,12.68,3.44,25.42,6.79,38.35,9,1.57.27,4.24-5.71,6.4-8.8l1.28-3.78Z" fill="#636363"/><path d="M1165.87,637.61q-49.55,0-99.11-.06c-1.73,0-3.46-.82-5.19-1.26,1.55-.41,3.11-1.18,4.66-1.17q99.73.62,199.45,1.39a20,20,0,0,1,3.12.51,23.72,23.72,0,0,1-3.17.42q-49.88,0-99.76,0Z" fill="#a9a9a9"/><path d="M1328.76,637.75c-6.52,0-13,.06-19.57,0-4.1-.05-8.19-.33-12.29-.51,3.93-.31,7.95-.24,11.76-1.08,2.2-.49,4.06-3.55,6.1-3.58,20.25-.38,40.5-.38,60.76-.43a27,27,0,0,1,4.29.66c-1.45.7-2.85,1.87-4.35,2-15.52,1.52-31,2.88-46.58,4.28Z" fill="#858585"/><path d="M865.17,637.52q-49.57-.09-99.13-.08a25.9,25.9,0,0,1-3.18-.39,20.48,20.48,0,0,1,3.07-.48q98.77-.74,197.54-1.37c1.68,0,3.36.91,5,1.4a32.82,32.82,0,0,1-5.51.94Q914.09,637.63,865.17,637.52Z" fill="#a9a9a9"/><path d="M694.67,639.52,651,633l40,2c1.08.05,2.17-.06,3.25,0q13.67,1,27.33,2.12h-26.6Z" fill="#a1a1a1"/><path d="M1337.65,847.92a3.9,3.9,0,0,1,0,1.29q-3.21,9.54-6.49,19.07c4-3.2,9.66-5.62,11.53-9.76,4.15-9.22,6.53-19.27,9.31-29.07.62-2.17-1.12-5.67,0-6.88a9.09,9.09,0,0,1,7.33-2.27c1.86.38,4.92,4.37,4.52,5.06-10.53,18.18-17.49,43-33.42,52.16-15.08,8.71-43.13,7.32-58.89-1.46-12.35-6.88-18.66-31.48-20.16-48.85-1.26-14.56,8.32-30.06,13.11-45.15.22-.71.48-1.41.72-2.12q-6.13,4.12-12.27,8.23c-1.71,1.14-3.44,2.25-5.16,3.37,1-1.87,1.58-4.78,3.13-5.47,16.87-7.46,35.93-23.39,50.5-20.05,37.89,8.69,48,38.79,38.89,75.44-28.71,31-57.18,33.13-85.37-.68-.3-.36-1-.42-1.45-.62a31.59,31.59,0,0,0,1.31,4.22C1269.81,876.6,1311.56,878.38,1337.65,847.92Zm-9-18.54c3-6.55,7.24-12.87,8.52-19.75.8-4.32-2.85-9.47-4.5-14.25-.08,3.66,1.37,8.77-.5,10.73-9.49,10-19.74,26.53-29.91,26.66-12.19.16-25-13.34-36.49-22.33-2.57-2-.57-9.85-.68-15l-1.4,0c.82,7.7,1.57,15.4,2.53,23.08.15,1.18,1.25,2.25,1.92,3.37-.61,2.12-2.43,4.94-1.66,6.26C1277.39,846.87,1316.19,847.49,1328.7,829.37Zm-31.42,37.51c17-14.27,28.6-23.8,39.88-33.65,1-.89.2-3.87.23-5.87a32.28,32.28,0,0,0-3.81,3.06c-19.48,21.06-55.18,18.92-71.93-4.27-1.13-1.56-3.07-2.55-4.63-3.8-.33,2.21-1.77,5.56-.84,6.45C1268.32,840.44,1280.79,851.73,1297.29,866.88Z" fill="#6a6a6a"/><path d="M971.93,746.23c9.92,8.21,19.25,17.36,30.07,24.15,3.94,2.48,12.2.94,17.11-1.52,13.5-6.76,26.26-15,39.32-22.61-14.7,22-5.37,43.26.79,65.32,2.64,9.47-1,20.71-1.82,31.14-36.36,30.88-53,30.16-86.84-3.77,2.21-17,4.39-34,6.7-50.92.18-1.35,1.36-2.56,2.08-3.84-1.43.71-2.91,1.33-4.26,2.15-2.9,1.76-5.74,3.62-8.61,5.44,2.43-2.84,6.88-5.64,6.93-8.52C973.62,770.94,972.54,758.58,971.93,746.23Zm74.5,82.22c1.67-9.25,3.59-18.47,4.86-27.78.33-2.44-1.32-5.15-2.06-7.74,0,2.41.92,5.67-.28,7.11-9.79,11.72-18.84,30.66-30.38,32.4-10.94,1.65-25.09-14.25-36.72-23.78-2.46-2,0-9.92,0-15.11,0-.41-1.45-.82-2.22-1.23.63,8,1.13,16,2,24,.19,1.83,1.58,3.54,2.41,5.31-.2,2.48-1.52,5.69-.44,7.33C995.66,847.41,1034.37,846.94,1046.44,828.46Zm-32,39.78c17.87-16.26,29.78-27,41.44-38,.78-.73-.31-3.44-.54-5.23a14.58,14.58,0,0,0-2.87,2.08c-20.77,24.63-56,23.76-74.9-1.84-.78-1.05-2.17-1.66-3.27-2.47-.26,1.64-1.34,4.1-.64,4.81C985.45,839.63,997.45,851.4,1014.46,868.23Z" fill="#6a6a6a"/><path d="M691.74,844.73q.84-27.54,1.73-55.08a9.7,9.7,0,0,1,1.1-2.89c-.37,0-.85-.12-1.11.06-2.41,1.68-4.78,3.41-7.17,5.13-.21-.35-.66-1-.59-1,3.15-3.18,5.8-7.52,9.63-9.23,13.73-6.14,29.61-18.53,41.51-15.62,33.81,8.26,45.28,35.23,42,68.82-32.55,36.19-58.2,39.32-86.14,10.51A11,11,0,0,0,691.74,844.73Zm8.7-22.91c-.42,2.29-1.64,6.4-1.15,6.61,11.48,5,23.1,13,34.79,13.17,9.59.12,19.3-9.22,29-14.37,1.69-7,3.69-13.87,4.91-20.91.43-2.46-1.06-5.25-1.68-7.89-.18,2.3.55,5.51-.69,6.77-9.85,10-19.3,26.23-30.41,27.54s-24.78-11.43-35.75-20c-3.29-2.58-1.31-11.89-1.75-18.11-.81,7.1-2,14.19-2.15,21.3C695.48,817.86,698.71,819.85,700.45,821.82Zm33.74,48.52c17.36-20.23,29.3-34.08,41.07-48.07.57-.67-.38-2.62-.63-4a15.45,15.45,0,0,0-2.43,2.58c-17,29.22-55.62,32.51-76.45,6.53-1-1.25-2.55-2-3.84-3.06-.27,1.75-1.41,4.39-.68,5.1C702.8,840.77,714.62,851.83,734.19,870.34Z" fill="#707070"/><path d="M777.37,841.34c-4.7,13.1-6.39,34.93-14.64,37.77-32.25,11.13-63.7,10.55-71-34.38.32.21.64.43.94.67,11.91,8.16,25.2,24.4,35.43,22.66C745.55,865.11,761.06,850.85,777.37,841.34Z" fill="#707070"/><path d="M1056.89,846.6c-4.35,11.25-6.07,29.8-13.52,32.49-33.73,12.17-63.45,8.78-71.23-35.11C998.87,878.37,1027.23,879.25,1056.89,846.6Z" fill="#696969"/><path d="M590.36,761.19c7-2,14.06-5.66,21-5.35,5.38.24,10.55,5.43,15.82,8.42-6.17,9.2-10.57,23.07-19,26.27s-20.75-4.5-31.38-7.41Zm.82,10.13c4.15,5.5,8,10.81,12.15,15.88.66.81,2.65.53,4,.76-1.28-3.9-2.28-7.92-3.9-11.67-2.07-4.76-4.64-9.29-7-13.92l7.31-3.13c-1.91-.43-5.12-1.73-5.53-1.14C595.87,761.59,594.15,765.53,591.18,771.32Z" fill="#858585"/><path d="M1436.36,744.69c6.9,11.59,13.9,18.07,13,23.28-1,6.07-8.84,11-13.71,16.45-4.83-5.38-13-10.44-13.53-16.22C1421.65,762.59,1428.94,756.25,1436.36,744.69Zm8,3.09-16.62,15.1c2.74,2.52,5.37,6.88,8.25,7.06s8.12-3.06,9-5.86C1446.31,759.86,1444.78,754.73,1444.33,747.78Z" fill="#5f5f5f"/><path d="M777.37,841.34c-16.31,9.51-31.82,23.77-49.24,26.73-10.24,1.74-23.52-14.51-35.43-22.66,27.94,28.81,53.6,25.68,86.14-10.51Z" fill="#191919"/><path d="M1337.65,847.92c-26.09,30.46-67.84,28.69-82.83-3.55a31.59,31.59,0,0,1-1.31-4.22c.49.2,1.15.26,1.45.62,28.2,33.81,56.67,31.7,85.37.68Z" fill="#1a1a1a"/><path d="M1056.89,846.6c-29.66,32.65-58,31.77-84.75-2.62l-1.59-5c33.87,33.94,50.48,34.66,86.84,3.77Z" fill="#1b1b1b"/><path d="M1443.4,809.59c-14.68-12.91-19.49-16.71-23.62-21.14-.87-.93.76-4.19,1.24-6.38,3.51,1.66,6.9,4.3,10.55,4.75,6.4.78,13,.2,19.45.2Z" fill="#7e7e7e"/><path d="M1231.55,838.81c-4.68-5.63-10.24-9.61-9.68-12.31.77-3.71,6.25-9,9.6-8.92,3.65.08,9.09,5,10.1,8.81C1242.24,828.86,1236.42,833.08,1231.55,838.81Z" fill="#555"/><path d="M793.11,815.76c4.64,5.7,8.42,8.69,7.91,10-3.53,9-7.95,17.56-12.08,26.28-1-.82-3.1-1.83-3-2.42C787.9,839.58,790.11,829.61,793.11,815.76Z" fill="#6c6c6c"/><path d="M1080.05,840.55l-24.88,30.72a20.71,20.71,0,0,1-2.46-2.1c7.51-11.87,15.16-23.66,22.8-35.45Z" fill="#3a3a3a"/><path d="M668.27,839.24c-4.56-6-9.92-10.31-9.18-12.76,1.12-3.71,6.39-8.3,10.08-8.47,3.28-.16,9.67,5.32,9.54,8.07C678.55,829.75,673.4,833.2,668.27,839.24ZM670,824.58l2.66,7.34c1.44-1.73,4.41-4.53,4.07-5-2-2.81-4.8-7.11-7.21-7-3.06.09-6.2,3.69-8.79,6.29-.43.43,1.73,3.45,2.69,5.28.14-1.12-.14-2.79.49-3.26a19.83,19.83,0,0,1,6.25-3.32C670.75,824.68,672,826.77,670,824.58Z" fill="#525252"/><path d="M947.09,823.54l6.59,3.32-4.3,5.5c-1.45-1.33-3.6-2.44-4.11-4.07C944.85,827,946.44,825,947.09,823.54Z" fill="#535353"/><path d="M985,396.17c-1.23-5.83-2.49-11.66-3.57-17.52a7,7,0,0,1,2.77-1c4.33,6.52,8.5,13.15,12.7,19.75Z" fill="#2c2c2c"/><path d="M702.84,529.05c-16.52,0-33.3-1.88-49.48.43-25.06,3.58-27.27-10.85-26.33-29.06.89-17.21-2.83-36,26.58-33.69,33.47,2.68,67.43-.88,100.92,1.65,8.77.66,21.94,12.72,23.84,21.54,5.24,24.36,1.39,45.25-33.21,39.51C731.4,527.15,717,529.06,702.84,529.05Zm.22-3.12c17.62,0,35.4-1.48,52.83.35,25.69,2.69,21.77-16.45,19.6-28.61-1.77-9.93-11.19-24.13-19.6-26.06-17.56-4-36.72-1.63-55.17-.71-2.46.12-6.87,7.31-6.41,10.67,1.24,9,5.52,17.57,6.72,26.56.44,3.27-4.42,7.25-6.87,10.91-2.19-3.6-6.83-7.71-6.2-10.73,6.66-32.25-6.12-46.48-37.47-36.86-8.87,2.72-18.43,18.06-19.06,28.15-.53,8.38,10.25,23.29,18.38,25.18C666.73,528.74,685.22,526,703.06,525.94Z" fill="#333"/><path d="M1047.55,367.13c.48,1.45,1.84,3.57,1.32,4.25-14.05,18.33-55.53,17.76-68.91-.93-.55-.76.65-2.78,1-4.21C1002.9,386.78,1025.08,387.55,1047.55,367.13Z" fill="#090909"/><path d="M1482.55,1700.47c-2-1.44-4.93-2.44-5.91-4.4-7.93-15.81-17.31-22.87-31.72-6.45-1,1.12-2.66,1.64-4,2.44a40.58,40.58,0,0,1,2.4-3.64c10.21-12.47,19.89-25.48,31.17-36.89,2.24-2.27,13.34-.34,15.71,3,6.23,8.71,9.9,19.25,14.59,29.06Z" fill="#535353"/><path d="M1378,1661.52c6.9-7.76,12.83-17,21.23-22.47,2.91-1.89,14,4.22,17.65,9.34,4.1,5.82,6.85,20.36,5.23,21.17-10,5-21.39,7.16-32.32,10.27Z" fill="#4f4f4f"/><path d="M1378,1661.52l11.8,18.31,15.77,28.56L1403,1710l-2.66-.26-11.72,1.33-31.18-16.7Z" fill="#1f1f1f"/><path d="M1482.55,1700.47l22.22-16.92c-3.06,13.95-6.64,27.81-8.85,41.9-.7,4.43,2.29,9.44,3.58,14.18-14.45-6.1-29-12.07-43.11-18.83-.54-.26,2.56-8.15,4-12.48,4.37.33,9.18,1.92,13,.61C1477,1707.68,1479.52,1703.4,1482.55,1700.47Z" fill="#222"/><path d="M1400.34,1709.71l2.66.26c-4.81,3.38-9.85,6.49-14.36,10.23-3.36,2.79-6,6.41-9,9.66,3.53,2.38,6.81,5.36,10.66,7,9.21,4,30.63-15,26.93,14.39-.08.66,10.17,2.62,15.61,4l-13.44,18.22c-1.73-5.42-3.43-10.85-5.21-16.25-1.06-3.24-2.26-6.43-3.39-9.64-1.41,1.81-3.5,3.41-4.14,5.46-4.86,15.53-9.43,31.15-14.09,46.73-14.87-14-29.77-28.06-44.56-42.19-1.41-1.35-3.14-3.6-2.88-5.11s2.94-3.26,4.62-3.32c10.74-.39,21.49-.35,32.24-.45,0,3.09-1.15,7.75.37,8.92,2.91,2.25,7.35,2.53,11.15,3.62l3.06-16.15,5.56-5.39c-2.73-.17-5.63.18-8.17-.62-6.14-1.94-12.11-4.41-18.15-6.67,5-5.09,9.79-10.31,14.93-15.2C1393.66,1714.43,1397.12,1712.19,1400.34,1709.71Z" fill="#353535"/><path d="M1410.79,1747.57c1.13,3.21,2.33,6.41,3.39,9.64,1.78,5.4,3.48,10.83,5.21,16.25l13.44-18.22c6.89-2.87,13.57-6.76,20.75-8.22,4.26-.87,9.31,2.08,14,3.31q1.39-7.46,2.77-14.92a6.62,6.62,0,0,0,0-1.11c1.75.7,4,.94,5.14,2.18,2.16,2.3,3.69,5.18,5.48,7.82-6.29,3.14-12.31,7.41-19,9.05-4.87,1.2-10.59-1.05-15.93-1.77l-2.75,19.69c3.88.11,8.75,1.68,11.38-.08s3.13-6.86,4.57-10.5l12.77,6.54c2.77,2.08,5.49,4.21,8.31,6.22,2.12,1.51,4.5,2.68,6.48,4.33,1.24,1,2,2.69,2.91,4.07-2.45-.37-5.43,0-7.26-1.22-29.21-20.24-29,16.58-44.46,22.81l-1.28,3.78c1.22-15.61,2.53-31.23,3.59-46.85.16-2.33-.8-4.73-1.25-7.1-1.61,2-3.34,4-4.8,6.15-4.11,6.07-8.11,12.22-12.15,18.33Z" fill="#222"/><path d="M1438,1803.46c15.47-6.23,15.25-43,44.46-22.81,1.83,1.27,4.81.86,7.26,1.22-1-1.38-1.67-3-2.91-4.07-2-1.65-4.36-2.82-6.48-4.33-2.82-2-5.54-4.14-8.31-6.22,7.94,1.23,16.11,1.76,23.63,4.25,1.65.55,2.87,9.71.91,12-2.37,2.71-8.34,2.28-12.74,3.2Z" fill="#444"/><path d="M1459.3,1760.71c-1.43,3.64-1.9,8.72-4.57,10.5s-7.5.19-11.38.08l2.75-19.69Z" fill="#bbb"/><path d="M1410.79,1747.57l11.36,30.2c4-6.12,8-12.26,12.15-18.33,1.46-2.15,3.19-4.1,4.8-6.15.44,2.37,1.4,4.78,1.25,7.1-1.06,15.63-2.37,31.24-3.59,46.85-2.16,3.08-4.83,9.07-6.4,8.8-12.92-2.25-25.67-5.6-38.35-9-.44-.12.34-4.72.55-7.24,4.66-15.59,9.24-31.21,14.09-46.74C1407.3,1751,1409.38,1749.38,1410.79,1747.57Z" fill="#535353"/><path d="M1396.56,1745.1l-3.06,16.15c-3.8-1.1-8.25-1.37-11.15-3.62-1.52-1.18-.33-5.84-.37-8.92Z" fill="#c3c3c3"/><path d="M1297.29,866.88c-16.5-15.15-29-26.44-41.1-38.08-.93-.89.5-4.24.84-6.45,1.56,1.25,3.5,2.23,4.63,3.8,16.75,23.19,52.45,25.34,71.93,4.27a32.28,32.28,0,0,1,3.81-3.06c0,2,.78,5-.23,5.87C1325.89,843.08,1314.33,852.61,1297.29,866.88Z" fill="#343434"/><path d="M1328.7,829.37c-12.51,18.11-51.31,17.49-62.18-1.19-.77-1.32,1-4.14,1.66-6.26q27.15,3.44,54.31,6.87C1324.55,829.06,1326.63,829.18,1328.7,829.37Z" fill="#343434"/><path d="M1014.46,868.23c-17-16.83-29-28.61-40.78-40.6-.7-.71.39-3.17.64-4.81,1.1.81,2.49,1.42,3.27,2.47,18.9,25.59,54.13,26.47,74.9,1.84a14.58,14.58,0,0,1,2.87-2.08c.22,1.79,1.31,4.5.54,5.23C1044.24,841.26,1032.33,852,1014.46,868.23Z" fill="#323232"/><path d="M1046.44,828.46c-12.07,18.49-50.78,19-62.87.54-1.08-1.64.24-4.85.44-7.33q28.36,2.75,56.71,5.54A48.64,48.64,0,0,1,1046.44,828.46Z" fill="#323232"/><path d="M734.19,870.34c-19.57-18.51-31.39-29.58-43-40.89-.73-.72.41-3.36.68-5.1,1.29,1,2.85,1.81,3.84,3.06,20.83,26,59.41,22.69,76.45-6.53a15.45,15.45,0,0,1,2.43-2.58c.24,1.35,1.19,3.3.63,4C763.49,836.27,751.55,850.11,734.19,870.34Z" fill="#343434"/><path d="M763,827.23c-9.66,5.15-19.37,14.49-29,14.37-11.69-.14-23.31-8.17-34.79-13.17-.49-.21.73-4.32,1.15-6.61l56.87,4.86C759.22,826.85,761.13,827,763,827.23Z" fill="#343434"/><path d="M591.18,771.32c3-5.79,4.69-9.73,7.06-13.22.41-.6,3.61.71,5.53,1.14l-7.31,3.13c2.36,4.63,4.93,9.17,7,13.92,1.63,3.75,2.63,7.77,3.9,11.67-1.38-.23-3.37.05-4-.76C599.19,782.13,595.34,776.82,591.18,771.32Z" fill="#d3d3d3"/><path d="M1444.33,747.78c.45,7,2,12.09.64,16.31-.89,2.8-6,6-9,5.86s-5.51-4.54-8.25-7.06Z" fill="#ccc"/><path d="M1018,375.52c-6.58-3.17-11.52-4.9-11.38-5.58,2.26-10.75,5.16-21.37,7.92-32,1.15,1.79,3.25,3.55,3.3,5.37C1018.19,353.29,1018,363.3,1018,375.52Z" fill="#595959"/><path d="M642.29,495.24l2.31-11.06c1,5.16,2.15,10.29,2.9,15.49s1.12,10.73,1.65,16.11c.62-5.36,1.2-10.73,1.88-16.09.64-5.1,1.37-10.19,2.06-15.28.7,5.13,1.46,10.26,2.08,15.4.65,5.32,1.16,10.66,1.73,16,.59-4.09,1.16-8.17,1.76-12.26q1.42-9.63,2.88-19.26c.84,2.28,2.94,5,2.32,6.77-3.25,9.32-7.19,18.41-10.89,27.58-3.56-4.39-7.34-8.62-10.55-13.26C641.51,504,642.29,501.54,642.29,495.24Z" fill="#3b3b3b"/><path d="M706,495.39A101.26,101.26,0,0,1,711.12,484c.25-.47,5.42,1.73,8.31,2.69-2.51,4.86-5.73,9.49-7.31,14.63-1.28,4.16-.58,8.93-.75,13.43,1.07-.78,2.71-1.36,3.06-2.38.54-1.56-.14-3.52.33-5.13.38-1.32,1.68-2.38,2.57-3.55.84,1.44,2.72,3.29,2.35,4.26-1.43,3.69-3.59,7.1-5.47,10.61-2.73-1.5-7.13-2.45-7.83-4.6C705.09,510,706,505.41,706,495.39Z" fill="#3a3a3a"/><path d="M668.73,495.53a127.52,127.52,0,0,1,5.65-11.67c.22-.38,5,1.81,7.68,2.81-2.39,4.76-5.43,9.32-7,14.34-1.27,4.16-.77,8.86-1.05,13.33,1-.59,2.69-1,2.94-1.81.49-1.59-.14-3.52.31-5.13.38-1.36,1.65-2.48,2.52-3.7.86,1.63,2.79,3.66,2.37,4.83a26.44,26.44,0,0,1-5.62,9.71c-.62.62-6.79-2.11-7.48-4.25C667.82,510.07,668.73,505.45,668.73,495.53Z" fill="#393939"/><path d="M755.59,504.9c-4.75-5.94-10.1-9.75-9.85-13.15.23-3.15,6.34-8,10-8.15,3.22-.15,9.18,5,9.38,8.13C765.38,495.1,760.32,498.8,755.59,504.9Z" fill="#3d3d3d"/><path d="M724,502.36c.82-7.6,1.1-13.23,2.48-18.57.15-.57,8.8-.71,9.92,1.13,2.08,3.43,1.64,8.45,2,12.83a3.37,3.37,0,0,1-1.85,2.71c-.86.2-2.74-.73-2.94-1.48-1-4-1.67-8.08-2.45-12.14-.49,5.05-.83,10.13-1.51,15.16-.75,5.55-1.82,11.06-2.75,16.59Z" fill="#313131"/><path d="M754.78,497.64c5.75,8.06,9,12.56,12,17.21.12.19-2.13,2.79-3.09,2.68-6.38-.77-12.71-2-19.06-3Z" fill="#b4b4b4"/><path d="M1947.4,769.23q-1.26-37.55-5.57-74.92c-.05-.39-.1-.78-.16-1.16a4.22,4.22,0,0,0-2.2-2.69,70.13,70.13,0,0,0-8.8-11,79.53,79.53,0,0,0-11.46-9.51,102.47,102.47,0,0,0-27-12.9,150.74,150.74,0,0,0-30.29-6.16,167.12,167.12,0,0,0-17.87-.93q-5.87,0-11.72.36-3.51.21-7,.57c-4.67-.54-9.4-.67-14.1-.89-5.35-.25-10.71-.47-16.07-.69q-16.17-.67-32.35-1.27c-21.75-.82-43.51-1.57-65.26-2.11-20.85-.52-41.73-.86-62.59-.86-22.75,0-45.5.4-68.23,1.41-26.28,1.16-52.52,3.18-78.64,6.28.46-3,.68-6,.9-9,.24-3.34.44-6.69.63-10,.37-6.43.65-12.87.91-19.31.52-12.89.87-25.8,1.14-38.69.54-25.83.68-51.66.56-77.49q-.09-19.35-.31-38.69-.11-9.66-.27-19.31c-.1-6-.2-12-.43-18-.86-22.49,1.25-22.87-3.3-44.92-3.34-16.16-12.41-54.11-18.13-69.59a337.27,337.27,0,0,0-18-40.12,4.71,4.71,0,0,0,.06-.62,4.63,4.63,0,0,0-1.35-3.25,5,5,0,0,0-1.28-.91c-.4-.74-.79-1.48-1.2-2.21a2.69,2.69,0,0,0-3.65-1,2.68,2.68,0,0,0-1.13,3.25l-2.85.43c-1.94.31-3.86.7-5.81,1-5.75.72-11.52,1.12-17.31,1.29a2.3,2.3,0,0,0-.61-.2c-1.47-.24-2.85-.42-4.33-.51-1.67-.11-3.35-.12-5-.15-3.35-.07-6.7-.08-10-.09q-10.88,0-21.77,0-20.93.08-41.87.27-41.86.32-83.74.57c-55.82.25-111.64.08-167.44-1.32-54.63-1.38-109.22-3.93-163.81-6.18-54.85-2.26-109.73-4.26-164.63-4.75q-11.76-.1-23.52-.1c-49,0-98.1,1.42-147,5.21a4.4,4.4,0,0,0-.29-.62,4.59,4.59,0,0,0-6.23-1.63,30.29,30.29,0,0,0-9.3,9,53.29,53.29,0,0,0-6.16,12.39c-3.31,8.84-4.92,18.24-6.66,27.48-.79,4.16-1.59,8.32-2.66,12.42-.78,3-1.67,5.91-2.49,8.86q-1.31,4.66-2.53,9.34a169.55,169.55,0,0,0-3.83,18.64,112,112,0,0,0-1.13,16.4c-.66,5.52-.93,11.1-1.34,16.64-.49,6.58-1,13.17-1.47,19.75q-1.41,19.78-2.76,39.57c-1.8,26.4-3.38,52.82-4.26,79.27-1.46,43.77-.8,87.7,4.68,131.2-1.76,0-3.52,0-5.27,0-3.59,0-7.19,0-10.79,0-6.91-.07-13.83-.27-20.73-.56-13.82-.59-27.61-1.63-41.41-2.6-27.72-2-55.49-3.2-83.27-3.93S320,649,292.16,648.82s-55.64-.46-83.45-1q-12.59-.27-25.18-.68a5.53,5.53,0,0,0-.95-.72,5.15,5.15,0,0,0-2.69-.71,8.93,8.93,0,0,0-1.57.16l-.89.15,1.47-.2a218.81,218.81,0,0,0-21.55,4.14,259.67,259.67,0,0,0-26.32,7.68,148.74,148.74,0,0,0-26,11.63c-7,4.12-13.7,9.26-18.26,16.1a26.22,26.22,0,0,0-4,9.94,3.88,3.88,0,0,0-2.21,3.44c-.12,8,.15,16,.44,24s.63,16,1,24c.68,16,1.36,32,1.49,48,.05,6.3,0,12.57-.43,18.86-.39,6.05-.94,12.09-1.43,18.14-1,12.49-1.86,25.09-.66,37.6a94.33,94.33,0,0,0,2,12.62,60.18,60.18,0,0,0,4.28,12,5.72,5.72,0,0,0,3.54,2.72,5.87,5.87,0,0,0,7-3.43c.09,0,.18.08.28.1a32.44,32.44,0,0,0,4.52.69c1.63.18,3.27.32,4.91.47,3.32.29,6.66.51,10,.72,6.41.4,12.83.71,19.25,1,12.87.5,25.76.71,38.64.74,25.91.06,51.81-.7,77.7-1.72,51.88-2,103.74-5.2,155.68-5.55,30.4-.21,60.83.58,91.13,3.16a3.72,3.72,0,0,0,.51,2.88c.88,1.1,1.77,2.18,2.74,3.2s2.28,2.24,3.44,3.32c2.33,2.17,4.69,4.3,7,6.44q6.76,6.14,13.36,12.45c7.18,6.89,14.14,14,21.09,21.12.05,12.89.35,25.78.52,38.66q.26,19.62.29,39.25.1,39.27-.46,78.53c-.66,52.37-1.88,104.73-2.63,157.1q-.56,39.24-.59,78.49c0,26.14.34,52.28.84,78.42,1,52.23,2.77,104.45,4.82,156.65.62,15.74,1.43,31.47,1.75,47.21.25,12.6.39,25.21.48,37.82q.15,21.13,0,42.27-.06,8.67-.21,17.35c-.07,4-.17,7.95-.39,11.92,0,.74-.09,1.48-.16,2.22,0,.17,0,.33-.07.5a3.38,3.38,0,0,0,.14,3.16,3,3,0,0,0,1.52,1.24,38.16,38.16,0,0,0-15.32,6.92,47.49,47.49,0,0,0-5.35,4.72,55.3,55.3,0,0,0-11,17.63,72.87,72.87,0,0,0-4,14.11,78.29,78.29,0,0,0-1.12,14.61,72.8,72.8,0,0,0,1.69,13.91,64.18,64.18,0,0,0,5,13.79c4.9,10.51,12.43,20.13,22.59,26a38.85,38.85,0,0,0,7.21,3.08,34.88,34.88,0,0,0,8.26,1.45,32.73,32.73,0,0,0,8-.53,38.05,38.05,0,0,0,8.22-2.42A57.6,57.6,0,0,0,595,1835a56.47,56.47,0,0,0,10.78-13.87c5.43-9.67,7.75-20.73,9.19-31.62,2-15,2.32-30.45,7.62-44.79q.81-2,1.75-4l1.27-.12c2.7-.28,5.4-.68,8.08-1.1,2.88-.46,5.75-1,8.62-1.5a51,51,0,0,0,7.79-1.79,4.85,4.85,0,0,0,2.73-2.24,5,5,0,0,0,.36-3.62,31.65,31.65,0,0,1,.19-5.21l0,.3c.39-4.1.53-8.21.68-12.32.17-4.63.28-9.26.4-13.9q.35-13.93.62-27.85.42-22,.48-44.08h0a77.86,77.86,0,0,1,9.39,0q8.28.32,16.57.56,15.94.47,31.9.72c21.29.35,42.57.48,63.86.63s42.61.38,63.91.66q128.4,1.66,256.83,1.59,89.92,0,179.85-.62c2.36,0,8.37,5.65,8.3,3.34a33.85,33.85,0,0,0,2.17,4.76,28.07,28.07,0,0,0,2.62,3.79c1.25,1.64,2.53,3.26,3.91,4.79,1,1.13,2.11,2.19,3.12,3.31,1.23,1.36,2.34,2.83,3.48,4.26q1.9,2.39,3.78,4.8l-.24.21a55.22,55.22,0,0,0-8.2,12.81,98.62,98.62,0,0,0-5.61,14.14,97.42,97.42,0,0,0-3.14,13.5,116.67,116.67,0,0,0-1.48,15.06,124.91,124.91,0,0,0,2.67,28.84,138.41,138.41,0,0,0,9,27.68,140.48,140.48,0,0,0,13.92,24.54,148.59,148.59,0,0,0,19,22.1,137.58,137.58,0,0,0,22.88,17.53,136,136,0,0,0,27.23,12.51,132.19,132.19,0,0,0,57.86,6.37,123.57,123.57,0,0,0,27.1-6.33,131.64,131.64,0,0,0,24.68-11.85,135.7,135.7,0,0,0,39.63-37.78,144.75,144.75,0,0,0,22.61-52.27,157.63,157.63,0,0,0,3.41-27.26c.22.08.44.16.68.23a20.07,20.07,0,0,0,2.19.4c1.64.26,3.28.44,4.93.59,3.31.32,6.63.45,9.95.59,6.42.28,12.84.47,19.26.62,12.92.29,25.86.28,38.79-.08,25.91-.74,51.93-3,77.31-8.45,8.47-1.81,16.88-3.91,25.19-6.39a5.1,5.1,0,0,0-1.18-10l.12-.5c.66-2.86,1.23-5.74,1.79-8.62,1.09-5.58,1.92-11.22,2.69-16.86,1.59-11.62,2.8-23.28,3.75-35,1.89-23.4,2.64-46.87,2.72-70.34.15-46.59-2.52-93.15-5.85-139.6q-.46-6.38-.93-12.76a6.46,6.46,0,0,0-.29-1.49q.54-6.82,1-13.63,1-13.19,1.81-26.38,1.71-26.36,3.1-52.74,2.82-52.68,4.41-105.43,3.21-105.43,2.13-210.93-.55-52.33-2.21-104.63l2.67.25c3.55.34,7.11.61,10.68.87q10.32.74,20.65,1.17c13.87.61,27.76.83,41.65.77,27.79-.13,55.58-1.53,83.26-4q15.15-1.34,30.27-3.12a2.45,2.45,0,0,0,2.46-.81,3.7,3.7,0,0,0,.47-.4,4.09,4.09,0,0,0,1.2-2.89,4,4,0,0,0-.12-.93c.23-.94.43-1.88.61-2.83.49-2.53.87-5.07,1.24-7.61.74-5.13,1.34-10.27,1.87-15.42,1.05-10.29,1.76-20.61,2.24-30.94C1948.11,811.43,1948.11,790.31,1947.4,769.23ZM1771.24,891.41q-7.42-.44-14.83-1l-7.38-.56c-2.44-.18-4.9-.43-7.35-.41a4.08,4.08,0,0,0-3.89,3,4.24,4.24,0,0,0,1.5,4.36q3.51,104.23,2.34,208.57c-.7,70.32-3,140.62-6.38,210.86q-1.31,26.9-2.86,53.79-.78,13.72-1.6,27.43-.39,6.4-.77,12.8l0,0a4.57,4.57,0,0,0-1.38,3.33q.37,5,.73,10c0,.42,0,.83,0,1.25a3.31,3.31,0,0,0,.22,1.23c3,42.08,5.4,84.21,5.74,126.4.19,23.52-.29,47.06-1.67,70.54q-1,17.37-2.77,34.69c-1.14,11.35-2.57,22.66-3.9,34-.24,2-.49,4-.68,6,0,.47-.08.94-.11,1.42q-9.12,2.51-18.39,4.42c-8.39,1.72-16.86,3.09-25.34,4.24a556.67,556.67,0,0,1-63.18,4.2c-10.59.17-21.18.13-31.76,0-5.38-.05-10.76-.13-16.15-.17-2.55,0-5.1,0-7.64.07-1.27,0-2.54.13-3.81.25-.86.08-1.7.21-2.55.34a4.82,4.82,0,0,0-.9.24,2.94,2.94,0,0,0-5.53,1.39,153.39,153.39,0,0,1-1.31,19.29,146.16,146.16,0,0,1-9.83,36,138.54,138.54,0,0,1-17.19,29.51,133.75,133.75,0,0,1-22.94,23,127.35,127.35,0,0,1-27,15.84,124.61,124.61,0,0,1-30.2,8.2,126.45,126.45,0,0,1-31.86,0,137,137,0,0,1-33.6-9.3,123.94,123.94,0,0,1-13.27-6.65,121.3,121.3,0,0,1-12.41-8.35,135.69,135.69,0,0,1-22.83-22.9,145.46,145.46,0,0,1-18-30.82,137.29,137.29,0,0,1-8.93-32.48,121.71,121.71,0,0,1-.08-30,117.68,117.68,0,0,1,7.68-27.86c1.74-4,3.72-7.87,5.32-11.92a5.64,5.64,0,0,0,.13-2.37l.26-.21a5,5,0,0,0,1.47-3.56l-.18-1.33a5,5,0,0,0-1.3-2.22l-1.67-2.13q-2.43-3.15-4.74-6.38c-.89-1.25-1.7-2.54-2.47-3.86s-1.42-2.72-2.14-4.07a60.66,60.66,0,0,0-4.36-7c-2-2.68-4.22-5.34-7.17-7a5,5,0,0,0-2.39-.63,4.61,4.61,0,0,0-1,.12c-1.14-1.62-4.29-2.78-11.28-2.78-85.62,0-171.24.59-256.86.1q-64.21-.37-128.41-1.15-32.15-.39-64.3-.89c-21.27-.33-42.55-.51-63.82-.69-24.26-.21-48.53-.47-72.79-1.06q-8.93-.22-17.85-.51l-8.92-.31c-2.34-.08-4.69-.26-7-.18-.7,0-1.41.07-2.11.12,0-.64,0-1.28,0-1.92a5.05,5.05,0,0,0-5-4.86h-.15a5.07,5.07,0,0,0-4.85,5.17c0,.87,0,1.73,0,2.6-.78.07-1.56.14-2.34.18l-.14-.24a4.7,4.7,0,0,0-2.84-2,5,5,0,0,0-1.15-.13,3.92,3.92,0,0,0-2.41.71c-.53.43-1.07.85-1.57,1.32a8.4,8.4,0,0,0-1.08,1.46,5.15,5.15,0,0,0-.49,4.24l.07.16a4.69,4.69,0,0,0,1.28,2,5.27,5.27,0,0,0,1.27,1,9.78,9.78,0,0,0,3.9,1,31.36,31.36,0,0,0,5.51-.07c0,14.81-.23,29.61-.51,44.41q-.28,14.39-.59,28.77c-.09,4.63-.18,9.26-.22,13.89,0,2.46,0,4.93,0,7.39,0,1.44.13,2.87.19,4.3-1,0-2,.09-3,.14-2.69.15-5.38.36-8.07.6s-5.39.54-8.08.86a55.57,55.57,0,0,0-8.65,1.55,5.48,5.48,0,0,0-2.13,9.24l1.14.82h0a80.89,80.89,0,0,0-3.69,11.3,156.67,156.67,0,0,0-3.26,19.51c-1.53,12.85-2.49,25.92-7,38.16a57.39,57.39,0,0,1-6.21,11.62,55.07,55.07,0,0,1-8.37,8.89,56.78,56.78,0,0,1-10.46,6.73,38.38,38.38,0,0,1-7.87,2.5,32,32,0,0,1-6.79.24,31.57,31.57,0,0,1-6.24-1.51,35.92,35.92,0,0,1-6.32-3.46,45.88,45.88,0,0,1-6.93-6.59,65.18,65.18,0,0,1-7.79-12.62,67.89,67.89,0,0,1-2.73-7.07,48,48,0,0,1-1.43-5.93,71.92,71.92,0,0,1-.38-16.94,75.79,75.79,0,0,1,4.07-17.27,57.13,57.13,0,0,1,5.88-11,43.19,43.19,0,0,1,6-6.49,36.32,36.32,0,0,1,6.19-3.89,34.58,34.58,0,0,1,6.67-2,41.59,41.59,0,0,1,6.88-.35c3.21.09,5.8-3,5.7-6.07a5.9,5.9,0,0,0-1.86-4.1l-1.22-.88a5.83,5.83,0,0,0-3-.71,39.33,39.33,0,0,0-8.19.18,3.89,3.89,0,0,0,1.24-2.31,32.55,32.55,0,0,0,.35-3.51c.26-3.7.36-7.41.47-11.12.35-12.38.44-24.77.54-37.15q.17-21.24.17-42.48c0-10.11,0-20.23-.19-30.34-.22-10.6-.59-21.19-.89-31.79q-.55-19.6-1.06-39.18-1-39.17-1.68-78.34-1.26-78.43-.09-156.87c1.68-104.71,6.45-209.42,4.4-314.17-.25-12.83-.58-25.66-1.27-38.48a4.48,4.48,0,0,0-.29-6.12l-.13-.13a5.46,5.46,0,0,0-4.19-4.3c-7.08-7.26-14.16-14.52-21.32-21.71-4.3-4.31-8.62-8.59-13.07-12.75q-3.2-3-6.53-5.83a48.21,48.21,0,0,0-8-5.76,3.8,3.8,0,0,0-1.19-.41v-.13a3.22,3.22,0,0,0-1-2.24,3.49,3.49,0,0,0-2.3-.87c-29.74-2.64-59.56-3.58-89.39-3.58-21.79,0-43.58.5-65.36,1.21-51.9,1.69-103.78,4.54-155.72,4.75q-22.84.09-45.67-.61-11.57-.38-23.12-1-5.77-.32-11.53-.69l-5.37-.32a42.19,42.19,0,0,0-6.12-.13,4.18,4.18,0,0,0-1.91.65l-.08-.18A68.06,68.06,0,0,1,93,871.35c-1.51-12.16-.94-24.48-.13-36.67.4-6.12.9-12.24,1.28-18.37.36-5.93.49-11.85.4-17.79-.25-16-1.19-32-2.34-48-.57-8-1.22-16-1.82-24-.58-7.77-1.11-15.55-1.73-23.32A4.65,4.65,0,0,0,91.49,699c0-.45,0-.9.09-1.35a19.3,19.3,0,0,1,1-3.5A25.18,25.18,0,0,1,95.09,690a39.83,39.83,0,0,1,6.09-5.91,92.55,92.55,0,0,1,19.19-10.64,244.8,244.8,0,0,1,33.49-10.74c5.1-1.3,10.24-2.49,15.38-3.61l6.44-1.38c1.86-.39,3.71-.86,5.58-1.2a5.33,5.33,0,0,0,3.3-2.54,5.4,5.4,0,0,0,.34-.75c54.1,1.62,108.23,1.8,162.34,3.41,27.81.82,55.61,1.91,83.37,3.78,13.85.93,27.67,2.14,41.5,3.33s27.6,2.33,41.43,2.93q7.05.31,14.11.36a86,86,0,0,0,15.3-.86,4.46,4.46,0,0,0,3.29-4.32c0-.14,0-.27,0-.4a4,4,0,0,0,.74-2.56c-6.79-52.49-6.12-105.57-3.63-158.33,1-21.93,2.4-43.85,3.56-65.77.59-11.07,1.18-22.14,1.6-33.22.21-5.52.35-11.05.49-16.59.13-5.37.38-10.79,0-16.16a92.21,92.21,0,0,1,.66-10,146.22,146.22,0,0,1,5.88-24.23c2.26-7.09,4.94-14,6.76-21.26,3-11.88,4.8-24.17,9.44-35.58a46.65,46.65,0,0,1,5-9,33.14,33.14,0,0,1,3.53-3.68c107.67-8.36,215.81-4.79,323.56.13,54.51,2.49,109,5.34,163.54,7.23,55.79,1.93,111.62,2.45,167.44,2.4q45.21,0,90.43-.52,22.61-.21,45.22-.47,11.72-.13,23.44-.31,5.86-.1,11.72-.24c1.67,0,3.35-.12,5-.18a44.74,44.74,0,0,0,6-.65,3,3,0,0,0,1.77-1.1l4.5.07,12.18.25c1.91,0,3.81.16,5.72.18a50.94,50.94,0,0,0,6.41-.33l.53-.07q5.37,10.43,10,21.23a311.64,311.64,0,0,1,13.77,40.54,342.78,342.78,0,0,1,8.27,42q2.13,16.2,3,32.53c.68,11.82.81,23.66.89,35.5q.27,38.68.07,77.37-.21,32.93-1,65.86-.37,16.25-.88,32.49-.24,8.11-.48,16.22c-.08,2.83-.16,5.66-.23,8.49s-.17,5.66,0,8.48a3.51,3.51,0,0,0,2.23,3.2,2.91,2.91,0,0,0,0,.42,3,3,0,0,0,.86,2.08,2.81,2.81,0,0,0,2.08.86c42.85-5.21,86.06-7,129.2-7.25,43.66-.26,87.3,1.18,130.93,2.73,13.41.48,26.81,1,40.22,1.4q10,.32,20,.57,4.35.1,8.7.17a3.83,3.83,0,0,0,1,1.74,3.68,3.68,0,0,0,2.73,1.13,162.15,162.15,0,0,1,42.19.16,143.42,143.42,0,0,1,34.89,9.17,95.93,95.93,0,0,1,20.15,11.56A72.92,72.92,0,0,1,1928.27,692q1.52,2,2.9,4.14a5.39,5.39,0,0,0,2.37,2.07q3.18,28.21,4.62,56.58,1.64,31.59,1.08,63.25-.35,19.06-1.6,38.08c-.39,6.08-.86,12.15-1.37,18.22-.25,3-.52,5.95-.75,8.93q-.12,1.55-.21,3.1A935.48,935.48,0,0,1,1771.24,891.41ZM642.11,1624.57l0,.06,0-.06Z" fill="#2c2c2c"/><path d="M548,1727.55a1.09,1.09,0,1,0-1.05,1.12A1.1,1.1,0,0,0,548,1727.55Z" fill="#2c2c2c"/><path d="M336.74,1305.76a3,3,0,1,0,3.05,2.87A3,3,0,0,0,336.74,1305.76Z" fill="#2c2c2c"/><path d="M1927.89,690.39a34.15,34.15,0,0,0-5.61-1.11c-1.81-.25-3.62-.44-5.43-.61-3.92-.38-7.86-.61-11.79-.81q-11.35-.6-22.7-.89-19.9-.51-39.8-.52h-5.62c-30.3.12-60.61,1-90.89,2.18s-60.62,2.64-90.93,4c-15.15.67-30.3,1.33-45.47,1.78s-30.3.8-45.46,1c-28,.32-56,.14-83.93-.87a5.2,5.2,0,0,0-.73-.65,5,5,0,0,0-2.9-.92,4.94,4.94,0,0,0-.88.08,5,5,0,0,0-4,5.79c.4,2.52.76,5,.93,7.58a30.09,30.09,0,0,1-.45,6.2A20,20,0,0,1,1471,716a21.1,21.1,0,0,1-2.17,3,18.44,18.44,0,0,1-2.46,2,26.78,26.78,0,0,1-4.84,2.2,58.05,58.05,0,0,1-13.61,2.11,197.53,197.53,0,0,1-21.77-.68c-6.8-.49-13.61-1.17-20.44-1.26s-13.93,0-20.89,0l-22.55.06q-22.54.06-45.09.1c-60.1.1-120.2,0-180.3-.69q-38.77-.44-77.54-1.21a3.27,3.27,0,0,0-2.9-2.37c-16.92-.62-33.86-.84-50.79-1.14s-33.9-.58-50.85-.94-33.9-.8-50.84-1.34-33.89-1.28-50.84-2c-34-1.42-67.93-2.57-101.92-3.21q-25.49-.47-51-.49-12.42,0-24.83.13c-3.7,0-7.39.26-11.07.49-13.51.85-27,2.15-40.52,2.86-9.16.44-18.34.65-27.51.34a143.22,143.22,0,0,1-25.13-2.81,62.07,62.07,0,0,1-13.89-4.82,34.66,34.66,0,0,1-6.13-4.21,25.72,25.72,0,0,1-3.5-4.16,4,4,0,0,0-2.85-1.47h-.35a4.18,4.18,0,0,0-1,.13,3.64,3.64,0,0,0,1.83-2.81,3.53,3.53,0,0,0-3.2-3.8c-3-.15-6-.31-9-.4-3.27-.09-6.54-.08-9.81-.06-6.32.05-12.64.14-19,.2q-19.05.16-38.1,0c-25.55-.21-51.09-.81-76.63-1.42-30.9-.74-61.83-1.51-92.73-1.51-20.17,0-40.32.33-60.48,1.21-27.33,1.19-54.63,3.38-81.74,7.07a4.93,4.93,0,0,0,.47-1.68,5,5,0,0,0-4.49-5.32c-10.39-1.09-20.82-2.25-31.28-2.35h-1A83.32,83.32,0,0,0,103.51,687a56.47,56.47,0,0,0-15.4,5.21,4.81,4.81,0,1,0,4.13,8.68,54.68,54.68,0,0,1,6.81-2.88,58.64,58.64,0,0,1,13.27-2.3,126.88,126.88,0,0,1,18.2.92c4.09.45,8.19.9,12.31,1.14a3.44,3.44,0,0,0-.64,2.64,3.4,3.4,0,0,0,3.92,2.68,754.87,754.87,0,0,1,75.6-7.39c50.81-2.46,101.72-1,152.53.77,25.54.89,51.08,1.87,76.63,2.43q19.07.42,38.16.44c12.81,0,25.65-.13,38.44-.84,5-.28,10-.86,14.93-1.54l.15,0a4.17,4.17,0,0,0-.88.55,4.23,4.23,0,0,0-1.47,2.85l.06,1.12a4.2,4.2,0,0,0,.92,1.94c4.26,6.39,11.19,10.45,18.24,13.12a81,81,0,0,0,13,3.5,128.35,128.35,0,0,0,14.1,1.89,259.41,259.41,0,0,0,30.93.46c10.29-.36,20.56-1.08,30.82-1.87,7.08-.54,14.15-1.13,21.24-1.49,4.89-.21,9.79-.2,14.69-.23q12.75-.06,25.49,0,25.49.13,51,.72c34,.76,67.95,2,101.91,3.47q48.29,2,96.6,2.68,23.92.34,47.83.44c8.53,0,17.07.07,25.6,0a3.88,3.88,0,0,0,3.48,3q90.13,1.92,180.28,2.48t180.3.27c4.5,0,9-.1,13.48.13,3.46.18,6.92.46,10.37.76,7.46.63,14.92,1.31,22.41,1.44a114.69,114.69,0,0,0,11.51-.35,51.78,51.78,0,0,0,9.59-1.65c6.19-1.72,12.49-4.83,15.94-10.49a24.62,24.62,0,0,0,3.44-11.29,36.08,36.08,0,0,0-.28-6.77c0-.28-.09-.55-.13-.83,28.72,1,57.47,1.33,86.21,1.2,30.28-.14,60.56-.63,90.83-1.15,15.14-.25,30.27-.65,45.41-1l45.42-1c30.29-.7,60.57-1.25,90.86-1.47,14.24-.1,28.49-.16,42.73-.09l20.92.08c3.64,0,7.29,0,10.93-.06,1.83,0,3.65-.11,5.48-.21a33.7,33.7,0,0,0,5.7-.62,4.2,4.2,0,0,0,.42-8.09Z" fill="#2c2c2c"/></svg>