<svg id="5911115b-231f-4dc5-8728-d6e8a011761d" data-name="Layer 1" xmlns="http://www.w3.org/2000/svg" xmlns:xlink="http://www.w3.org/1999/xlink" width="1500" height="1500" viewBox="0 0 1500 1500"><defs><clipPath id="506e63fe-c71e-4d98-b138-a9700e211e19"><path d="M308.11,1364.08H1177c53.81,0,60.14-38,60.14-50.65V191.33c0-25.32-22.16-50.65-47.48-50.65h-872c-31.65,0-57,26.91-57,44.31V1307.1C260.63,1338.76,308.11,1364.08,308.11,1364.08Z" fill="none"/></clipPath></defs><title>one-way-glow</title><g clip-path="url(#506e63fe-c71e-4d98-b138-a9700e211e19)"><path d="M247.94,134.84H1280.73v1278H247.94Zm28.23,623h.15q0,269.41,0,538.82c0,41.41,17.67,59,59.3,59q414.48.1,829,.14c43.57,0,61.14-17.39,61.14-60.72q0-536.43-.15-1072.86c0-44.42-17.18-61.36-62-61.37q-412.88-.11-825.77-.17c-44.7,0-61.57,16.87-61.58,61.56Q276.15,490,276.17,757.85Z" fill="#fff"/><path d="M276.17,757.85q0-267.82,0-535.63c0-44.69,16.87-61.56,61.58-61.56q412.88.06,825.77.17c44.86,0,62,16.95,62,61.37q.12,536.43.15,1072.86c0,43.33-17.57,60.73-61.14,60.72q-414.48,0-829-.14c-41.62,0-59.29-17.56-59.3-59q-.05-269.41,0-538.82Zm25.59.14h-.13q0,268.58,0,537.17c0,29.23,6,35.19,35.55,35.18l827.27-.14c29.44,0,35.67-6.15,35.67-35.36q.13-536.37.21-1072.74c0-30-6.12-36-36.74-36l-825.67.19c-30.7,0-36.16,5.45-36.16,36.14Q301.75,490.2,301.76,758Z"/><path d="M301.76,758q0-267.79,0-535.57c0-30.68,5.46-36.13,36.16-36.14l825.67-.19c30.62,0,36.75,6,36.74,36q-.09,536.37-.21,1072.74c0,29.21-6.24,35.36-35.67,35.36l-827.27.14c-29.53,0-35.55-6-35.55-35.18q0-268.58,0-537.17Zm539,260H400.89v130.11H840.36c-7.83,24.75-14.79,47-21.92,69.17-3.79,11.78-1.73,22.15,7.44,30.53,9.94,9.07,21.28,8.47,32.67,3.2a91.48,91.48,0,0,0,13.56-8.27q108.51-75.61,216.94-151.36c3.7-2.59,7.12-5.59,12.19-9.59-80.68-56.05-159.86-111.3-239.39-166.05-11.19-7.7-24.1-8.92-35.46,1-10.56,9.18-11.48,20.69-7.28,33.43C826.23,971.75,833,993.47,840.81,1018ZM451.46,832.17c33.31,5.61,33.49,5.54,41.13-24.74,10.21-40.47,20.34-81,31.47-125.31,2.49,6.94,3.94,10.1,4.77,13.42,10.62,42.21,21.83,84.28,31.38,126.73,4,17.82,16.57,10.15,26.21,11.8,10.36,1.77,11.88-4.66,13-13.07,5.65-41.56,11.92-83,17.85-124.54,5-35,9.82-70.06,14.87-106.14-6.56-.39-11.28-.25-15.85-1-17.27-2.95-23.78,3.49-25.5,21.58-3.28,34.48-9.76,68.66-14.91,103A1129.86,1129.86,0,0,1,546.16,603c-2.79-12.93-9.59-13.92-20.11-13.83-10.68.1-18.56-.1-21.65,14-8.16,37.23-18.37,74-27.77,111a37,37,0,0,1-5.1-15.24c-4.49-32.07-9.23-64.11-13.08-96.26-1.17-9.8-4.42-14.37-14.78-13.46-8.22.72-16.55.15-26.2.15ZM679.05,273.48V508.09h35.4V354.53c28.69,44.71,54.21,89.92,79.74,135.13,12.58,22.27,13.33,22.59,41.24,17.41V274.9H799.22V421.21c-5.21-8.71-8-13.11-10.5-17.62C766.26,363.85,744,324,721.21,284.44c-2.57-4.47-7.51-9.72-12-10.47C699.47,272.37,689.33,273.48,679.05,273.48ZM862.06,834c-1.74-6.15-2.69-10.23-4-14.18-24.7-72.33-49.85-144.51-73.81-217.08-4.29-13-11.68-13.86-22.48-13.52-11.12.36-20.53-1.13-25.51,13.94-23.64,71.56-48.78,142.63-73.34,213.89-1.68,4.88-2.93,9.92-5,17,7.64,0,13.48-.73,19.07.14,15.23,2.37,23.22-3.55,26.88-18.71,3.35-13.86,9.58-27,13.83-40.67,2.56-8.24,6.55-12,15.81-11.65,17.5.74,35.08.83,52.56-.05,10.09-.51,13.94,3.94,16.65,12.63,5.05,16.21,10.61,32.29,16.84,48.07,1.6,4.06,6.21,9.22,10,9.71C839.78,834.92,850.35,834,862.06,834Zm-231-444.81c-5.58-25.4-8.81-51.39-17.25-75.58-10.53-30.19-35.86-43.66-67-45.22-31.58-1.58-55.08,13-67.06,41.66-21.77,52.13-21.7,105.73-2.25,158.43,10.76,29.14,38.79,46,69,44.33,31.7-1.71,57.28-15.23,67.41-46.71C621.81,441.68,625.32,415.81,631.06,389.23ZM931.21,369V309.67h96.92v-35.1H894V507.92h141.71v-36.4H931v-66H997V369ZM960.63,832.8h38.48c0-30.45-.69-59.58.38-88.65.37-10,3.18-21,8.2-29.6,21.67-37.09,44.58-73.46,67-110.11,2.53-4.14,4.8-8.44,7.26-12.81-28.73-7.21-50.21-3-60.63,26-1.94,5.38-5.91,10-9,15-10.48,16.77-21,33.53-32.43,51.79-16.13-26.17-30.89-50.05-45.6-74C920.69,588.3,905.5,583.32,878.82,593,903.5,633.4,928.44,673.38,952.33,714a61.51,61.51,0,0,1,7.93,28.09C961.26,772.11,960.63,802.21,960.63,832.8Z" fill="#fff"/><path d="M840.81,1018c-7.83-24.57-14.58-46.28-21.7-67.88-4.2-12.75-3.28-24.26,7.28-33.43,11.36-9.88,24.27-8.66,35.46-1,79.52,54.75,158.71,110,239.39,166.05-5.07,4-8.48,7-12.19,9.59q-108.43,75.74-216.94,151.36a91.48,91.48,0,0,1-13.56,8.27c-11.39,5.27-22.73,5.87-32.67-3.2-9.17-8.37-11.23-18.75-7.44-30.53,7.13-22.18,14.09-44.41,21.92-69.17H400.89V1018Z"/><path d="M451.46,832.17l-34-242.86c9.65,0,18,.57,26.2-.15,10.36-.91,13.6,3.66,14.78,13.46,3.85,32.15,8.59,64.19,13.08,96.26a37,37,0,0,0,5.1,15.24c9.4-37,19.61-73.75,27.77-111,3.09-14.11,11-13.91,21.65-14,10.52-.09,17.32.9,20.11,13.83a1129.86,1129.86,0,0,0,29.75,110.86c5.15-34.3,11.63-68.48,14.91-103,1.72-18.09,8.24-24.53,25.5-21.58,4.57.78,9.3.63,15.85,1-5,36.08-9.87,71.12-14.87,106.14-5.93,41.52-12.2,83-17.85,124.54-1.14,8.41-2.67,14.84-13,13.07-9.64-1.65-22.21,6-26.21-11.8-9.54-42.45-20.76-84.53-31.38-126.73-.83-3.32-2.28-6.48-4.77-13.42C512.93,726.46,502.8,767,492.59,807.43,485,837.72,484.77,837.79,451.46,832.17Z"/><path d="M679.05,273.48c10.28,0,20.42-1.11,30.11.49,4.53.75,9.47,6,12,10.47C744,324,766.26,363.85,788.72,403.59c2.55,4.51,5.3,8.9,10.5,17.62V274.9h36.21V507.07c-27.91,5.18-28.67,4.86-41.24-17.41-25.53-45.21-51-90.42-79.74-135.13V508.09h-35.4Z"/><path d="M862.06,834c-11.72,0-22.28.88-32.56-.46-3.77-.49-8.37-5.65-10-9.71-6.23-15.78-11.79-31.87-16.84-48.07-2.71-8.69-6.56-13.14-16.65-12.63-17.48.89-35.07.79-52.56.05-9.26-.39-13.25,3.41-15.81,11.65-4.25,13.68-10.48,26.81-13.83,40.67-3.66,15.16-11.65,21.08-26.88,18.71-5.59-.87-11.43-.14-19.07-.14,2.07-7.11,3.32-12.15,5-17,24.55-71.26,49.7-142.33,73.34-213.89,5-15.07,14.39-13.59,25.51-13.94,10.8-.35,18.19.52,22.48,13.52,24,72.57,49.11,144.75,73.81,217.08C859.37,823.81,860.33,827.89,862.06,834Zm-76.93-109.4-25-72.55-24.68,72.55Z"/><path d="M631.06,389.23c-5.74,26.58-9.26,52.45-17.13,76.91-10.13,31.48-35.71,45-67.41,46.71-30.19,1.63-58.23-15.19-69-44.33-19.45-52.69-19.52-106.3,2.25-158.43,12-28.67,35.48-43.24,67.06-41.66,31.11,1.56,56.44,15,67,45.22C622.25,337.83,625.48,363.83,631.06,389.23ZM592.8,396.1c-1.38-15.56-2.13-26.66-3.44-37.69a127.15,127.15,0,0,0-3.74-18.66c-6.41-23.24-20.36-35.85-39-35.59-20,.27-34.6,13.1-40.29,36.16-8.29,33.55-7.73,67.22-.17,100.79,5.34,23.7,16.77,34.56,36.45,35.56,20.76,1.06,36.3-10.06,42.3-33.24C589.27,426.65,590.72,409.12,592.8,396.1Z"/><path d="M931.21,369H997v36.55H931v66h104.66v36.4H894V274.57h134.14v35.1H931.21Z"/><path d="M960.63,832.8c0-30.59.63-60.7-.37-90.75A61.51,61.51,0,0,0,952.33,714C928.44,673.38,903.5,633.4,878.82,593c26.68-9.71,41.87-4.73,55.47,17.38,14.71,23.92,29.47,47.81,45.6,74,11.44-18.26,22-35,32.43-51.79,3.09-4.95,7.06-9.6,9-15,10.42-28.94,31.9-33.19,60.63-26-2.47,4.37-4.73,8.67-7.26,12.81-22.42,36.66-45.33,73-67,110.11-5,8.6-7.83,19.59-8.2,29.6-1.07,29.07-.38,58.2-.38,88.65Z"/><path d="M785.13,724.64H735.47l24.68-72.55Z" fill="#fff"/><path d="M592.8,396.1c-2.08,13-3.53,30.55-7.88,47.33-6,23.17-21.53,34.29-42.3,33.24-19.68-1-31.11-11.85-36.45-35.56-7.57-33.57-8.12-67.24.17-100.79,5.7-23.07,20.24-35.89,40.29-36.16,18.61-.26,32.57,12.35,39,35.59a127.15,127.15,0,0,1,3.74,18.66C590.67,369.44,591.42,380.54,592.8,396.1Z" fill="#fff"/></g></svg>