<svg id="09e36b05-dae5-4c7c-9d9a-0c7cd6611c63" data-name="Layer 1" xmlns="http://www.w3.org/2000/svg" xmlns:xlink="http://www.w3.org/1999/xlink" width="2048" height="2048" viewBox="0 0 2048 2048"><defs><radialGradient id="322d60f8-c3bd-45a1-b545-a4eceb474452" cx="1280.21" cy="2255.48" r="1050.54" gradientTransform="matrix(0.97, 0, 0, -0.74, -223.87, 2702.83)" gradientUnits="userSpaceOnUse"><stop offset="0" stop-color="#daff00"/><stop offset="0.22" stop-color="#daff00" stop-opacity="0.7"/><stop offset="0.43" stop-color="#daff00" stop-opacity="0.45"/><stop offset="0.62" stop-color="#daff00" stop-opacity="0.26"/><stop offset="0.78" stop-color="#daff00" stop-opacity="0.12"/><stop offset="0.91" stop-color="#daff00" stop-opacity="0.03"/><stop offset="1" stop-color="#daff00" stop-opacity="0"/></radialGradient></defs><title>start</title><ellipse cx="1024" cy="1040.76" rx="1024" ry="774.14" fill="url(#322d60f8-c3bd-45a1-b545-a4eceb474452)"/><rect x="63.86" y="706.26" width="1897.01" height="669.01" rx="143.36" ry="143.36" opacity="0.21"/><path d="M1468.51,868.4v23.15A174,174,0,0,0,1447.66,881a156.31,156.31,0,0,0-61.55-12.58H1140.54V932a179.25,179.25,0,0,0-16-17.09A201.1,201.1,0,0,0,1058.5,874a222.36,222.36,0,0,0-79.94-14.43,206.56,206.56,0,0,0-124.24,40.91V868.4H617.79l-2.91-2.73c-19.76-18.52-44.36-33-73.12-43-27.66-9.63-57.61-14.52-89-14.52a218.72,218.72,0,0,0-58.84,7.69c-19,5.31-35.89,13-50.23,22.83a158.79,158.79,0,0,0-36.89,35.09,149.27,149.27,0,0,0-23.48,45.51,167.89,167.89,0,0,0-7.53,50.34,176.86,176.86,0,0,0,10.44,60.92,156.69,156.69,0,0,0,31,51.71,134.72,134.72,0,0,0,23.76,20.7l-31.8,24.12,1,.6-18,13.86.73.57-5.89,4.73-38.77,28.75,35.79,33.56c19.76,18.53,44.41,33,73.27,43,27.72,9.63,57.69,14.51,89.07,14.51a218.82,218.82,0,0,0,58.84-7.69c19-5.31,35.89-13,50.22-22.83a158.89,158.89,0,0,0,36.89-35.1,149.72,149.72,0,0,0,14.27-22.91v73.46H794.06V1144.27a179.39,179.39,0,0,0,24.32,39.46,211,211,0,0,0,44.51,40.76,199.56,199.56,0,0,0,55.78,26.46,214,214,0,0,0,60.93,8.81,184.2,184.2,0,0,0,54.25-8.16H1327.9v-26.53l9.87,26.53h378.36v-226h60.25V868.4Zm24.23,276.14a152.87,152.87,0,0,0,30-35.62c2.18-3.55,4.18-7.2,6-10.92v139.59Z"/><path d="M456.07,999.74H430.76q-16.11,0-23.22-8.26t-7.11-21.86q0-30.13,45-30.13,42.26,0,63.6,12.55l-12.13,9.21q-14.65-6.69-51.47-6.69-18,0-24.16,4a12.5,12.5,0,0,0-6.17,11.09q0,7.12,3.35,11.09t12.34,4H456.7q28.24,0,50.94,9.62T545,1020.55a116.88,116.88,0,0,1,22.39,38.29,136.71,136.71,0,0,1,7.74,46.34,126.39,126.39,0,0,1-5.65,38.08,108,108,0,0,1-17.05,33.06,117.44,117.44,0,0,1-27.41,26q-16,11-38.08,17.16a177.08,177.08,0,0,1-47.81,6.17q-40.38,0-75.63-12.24t-58.69-34.21l12.13-9q21.34,19.25,53.46,29.81a218.55,218.55,0,0,0,68.73,10.57q28.66,0,51.78-8.26t38.08-22.7a100.51,100.51,0,0,0,23-33.48,104.17,104.17,0,0,0,8.05-41q0-29.08-11.72-52.62t-35.67-38.18Q488.71,999.74,456.07,999.74Zm-25.32,75.32h23q16.11,0,23.22,8.37t7.11,21.76q0,30.13-45,30.13-42.47,0-63.81-12.55l12.13-9.21q14.64,6.7,51.68,6.7,18,0,24.16-4a12.5,12.5,0,0,0,6.17-11.09q0-6.9-3.45-11t-12.66-4.08h-22.6q-28.87,0-52.2-9.42t-38.29-25.94a115.41,115.41,0,0,1-22.91-38.29,135.45,135.45,0,0,1-8-46.86,126.4,126.4,0,0,1,5.65-38.08,107.91,107.91,0,0,1,17.05-33.06,117.38,117.38,0,0,1,27.41-26q16-11,38.08-17.16a177,177,0,0,1,47.81-6.17q40.38,0,75.53,12.24t58.58,34.21l-12.13,9Q546,885.3,514,874.73a217.69,217.69,0,0,0-68.62-10.57q-28.67,0-51.78,8.26t-38.08,22.7a100.46,100.46,0,0,0-23,33.47,104.14,104.14,0,0,0-8.05,41q0,29.5,11.93,53.14t36.4,38Q397.28,1075.06,430.76,1075.06Zm0-60.25h23.85q42.47,0,66.43,25.94t24,64.44q0,39.13-27.83,64.75t-78,25.63a206.1,206.1,0,0,1-62.56-9.21q-29.08-9.2-48.33-25.94L340,1151q17.15,14,43.2,21.76a195.53,195.53,0,0,0,56,7.74q44.14,0,67.47-21.13t23.33-54.19q0-32.64-19.56-54t-56-21.34H430.76q-30.55,0-45.82-16.74t-15.27-43.52q0-26.78,18.93-43.52t56.8-16.74a188.58,188.58,0,0,1,49.38,6.17q22.8,6.17,37.66,17.68l-11.93,9.21q-26.16-18-75.11-18-31.59,0-46.13,12.45t-14.54,32.74q0,20.51,10.77,32.85T430.76,1014.8Zm0,30.13h23q30.54,0,45.82,16.95t15.27,43.31q0,26.78-18.93,43.52t-56.8,16.74a189.61,189.61,0,0,1-49.48-6.17q-22.91-6.17-37.76-17.68l11.93-9.21q26.15,18,75.32,18,31.59,0,46.13-12.45t14.54-32.74q0-20.29-10.88-32.74T453.56,1060h-22.8q-42.89,0-67.05-25.63t-24.16-64.75q0-39.12,27.83-64.75t78-25.63a205.23,205.23,0,0,1,62.45,9.21q29,9.21,48.23,25.94l-11.72,9.41q-17.16-14-43.1-21.76a194.59,194.59,0,0,0-55.86-7.74q-44.15,0-67.47,21.13T354.6,969.61q0,32.85,19.67,54.08T430.76,1044.93Z" fill="#28fcf1"/><path d="M580.06,924.42V909.36H806v15.06Zm0,30.13V939.48H806v15.06Zm0,30.13V969.61H806v15.06Zm60.25,8.16h15.06v217.8H640.31Zm30.13,0H685.5v217.8H670.44Zm30.13,0h15.06v217.8H700.57Zm30.13,0h15.06v217.8H730.69Z" fill="#28fcf1"/><path d="M1136.91,1062.08v148.54h-15.06V1062.08q0-42.68-19.88-76.26a136.57,136.57,0,0,0-54.19-51.89q-34.31-18.3-76.57-18.31-40.59,0-74.27,19.46A143.14,143.14,0,0,0,824.76,1060a144,144,0,0,0,8.26,48.85,132.16,132.16,0,0,0,22.6,40.38A154.63,154.63,0,0,0,888.67,1179a148.65,148.65,0,0,0,40.38,19,152.64,152.64,0,0,0,44,6.49,118.7,118.7,0,0,0,46.86-9.41v15.48a142.89,142.89,0,0,1-47.7,8.16,172.24,172.24,0,0,1-49.27-7.11,157.91,157.91,0,0,1-44.35-21,169.25,169.25,0,0,1-35.88-32.85,143.45,143.45,0,0,1-24.27-44.25,162.16,162.16,0,0,1-8.79-53.56,159.25,159.25,0,0,1,12.24-61.82,157.35,157.35,0,0,1,33.48-50.84q21.23-21.44,51.47-34.1a164.9,164.9,0,0,1,64.33-12.66,180.75,180.75,0,0,1,65.28,11.72Q1067,924,1089.21,944.82T1124.15,996Q1136.91,1026.31,1136.91,1062.08Zm-30.13,0v148.54h-15.06V1062.08q0-34.52-15.8-61.2a106.13,106.13,0,0,0-43.2-40.9q-27.41-14.22-61.51-14.23-32.43,0-59.21,15.38A112.59,112.59,0,0,0,854.89,1060q0,26.78,9.83,48.85t26.47,36.3a123.59,123.59,0,0,0,37.87,22.07,127.24,127.24,0,0,0,44.46,7.85,116.26,116.26,0,0,0,46.45-9.83v15.27a132.19,132.19,0,0,1-46.86,9q-36.2,0-66.53-16.32A125.6,125.6,0,0,1,858,1126.94q-18.2-29.92-18.2-67A126.91,126.91,0,0,1,850,1009.78a125.81,125.81,0,0,1,69.36-68.83,133,133,0,0,1,51.89-10.25q38.29,0,69.15,16.32A121.32,121.32,0,0,1,1089,993.46Q1106.78,1023.59,1106.78,1062.08Zm-30.13,0v148.54h-15.06V1062.08q0-39.54-25.32-62.87t-65.07-23.33q-36.83,0-61.51,24.48T885,1060q0,21.34,7.43,38.29t20.19,27.2a92.38,92.38,0,0,0,28.56,15.59,103.56,103.56,0,0,0,33.37,5.34,97.88,97.88,0,0,0,45.4-11.09v15.9a117.68,117.68,0,0,1-45.61,9.41,120.43,120.43,0,0,1-39.33-6.38,103.84,103.84,0,0,1-33.27-18.62q-14.65-12.24-23.22-31.8T870,1060q0-41.21,29.19-70.19t72.08-29q30.13,0,54,12.24a91.77,91.77,0,0,1,37.66,35.46Q1076.66,1031.75,1076.66,1062.08Zm-45.19,0q0-26.78-16.53-41.43T971.21,1006a55,55,0,0,0-39.54,15.9q-16.53,15.9-16.53,38.08a70.21,70.21,0,0,0,3.35,22.49,48.1,48.1,0,0,0,9.1,16.53,48.6,48.6,0,0,0,13.7,10.88,62.92,62.92,0,0,0,16.63,6.17,87.2,87.2,0,0,0,18.52,1.88,83.41,83.41,0,0,0,43.52-11.72v15.06A92.57,92.57,0,0,1,976.23,1132a96.06,96.06,0,0,1-28.35-4.08,76.87,76.87,0,0,1-24.16-12.34q-10.88-8.26-17.26-22.6t-6.38-33q0-28.87,20.29-49T971.21,991q33.68,0,54.5,18.93t20.82,52.2v148.54h-15.06Z" fill="#28fcf1"/><path d="M1288,1126.94h90.8a102.66,102.66,0,0,0,51.47-13.39,102.6,102.6,0,0,0,51.89-90,92.41,92.41,0,0,0-14-49.06,103.76,103.76,0,0,0-38-36.51,102.39,102.39,0,0,0-51.36-13.6H1189.22v286.21h-15.06V909.36h204.62a115,115,0,0,1,45.5,9.31A123.08,123.08,0,0,1,1462,943.35a118.65,118.65,0,0,1,25.52,36.51,104.43,104.43,0,0,1,9.62,43.73q0,36.61-16.74,63.92a109.8,109.8,0,0,1-45,41.53l31.59,81.6h-16.11L1421,1135.1q-5.65,1.88-13.18,3.77l28.24,71.76H1420l-27.62-69.25q-6.49.63-13.6.63l26.57,68.62h-15.9L1363.08,1142h-13.6l25.32,68.62h-15.9L1333.37,1142H1288Zm0-30.13h90.8q30.13,0,51.68-20.5t21.55-52.72q0-27.41-22-48.23t-51.26-20.82H1219.34v256.08h-15.06V939.48h174.49q35.57,0,61.93,25.21t26.36,58.9q0,37.66-26,63t-62.24,25.32H1288Zm0-30.13h90.8q18,0,30.55-11.3t12.55-31.8q0-15.06-13.08-27t-30-11.93h-129.3v226h-15.06v-241h144.36q23.22,0,40.69,16.32t17.47,37.66q0,26.57-16.95,42.37t-41.22,15.8H1288Zm-8.37,143.94h-15.06V999.74h114.23q11.71,0,19.88,7t8.16,16.84q0,28-28,28H1288v-15.06h90.8q13,0,13-13,0-3.56-3.87-6.17a15.88,15.88,0,0,0-9.1-2.62H1279.6Z" fill="#28fcf1"/><path d="M1502.12,924.42V909.36h226v15.06Zm0,30.13V939.48h226v15.06Zm0,30.13V969.61h226v15.06Zm60.25,8.16h15.06v217.8h-15.06Zm30.13,0h15.06v217.8h-15.06Zm30.13,0h15.06v217.8h-15.06Zm30.13,0h15.06v217.8h-15.06Z" fill="#28fcf1"/><path d="M1765.14,1387.55H259.59a208.59,208.59,0,0,1-208-208V902a208.6,208.6,0,0,1,208-208H1765.14a208.59,208.59,0,0,1,208,208v277.54a208.59,208.59,0,0,1-208,208Zm-1505.54-669A184,184,0,0,0,76.15,902v277.54A184,184,0,0,0,259.59,1363H1765.14a184,184,0,0,0,183.44-183.44V902a184,184,0,0,0-183.44-183.44Z"/></svg>