<svg id="308ca57d-9c94-47fb-bdd5-21c7de523057" data-name="Layer 4" xmlns="http://www.w3.org/2000/svg" xmlns:xlink="http://www.w3.org/1999/xlink" width="2140.3" height="2140.3" viewBox="0 0 2140.3 2140.3"><defs><radialGradient id="18eefdd2-05a1-446b-8882-27100605e33c" cx="1071.87" cy="1060.05" r="1022.28" gradientUnits="userSpaceOnUse"><stop offset="0.14" stop-color="#daff00"/><stop offset="1" stop-color="#daff00" stop-opacity="0"/></radialGradient></defs><title>barbecue-glow</title><circle cx="1071.87" cy="1060.05" r="1022.28" fill="url(#18eefdd2-05a1-446b-8882-27100605e33c)"/><path d="M1834.11,930.33q-7.51-.45-15-1l-7.47-.57c-2.47-.18-5-.43-7.45-.42a4.13,4.13,0,0,0-3.94,3,4.29,4.29,0,0,0,1.52,4.42q3.55,105.56,2.37,211.23c-.71,71.21-3,142.41-6.46,213.55q-1.32,27.25-2.89,54.48-.79,13.89-1.62,27.78-.39,6.49-.78,13l0,0a4.62,4.62,0,0,0-1.4,3.38q.38,5.07.74,10.15c0,.42,0,.84,0,1.26a3.35,3.35,0,0,0,.22,1.25c3,42.62,5.47,85.29,5.81,128,.19,23.82-.29,47.66-1.69,71.44q-1,17.6-2.8,35.14c-1.15,11.49-2.61,23-3.95,34.42-.24,2-.5,4.07-.69,6.1,0,.48-.08,1-.11,1.44q-9.23,2.54-18.62,4.47c-8.49,1.74-17.08,3.13-25.67,4.29a563.78,563.78,0,0,1-64,4.25c-10.72.17-21.45.13-32.17,0-5.45-.05-10.9-.13-16.36-.17-2.58,0-5.16,0-7.74.07-1.29,0-2.57.13-3.86.25-.87.08-1.73.21-2.58.34a4.88,4.88,0,0,0-.92.24,3,3,0,0,0-5.61,1.4,155.34,155.34,0,0,1-1.33,19.53,148,148,0,0,1-10,36.42,140.3,140.3,0,0,1-17.41,29.88,135.46,135.46,0,0,1-23.24,23.32,129,129,0,0,1-27.36,16,126.2,126.2,0,0,1-30.58,8.31,128.07,128.07,0,0,1-32.27,0,138.69,138.69,0,0,1-34-9.42,125.52,125.52,0,0,1-13.44-6.74,122.85,122.85,0,0,1-12.56-8.46,137.42,137.42,0,0,1-23.12-23.19,147.32,147.32,0,0,1-18.2-31.21,139,139,0,0,1-9-32.89,123.26,123.26,0,0,1-.08-30.39,119.18,119.18,0,0,1,7.78-28.22c1.76-4,3.77-8,5.39-12.08a5.71,5.71,0,0,0,.13-2.4l.26-.21a5.1,5.1,0,0,0,1.49-3.6l-.18-1.35a5.06,5.06,0,0,0-1.31-2.25l-1.69-2.15q-2.46-3.19-4.8-6.46c-.9-1.26-1.72-2.57-2.5-3.91s-1.43-2.75-2.17-4.12a61.43,61.43,0,0,0-4.41-7.12c-2-2.71-4.27-5.41-7.26-7a5,5,0,0,0-2.42-.63,4.67,4.67,0,0,0-1,.12c-1.16-1.64-4.34-2.82-11.43-2.82-86.71,0-173.43.6-260.14.1q-65-.37-130.05-1.16-32.56-.4-65.12-.91c-21.54-.33-43.09-.51-64.64-.7-24.57-.21-49.15-.47-73.71-1.08q-9-.22-18.08-.52l-9-.31c-2.37-.09-4.75-.27-7.12-.18-.71,0-1.42.07-2.14.12,0-.65,0-1.3,0-1.95A5.12,5.12,0,0,0,699,1659h-.15a5.14,5.14,0,0,0-4.91,5.24c0,.88,0,1.75,0,2.63-.79.07-1.58.14-2.37.18l-.14-.25a4.76,4.76,0,0,0-2.88-2.07,5,5,0,0,0-1.16-.13,4,4,0,0,0-2.44.72c-.54.43-1.08.86-1.59,1.34a8.5,8.5,0,0,0-1.09,1.48,5.22,5.22,0,0,0-.49,4.29l.07.16a4.75,4.75,0,0,0,1.3,2.07,5.34,5.34,0,0,0,1.28,1,9.91,9.91,0,0,0,4,1,31.76,31.76,0,0,0,5.58-.07c0,15-.24,30-.52,45q-.28,14.57-.6,29.14c-.09,4.69-.18,9.38-.22,14.06,0,2.5,0,5,0,7.48,0,1.46.14,2.9.19,4.35-1,0-2,.09-3,.15-2.73.15-5.45.36-8.17.61s-5.46.54-8.19.88a56.28,56.28,0,0,0-8.76,1.57,5.55,5.55,0,0,0-2.16,9.36l1.15.83h0a81.93,81.93,0,0,0-3.73,11.45,158.67,158.67,0,0,0-3.3,19.76c-1.55,13-2.52,26.25-7.09,38.65a58.13,58.13,0,0,1-6.29,11.77,55.77,55.77,0,0,1-8.48,9,57.5,57.5,0,0,1-10.59,6.81,38.87,38.87,0,0,1-8,2.53,32.37,32.37,0,0,1-6.88.25,32,32,0,0,1-6.32-1.53,36.38,36.38,0,0,1-6.4-3.51,46.46,46.46,0,0,1-7-6.67,66,66,0,0,1-7.89-12.78,68.76,68.76,0,0,1-2.76-7.16,48.63,48.63,0,0,1-1.45-6,72.84,72.84,0,0,1-.39-17.15,76.75,76.75,0,0,1,4.12-17.49,57.86,57.86,0,0,1,6-11.18,43.74,43.74,0,0,1,6.09-6.57,36.78,36.78,0,0,1,6.27-3.94,35,35,0,0,1,6.75-2.05,42.12,42.12,0,0,1,7-.35c3.25.09,5.87-3.05,5.77-6.15a6,6,0,0,0-1.88-4.16l-1.23-.89a5.91,5.91,0,0,0-3-.72,39.83,39.83,0,0,0-8.29.18,3.94,3.94,0,0,0,1.25-2.34,33,33,0,0,0,.36-3.56c.26-3.75.36-7.51.47-11.27.36-12.54.45-25.08.55-37.62q.17-21.51.17-43c0-10.24,0-20.49-.19-30.73-.22-10.73-.6-21.46-.9-32.2q-.56-19.85-1.08-39.68-1-39.67-1.7-79.34-1.27-79.43-.09-158.87c1.7-106.05,6.53-212.1,4.46-318.18-.26-13-.59-26-1.28-39a4.53,4.53,0,0,0-.29-6.2l-.13-.13a5.53,5.53,0,0,0-4.25-4.35c-7.17-7.35-14.34-14.71-21.59-22-4.35-4.36-8.73-8.7-13.24-12.91q-3.24-3-6.62-5.9a48.83,48.83,0,0,0-8.09-5.84,3.85,3.85,0,0,0-1.21-.41v-.13a3.26,3.26,0,0,0-1-2.27,3.53,3.53,0,0,0-2.33-.88c-30.12-2.68-60.32-3.63-90.53-3.63-22.07,0-44.14.51-66.19,1.23-52.57,1.71-105.11,4.6-157.71,4.81q-23.13.09-46.25-.62-11.71-.38-23.42-1-5.84-.32-11.68-.7l-5.44-.33a42.73,42.73,0,0,0-6.2-.13,4.23,4.23,0,0,0-1.93.65l-.08-.18A68.93,68.93,0,0,1,134.48,910c-1.53-12.31-.95-24.79-.14-37.14.41-6.2.91-12.4,1.29-18.6.37-6,.5-12,.41-18-.26-16.23-1.21-32.44-2.37-48.62-.58-8.09-1.24-16.18-1.85-24.27-.59-7.87-1.13-15.75-1.75-23.62a4.71,4.71,0,0,0,2.85-4.22c0-.46,0-.91.09-1.37a19.55,19.55,0,0,1,1-3.54,25.5,25.5,0,0,1,2.59-4.3,40.33,40.33,0,0,1,6.17-6,93.73,93.73,0,0,1,19.44-10.78,247.93,247.93,0,0,1,33.92-10.88c5.17-1.32,10.37-2.52,15.58-3.66l6.52-1.4c1.88-.4,3.75-.87,5.65-1.21a5.4,5.4,0,0,0,3.34-2.57,5.47,5.47,0,0,0,.35-.76c54.79,1.64,109.62,1.83,164.41,3.45,28.16.83,56.32,1.94,84.43,3.83,14,.94,28,2.17,42,3.37s28,2.36,42,3q7.14.32,14.29.36a87.08,87.08,0,0,0,15.5-.87,4.52,4.52,0,0,0,3.33-4.37c0-.14,0-.27,0-.41a4.09,4.09,0,0,0,.75-2.59c-6.88-53.16-6.2-106.92-3.68-160.36,1.05-22.21,2.43-44.41,3.61-66.61.59-11.21,1.2-22.42,1.62-33.64.21-5.59.36-11.2.49-16.8.13-5.44.38-10.93,0-16.37a93.38,93.38,0,0,1,.67-10.08,148.08,148.08,0,0,1,6-24.54c2.29-7.18,5-14.22,6.85-21.53,3-12,4.86-24.47,9.56-36a47.24,47.24,0,0,1,5.1-9.07A33.56,33.56,0,0,1,628,296c109-8.46,218.56-4.85,327.69.13,55.2,2.52,110.39,5.41,165.63,7.32,56.5,2,113,2.48,169.57,2.43q45.79,0,91.59-.52,22.9-.21,45.8-.48,11.87-.13,23.74-.32,5.94-.1,11.87-.24c1.7,0,3.39-.12,5.09-.18a45.31,45.31,0,0,0,6.08-.66,3.06,3.06,0,0,0,1.8-1.12l4.56.07,12.34.26c1.93,0,3.86.16,5.79.18a51.59,51.59,0,0,0,6.5-.34l.54-.07q5.44,10.56,10.09,21.5a315.62,315.62,0,0,1,13.95,41.06,347.15,347.15,0,0,1,8.37,42.56q2.16,16.41,3.09,32.94c.69,12,.82,24,.91,35.95q.27,39.18.07,78.36-.21,33.35-1,66.7-.37,16.45-.89,32.9-.25,8.21-.49,16.43c-.08,2.87-.16,5.73-.23,8.6s-.17,5.73,0,8.59a3.56,3.56,0,0,0,2.26,3.24,3,3,0,0,0,0,.42,3,3,0,0,0,.88,2.11,2.85,2.85,0,0,0,2.11.87c43.4-5.28,87.16-7.08,130.85-7.34,44.21-.26,88.42,1.2,132.6,2.76,13.58.48,27.15,1,40.73,1.42q10.11.32,20.22.58,4.4.11,8.81.17a3.88,3.88,0,0,0,1,1.77,3.73,3.73,0,0,0,2.77,1.15,164.22,164.22,0,0,1,42.73.16,145.25,145.25,0,0,1,35.34,9.29,97.15,97.15,0,0,1,20.41,11.71,73.85,73.85,0,0,1,12,12q1.54,2,2.94,4.19a5.45,5.45,0,0,0,2.4,2.09q3.23,28.57,4.68,57.3,1.66,32,1.09,64.05-.36,19.3-1.62,38.57c-.39,6.16-.87,12.3-1.39,18.45-.25,3-.53,6-.76,9q-.12,1.57-.21,3.14A947.42,947.42,0,0,1,1834.11,930.33Z" fill="#fff"/><path d="M600,1741.93q-1.88-340-3.74-679.93c0-3.08.16-6.16.25-9.24q.57-28.31,1.18-56.62a15.05,15.05,0,0,1,.92-3.46c.41.71,1.1,1.38,1.2,2.13,6,46.19,44.43,52.68,78.61,63.53,24.54,7.79,13-13.26,13.58-20.83,1.71-23,.75-46.15.82-69.25l1.6,55.72q.66,51.53,1.31,103.07l.93,165.54.18,116,.1,161.28q0,77.29-.06,154.58c0,54.57,0,53.45-54.72,55-26.27.75-47.38,1.34-39.65-34.84,1.65-7.72-.06-16.16-.22-24.26l-1.69,21.34Z" fill="#707070"/><path d="M1941.59,932.37l-134,.21-30.17-.18-4.13-1.1-9.37.06-79.34-.32c-17.13-.37-34.36.2-51.36-1.49-9-.9-17.53-5.76-26.28-8.83,5.75-7.47,10.14-16.82,17.48-22.07,31.42-22.49,39.13-76,11-96.73-12.4-9.16-30.47-10.28-45-17.15-4.93-2.34-6.12-11.69-10.35-16.74-2.24-2.68-7.31-3-11.1-4.38,5.91-2.25,11.83-6.4,17.74-6.4,21.83,0,43.67,2.31,65.49,2.05,23.56-.27,47.08-2.59,70.64-3.66,5.15-.23,13.31-.74,15,2,5.07,8.25,7.63,18,11.17,27.23-30.54,10.94-45.15,32.21-39.75,64.67,2.16,13,7.7,25.41,11.7,38.09l27.44,15.91c1.51,1.93,2.67,5,4.6,5.62,21.09,6.58,72.62-28.43,67.72-49.63-7.32-31.69-22.53-61.55-34.39-92.18-.88-2.27-3.24-5.58-2.5-6.53a10.49,10.49,0,0,1,7.16-3.69c38.18-.74,76.78,2.08,114.43-2.64,38.41-4.82,47.17,12.54,45.07,44.68-.4,41.27-.62,82.54-1.52,123.79C1948.91,926.15,1944.16,929.23,1941.59,932.37Zm-67.69-141.2c18.5,0,37,.61,55.44-.66,2.74-.19,5.76-9.07,6.82-14.3.39-1.93-4.46-7.08-7-7.12-33.9-.49-67.84-1-101.7.32-5.42.21-10.51,9.06-15.75,13.92,5.09,2.62,10,7.16,15.28,7.5C1842.59,791.82,1858.27,791.17,1873.9,791.17Z" fill="#d3d3d3"/><path d="M1668.76,1765.75l-51.55,0,67.22-2.68c20.49-.08,41,.54,61.45-.72,5.33-.33,14.68-6.37,14.79-10,3-93.91,5.68-187.85,7.1-281.8,2.68-176.75,4.54-353.52,6.8-530.27,0-2.58.84-5.15,1.29-7.72.59,30.41-4.14,62.94,31.62,79.32q-3.4,369.11-7.1,738.21c0,2.55-4.3,7.08-6.85,7.27C1752,1760.5,1710.35,1763.07,1668.76,1765.75Z" fill="#474747"/><path d="M252.21,690.68q163.2-.08,326.41-.21c3.68,0,7.35-.8,11-1.22l31.68,11.94a8.94,8.94,0,0,0,.23,1.22l-1.24,2.91-24,23.61H591L182.3,729,181,725l2.72-6.52c3-2.46,5.69-5.94,9.16-7.2C212.56,704.1,232.42,697.48,252.21,690.68Z" fill="#d1d1d1"/><path d="M1546,690.49q164.36,0,328.72,0c2.81,0,5.62-.78,8.42-1.19,3.34,2.19,6.44,4.93,10,6.5,20.38,8.86,40.89,17.43,61.36,26.11q0,1.62,0,3.24l-.46,3.38c-4.4.16-8.79.45-13.19.45q-197.58,0-395.15,0l-4,0-26.31-22.71Z" fill="#cdcdcd"/><path d="M591,728.94h5.29l-2.87,36.89-1.24,37.3L591,784.44c-2-11.17-3.87-32.08-6-32.1-131.3-1.72-262.62-1.75-393.93-1.65-2.06,0-5.94,3.54-5.93,5.42.22,54.86.83,109.71,1.37,164.57q0,6-.05,12c-17.08.55-34.17,1.62-51.22,1.07-2.47-.08-6.66-7.84-6.75-12.11-1.26-61.55-1.95-123.12-2.78-184.68L181,725l1.28,4c6.78,6.53,13.53,18.72,20.36,18.76q181.22,1.18,362.45-1.08C573.81,746.57,582.37,735.12,591,728.94Z" fill="#747474"/><path d="M1471.12,293.8c22.1-5.56,42.1-4.48,50.95,20.81,32.23,92.2,29.68,188.08,29.19,283.71-.1-7.71,1.52-16-.73-23-2.68-8.33-8.69-15.58-13.26-23.31-2.87,7.51-8,15-8.21,22.55-1,29.71-.22,59.48-.48,89.22-.09,10-1.28,20-2,30-1.16-10.12-2.3-20.25-3.51-30.37a40.19,40.19,0,0,0-1-4.41c-.89,1.71-2.29,3.35-2.59,5.16-1.17,7.05-2,14.16-2.94,21.25l-32.69-3.85-.11-94.35c11-2.43,31.5-4.75,31.53-7.31.57-48.59-1.28-97.22-2.62-145.83-2.26-5.71-5-16.43-6.7-16.28-8.83.77-17.41,4.37-26.08,7q-.06-12.49-.11-25c14.35-5,38-6.86,41.1-15.8,6.21-17.89,1.71-39.72.35-59.84-.29-4.23-6.21-11.58-9.35-11.48-12.14.38-24.21,3.19-36.31,5.09l-1.21-2.76q0-2,0-4l30,.64c-1.7-4-2.5-10.42-5.27-11.42C1490.19,297,1480.51,295.79,1471.12,293.8Z" fill="#8f8f8f"/><path d="M1954.07,728.56l.46-3.38,55.31,10.42c-.86,62.76-1.53,125.53-3,188.27-.09,3.72-6.86,10.32-10.63,10.39-18.18.34-36.39-1.09-54.59-1.89,2.57-3.13,7.32-6.22,7.39-9.41.89-41.25,1.12-82.52,1.51-123.79q.09-24,.19-48c-4.38-.28-8.76-.8-13.14-.8q-195.9-.21-391.8-.33l-4-21,4,0c4.34,6.16,8.63,17.67,13,17.72,123.66,1.33,247.34,1.89,371,1C1937.91,747.68,1946,735.24,1954.07,728.56Zm45.21,62.29h1.29c0-11,.25-22-.22-33-.09-2.1-3.07-4.07-4.71-6.09-1,1.58-2.82,3.15-2.85,4.74q-1.49,82.72-2.48,165.45c0,2.93,2.8,5.89,4.31,8.84,1.56-2.87,4.45-5.74,4.47-8.62C1999.36,878.39,1999.27,834.62,1999.27,790.84Z" fill="#717171"/><path d="M1516.55,685.42c1-7.09,1.77-14.2,2.94-21.25.3-1.81,1.7-3.44,2.59-5.16a40.19,40.19,0,0,1,1,4.41c1.21,10.12,2.34,20.24,3.51,30.37.69-10,1.88-20,2-30,.26-29.74-.48-59.51.48-89.22.25-7.6,5.34-15,8.21-22.55,4.57,7.72,10.58,15,13.26,23.31,2.26,7,.64,15.27.73,23q-2.65,46.09-5.3,92.18l-30.52,15.81c-3.63,7-7.21,20.16-10.9,20.19-38.63.32-77.27-2-115.92-2.51q-108-1.3-216.11-1.22c-21.4,0-42.81,1.82-64.21,2.8l1.24-28.81c4.09,2.77,8.15,7.89,12.27,7.94,47.76.54,95.53.3,143.3.29,78.58,0,157.17.06,235.75-.33,4.48,0,8.94-3.87,13.41-5.94-4.2-.86-8.42-1.65-12.6-2.58-6.39-1.43-12.76-3-19.13-4.43Z" fill="#747474"/><path d="M584.53,534.64c9.27-72.29,17.5-144.73,28.38-216.78,3.64-24.1,35.19-36.53,52-23.91q0,.54,0,1.08l-33,10.37c-6,7.16-15.81,13.7-17.06,21.6-2.73,17.35-3.82,36-.12,52.9,1.91,8.74,15.65,14.77,23.75,22.33,6,5.55,11.44,11.6,17.13,17.43-12.06,4-34.69-10.66-32.54,18.43l-2.74,79.2-9.4,4-2.16-14.55c-5.21,8.69-11.08,17.06-15.38,26.17-2.72,5.77-3.11,12.64-4.54,19Z" fill="#969696"/><path d="M692.8,968.28c-.08,23.1.89,46.27-.82,69.25-.56,7.57,11,28.62-13.58,20.83-34.18-10.85-72.66-17.34-78.61-63.53-.1-.75-.79-1.42-1.2-2.13a15.05,15.05,0,0,0-.92,3.46q-.65,28.31-1.18,56.62-.2-28.33-.39-56.66.07-7.95.13-15.89l1.25-14.78c8.86,1.59,25.46,3.42,25.42,4.74-.67,21.93,8.93,8,15.56,5.22,1.67-.69,4.29,1.35,6.3,1C660.8,973.86,676.79,971,692.8,968.28ZM600.65,978.7c6.43,2.75,11.2,5.22,16.26,6.56.89.24,3-4.23,4.59-6.52-4.83-2.28-9.53-4.95-14.58-6.52C605.88,971.9,603.57,975.6,600.65,978.7Z" fill="#484848"/><path d="M584.53,534.64l4.2,17.29c1.43-6.37,1.82-13.24,4.54-19,4.3-9.11,10.17-17.48,15.38-26.17l2.16,14.55-1.3,55.52,9.15,22.6q.66,43.5,1.31,87l33,6.64c-5.37,1-10.8,1.73-16.08,3.09s-10.37,3.34-15.54,5l-31.68-11.94Z" fill="#828282"/><path d="M596.22,980.21q-.07,7.94-.13,15.89c-5.8-28.8-48.32-63.46-77.85-63.46H186.4q0-6,.05-12c3.16,3.49,6.3,10,9.47,10,113.84.51,227.71,1.35,341.5-1.21,10.25-.23,37.24,20.86,39.07-14.65,1.51-29.21,7-58.2,9.67-87.39,1-10.67-1.54-21.63-1.26-32.43.09-3.58,3.94-7.07,6.06-10.6l1.21,18.68q.05,43.55.1,87.1C585.52,920.57,590.74,950.4,596.22,980.21Z" fill="#b4b4b4"/><path d="M1807.48,1011.9c-35.76-16.39-31-48.92-31.62-79.32l1.51-.18,30.17.18Q1807.51,972.24,1807.48,1011.9Z" fill="#353535"/><path d="M181,725l-55.35,12c8.43-9.77,15.18-25.11,25.61-28.26,31.22-9.42,63.89-14.06,96-20.57-21.64,8.84-43.31,17.63-64.87,26.67-1,.44-1.11,3.16-1.63,4.82l3-1.14Z" fill="#b3b3b3"/><path d="M2009.84,735.59l-55.31-10.42q0-1.62,0-3.24c-1.95-4.12-2.91-10.76-6-12-20.3-7.95-41-14.73-61.65-21.89,37.71,10.25,75.56,20.06,113,31.33C2004.37,720.78,2006.56,730,2009.84,735.59Z" fill="#b4b4b4"/><path d="M1886.85,688.07c20.6,7.16,41.36,13.94,61.65,21.89,3.09,1.21,4.05,7.85,6,12-20.46-8.67-41-17.25-61.36-26.11-3.61-1.57-6.71-4.3-10-6.5Z" fill="#606060"/><path d="M183.73,718.46l-3,1.14c.52-1.66.6-4.39,1.63-4.82,21.56-9,43.22-17.83,64.87-26.67l5,2.58c-19.79,6.8-39.66,13.42-59.32,20.57C189.42,712.52,186.76,716,183.73,718.46Z" fill="#575757"/><path d="M695.71,1127.06q-.65-51.53-1.31-103.07l2.47-28.17-.1.25c9.48.44,19,1.27,28.43,1.27q342.78.1,685.56,0c9.73,0,19.47-.78,29.2-1.19l1.29,33c-.42,2.36-1.2,4.72-1.22,7.08q-.72,133.39-1.3,266.77c-.45,102.87-1.74,205.75-.67,308.61.23,22-3.46,29.18-26.85,29.1-228.51-.85-457-.53-685.55-.48-6.11,0-12.22.71-18.33,1.09l-7.73.35L697.93,1570q-.55-80.7-1.11-161.41l-.18-116Zm376.62-33.15c0,18.84.53,37.71-.43,56.5-.42,8.13-4,16.09-6.16,24.13l-1.34-11.89q.67-71.24,1.28-142.48c0-5-.84-9.92-1.29-14.88q-175.88,0-351.76.26c-3.26,0-9.3,3.67-9.35,5.74-.84,34.57-.94,69.17-1.2,103.75q.67,104.5,1.33,209c.42,100.26.74,200.53,1.65,300.78,0,3.31,6,9.43,9.18,9.44q170.25.74,340.51,0c3.24,0,9.25-6.07,9.26-9.33.47-90.14.34-180.28.3-270.43.47-13.54.58-27.11,1.5-40.63.8-11.66,2.53-23.25,3.85-34.87l1.32,0q0,36.41.08,72.83c0,90.76-.09,181.53.28,272.29,0,3.5,4.45,10,6.84,10q167.53.71,335.07-.12c5.86,0,16.67-6.87,16.76-10.73,1.46-67.59,1.6-135.2,2-202.81.42-3.68,1.2-7.37,1.2-11.05q.1-132,.06-263.94,0-31.77,0-63.54c0-22.7.31-45.41-.35-68.09-.09-2.95-5.13-8.25-7.9-8.26q-171.9-.63-343.8-.18c-2.86,0-8.19,2.61-8.22,4.09C1072.44,1037.69,1072.45,1065.8,1072.33,1093.91Z" fill="#050505"/><path d="M696.87,995.82,694.4,1024l-1.6-55.72c-16,2.75-32,5.58-48,8.15-2,.32-4.63-1.72-6.3-1-6.63,2.73-16.23,16.71-15.56-5.22,0-1.32-16.56-3.15-25.42-4.74l8.1-23.78q375.46.08,750.92.11c58.34,0,116.69-.62,175-1l7.72-.26,6.74-9.39,5.23,1.31c-2.14,2.92-5.8,5.64-6.18,8.78-2.26,18.3-3.76,36.7-5.52,55.06l-6.09-27.72L1512.77,984c-11.14-3.1-22.3-8.69-33.43-8.65-12.68,0-25.43,4.84-37.93,8.35-1.51.42-1.68,5.63-2.47,8.62-3.53-1.93-7.08-3.8-10.57-5.79-3-1.72-5.89-5-8.94-5.13q-37.47-1.75-75-2.46c-21.19-.42-42.4-.79-63.58-.25-14.54.38-29.06,3.57-43.56,3.37-29.93-.42-59.85-3.16-89.77-3.24-24.55-.07-49.1,3.38-73.66,3.4-38,0-76.05-2.05-114.08-2.27-24.16-.14-48.32,2-72.49,2.12-20.23.06-40.46-1.83-60.7-2.12-25.45-.37-51.11-1.92-76.3.73C732.16,982.61,714.66,990.56,696.87,995.82ZM1363,938.48l5.74,7.25,14.16-1.45c-4.43-.38-8.86-1.09-13.29-1.09q-375.54-.08-751.08,0c-2.86,0-6.08-.66-8.47.44-1.94.89-4.16,4.05-4,6,.37,5,2,9.87,3.13,14.79,1.31-1.3,2.41-3,4-3.83,6.43-3.56,13.54-10.52,19.43-9.65,24.44,3.59,48.51,13.86,72.76,14,207,1.18,414.1.68,621.15.56a13.86,13.86,0,0,0,8.23-2.63C1344.32,955,1353.59,946.66,1363,938.48Z" fill="#444"/><path d="M697.93,1570q.83,35.8,1.67,71.61-.11,9.82-.23,19.65L698.23,1779c-4.21,2.11-8.42,6-12.65,6-28.48.22-57-.38-85.46-.72q.23-21.3.46-42.6l1.69-21.34c.16,8.11,1.87,16.54.22,24.26-7.74,36.19,13.38,35.6,39.65,34.84,54.75-1.57,54.75-.46,54.72-55q0-77.29.06-154.58Z" fill="#404040"/><path d="M695.71,1127.06l.93,165.54Z" fill="#141414"/><path d="M697.93,1570l-1-.12q0-80.64-.1-161.28Q697.38,1489.34,697.93,1570Z" fill="#2e2e2e"/><path d="M1777.37,932.4l-1.51.18c-.45,2.57-1.25,5.14-1.29,7.72-2.26,176.76-4.12,353.52-6.8,530.27-1.42,94-4.09,187.88-7.1,281.8-.12,3.65-9.46,9.7-14.79,10-20.42,1.26-41,.64-61.45.71-28.3-5.83-72.72,21.1-75.27-37,1.75-3.14,5.46-6.66,4.94-9.36-4.58-24-10.1-47.79-15-71.71-6.13-30-18.26-60.54-16.51-90.18,3.45-58.49,13.71-116.68,23-174.69,6.53-40.73,13.81-81.63,25.05-121.24,10.07-35.45,26-69.24,39.44-103.73.5-1.28,1.82-2.23,2.76-3.33.53.57,1.34,1.06,1.53,1.73.66,2.31,1.11,4.67,1.63,7,2.38-2.12,5.22-3.92,7-6.46,1.6-2.27,2.05-5.34,3-8.07,2.08-6.1,2.92-13.14,6.63-18,2.42-3.16,9.18-2.71,13.68-4.61,5.31-2.24,11.2-4.33,15.14-8.2,4.23-4.16,5.66-11.11,9.78-15.43,7.19-7.54,21.62-13.42,22.36-21,4.28-44.16,5.44-88.63,7.66-133-5.94-4.41-11.82-12.55-17.84-12.65-59.79-1-119.6-.69-179.4-.74L1684.53,931l79.34.32q-2,253.53-4,507.06c0,5.11,1,10.23,1.53,15.34,1.1-4.22,3.1-8.42,3.17-12.65q3.88-229.26,7.44-458.52c.28-17.1.81-34.19,1.22-51.29Z" fill="#686868"/><path d="M1684.53,931,1564,932.4l-11.75.38-1.08-.32-5.23-1.31-4.11-165.31q-.06-2.13-.12-4.25l1.74-7.59a41.22,41.22,0,0,1,6.49-1q193.74.45,387.48.9c4.24,0,8.49-1.56,12.73-2.39l.47-.31q-.09,24-.19,48c2.11-32.14-6.65-49.49-45.06-44.67-37.66,4.72-76.25,1.9-114.43,2.64a10.49,10.49,0,0,0-7.16,3.69c-.74,1,1.62,4.26,2.5,6.53,11.87,30.63,27.08,60.5,34.39,92.18,4.89,21.2-46.63,56.21-67.72,49.63-1.93-.6-3.08-3.69-4.6-5.62L1721,887.64c-4-12.68-9.53-25.1-11.7-38.09-5.41-32.46,9.21-53.74,39.75-64.67-3.54-9.19-6.1-19-11.17-27.23-1.69-2.75-9.85-2.24-15-2-23.55,1.06-47.08,3.38-70.64,3.66-21.82.25-43.66-2-65.49-2.05-5.91,0-11.83,4.15-17.74,6.4,3.79,1.38,8.86,1.7,11.1,4.38,4.22,5,5.42,14.4,10.35,16.74,14.5,6.87,32.57,8,45,17.15,28.09,20.76,20.38,74.24-11,96.73-7.33,5.25-11.73,14.6-17.48,22.07,8.75,3.07,17.32,7.93,26.28,8.83C1650.17,931.24,1667.4,930.66,1684.53,931ZM1640,866.56c1.07-11.48,6.39-24.94,2.18-34-5.86-12.54-19.07-30.69-28.76-30.46-18.36.43-36.45,12.22-54.65,19.29,6,21.09,5.57,50.93,19.5,61C1594.85,894.46,1625.54,895.89,1640,866.56Zm171-22.33c-2.49-30.52-19.47-49-49.89-48.09-27.16.77-44.55,18.46-43.86,46.55.73,29.46,18.22,47.06,48.09,46.75C1793.22,889.15,1808.75,872.95,1811,844.23Z" fill="#c4c4c4"/><path d="M1773.24,931.3c-.41,17.1-.94,34.19-1.22,51.29q-3.69,229.26-7.44,458.52c-.07,4.23-2.07,8.44-3.17,12.65-.54-5.11-1.57-10.23-1.53-15.34q1.91-253.53,4-507.06Z" fill="#989898"/><path d="M1873.9,791.17c-15.63,0-31.31.65-46.88-.36-5.23-.34-10.2-4.88-15.28-7.5,5.24-4.86,10.33-13.72,15.75-13.92,33.86-1.29,67.8-.81,101.7-.32,2.51,0,7.37,5.19,7,7.12-1.06,5.23-4.08,14.11-6.82,14.3C1910.94,791.78,1892.4,791.17,1873.9,791.17Z" fill="#292929"/><path d="M1721,887.64l27.44,15.91Z" fill="#888"/><path d="M1363.1,1736.58l1.36-2.69c2.93-16.1,5.9-32.19,8.76-48.31.81-4.56,1.3-9.17,1.94-13.75l5.21-.11c22.32-7.5,44.17-17.57,67.09-21.78,23.22-4.26,47.6-1.86,71.27-4.34,5.87-.62,10.95-8.81,16.39-13.53q2.19-317.89,4.39-635.77c1.76-18.36,3.26-36.76,5.52-55.06.39-3.13,4-5.86,6.18-8.78l1.08.32c-.87,35.82-2.3,71.65-2,107.46,0,4.71,9.06,9.35,13.92,14h2.57c-4.13.45-8.26.82-12.36,1.44-.48.07-.75,1.49-1.12,2.28l9.78,1.1c-3.49.29-7.25-.11-10.34,1.15-1.63.66-2.93,4.21-3,6.47q-1.51,187.5-2.73,375c-.39,27.73-1.24,55.47-1,83.2.22,28.72-5.32,59.86,3.84,85.6,14.39,40.43,39,77.23,59.27,115.56,2.55,58.15,47,31.22,75.27,37l-67.22,2.68c1.25,43.38-16.45,78-48.9,105.82l-20,12.94L1527.4,1893l-83.57-1.56L1421.29,1881C1369.47,1845.9,1349.8,1797.89,1363.1,1736.58Zm96.62-76.77c-20.71,13-46,22-61.23,39.74-42,48.89-42.1,100.07-6.23,147.17,33.33,43.76,92,59.08,144.31,37.67,49.35-20.2,78.77-70.35,75.14-128.12-2.25-35.8-35.56-78.84-68.51-88.52Z" fill="#141414"/><path d="M569.82,1851.64c-23.87-24.3,17.79-29.1,14.1-47.4l21.42-2.71c14.73,4.16,29.47,8.26,44.17,12.54,1.7.49,3.13,1.9,4.69,2.88a32.38,32.38,0,0,1-1.71-4.66c-1.41-6.84-2.69-13.72-4-20.58,2.35-.12,6.68-.66,6.76-.3,1.35,6.36,2.09,12.83,3.14,19.26a125.86,125.86,0,0,0,2.61,12.69c.46,1.7,1.94,3.13,3,4.68l1.09-5.51-1.31,25.17c-3.68,2.26-7.58,4.23-11,6.84-12.42,9.5-24.64,26.65-37,26.72-11.94.06-24.14-17.22-35.89-27.29-4.67-4-8.43-9.08-12.6-13.67Zm46.58-51.69c-15.66,17.85-25.31,28.58-34.48,39.7-.92,1.12,1,4.63,1.68,7,2.49-1.66,5.1-3.17,7.45-5,8.92-7,17.86-19.68,26.59-19.51,8.37.16,16.45,13.67,24.75,21.21a80.37,80.37,0,0,0,6.64,4.93c.74-2.24,2.81-5.53,2-6.54C641.62,1829.88,631.79,1818.35,616.41,1799.95Z" fill="#434343"/><path d="M582.84,1877l-8.75-12.18-4.27-13.15-2.59-11.34c4.17,4.59,7.93,9.67,12.6,13.67,11.75,10.06,23.95,27.35,35.89,27.29,12.37-.06,24.59-17.22,37-26.72,3.41-2.61,7.31-4.58,11-6.84l-1.47,8.95-14.12,23C625.63,1896.84,603.83,1896.84,582.84,1877Z" fill="#090909"/><path d="M665,1822.54l-1.09,5.51c-1-1.55-2.5-3-3-4.68a125.86,125.86,0,0,1-2.61-12.69c-1-6.42-1.79-12.9-3.14-19.26-.08-.36-4.41.18-6.76.3,1.33,6.86,2.6,13.73,4,20.58a32.38,32.38,0,0,0,1.71,4.66c-1.56-1-3-2.39-4.69-2.88-14.7-4.27-29.44-8.38-44.16-12.54l14.06-12.85-15.52-1.62-3.76-2.7c28.49.34,57,.94,85.46.72,4.23,0,8.43-3.93,12.65-6l2.59-6.81c-8.88,5-17.62,10.31-26.72,14.88-2.7,1.36-6.43.67-9.69.91Q664.73,1805.29,665,1822.54Z" fill="#060606"/><path d="M603.89,1787.06l15.52,1.62-14.06,12.85-21.42,2.71c-4.93-4.94-10.17-9.63-14.46-15.07-.69-.87,2.87-5.1,4.46-7.77,3.87,2.59,7.51,6.81,11.66,7.39C591.49,1789.61,597.77,1787.77,603.89,1787.06Z" fill="#424242"/><path d="M1548.26,1884.54l20-12.94,7.06,16.68-36.1,12.43-.24-.35Z" fill="#cecece"/><path d="M1543.5,754l-1.74,7.6c-4.83-3.42-9.63-9.76-14.5-9.81-40.41-.47-80.82.48-121.24.52q-196.51.21-393,.06c-135-.19-269.94-.85-404.9-.56-4.31,0-8.6,8.18-12.9,12.55l-.79,5-1-3.54,2.88-36.89,24-23.61c6.4,7.62,12.79,21.83,19.21,21.84,55.64.13,111.27-3,166.93-3.78,59.88-.89,119.82-1.67,179.64.37,16.77.57,32.79,13.21,49.9,16.77a229.3,229.3,0,0,0,57.4,4.24c5.26-.26,9.94-12.47,14.89-19.2,21.4-1,42.81-2.81,64.21-2.8q108.06,0,216.11,1.22c38.65.46,77.29,2.84,115.92,2.51,3.69,0,7.27-13.15,10.9-20.19L1541.74,729l4,21-2.21,1.38Z" fill="#292929"/><path d="M1108.29,725.57c-4.95,6.73-9.63,18.94-14.89,19.2a229.3,229.3,0,0,1-57.4-4.24c-17.1-3.56-33.13-16.2-49.9-16.77-59.82-2-119.76-1.26-179.64-.37-55.65.82-111.29,3.91-166.93,3.78-6.42,0-12.81-14.22-19.21-21.84l1.24-2.91c2.93.81,5.86,2.32,8.79,2.33q194.64.25,389.29,0c2.11,0,6.1-3.66,5.92-5.23-.39-3.46-2.87-9.57-4.54-9.59-43.16-.4-86.32-.11-129.48,0-39.66.07-79.32-.21-119,.13S693.06,691.3,653.3,692v-4.14c121.35.08,242.69.22,364-.21,2.42,0,4.82-6.66,7.24-10.22l-1.17-14.61-1.67-3,.06-3.39.18-7c-1.73-1.83-3.42-5.23-5.19-5.27q-172.48-4.1-345-7.67l30.29-3-15.54,1.38c5.22.45,10.45,1.32,15.66,1.27,12.32-.13,24.63-.75,36.94-1.08,98.57-2.7,197.14-6.7,295.72-7.3,30.17-.18,60.32,12.57,90.6,13.17,94,1.87,188.07.78,282.11.72,5.27,0,10.54-1.12,15.81-1.72l-16.49-2.19-292.26-.23c3.09-.8,6.18-2.31,9.27-2.3q160,.48,320.07,1.24l-28,8-7.81-.39c-3.92-.36-7.84-1-11.76-1q-130.77-.1-261.54,0c-6.74,0-13.49.88-20.23,1.35l.08-.06c-26.78-1.35-53.55-2.88-80.34-3.78-3.08-.1-6.28,3.35-9.42,5.15,3.28,1,6.82,1.55,9.78,3.15,23.77,12.81,62.62-28.85,76,21l.08,6.21-1.39,20.62Zm-240-88.24c0,.15,0,.31,0,.46q-74.38,0-148.75.1c-2.13,0-4.25,1.42-6.38,2.18,1.6.8,3.2,2.31,4.8,2.31q149.07-.24,298.14-.81c1.92,0,3.83-1.33,5.74-2-2-.73-4.08-2.09-6.12-2.1Q942,637.24,868.31,637.32Z" fill="#6a6a6a"/><path d="M591,728.94c-8.62,6.18-17.18,17.63-25.88,17.74Q383.89,749,202.65,747.76c-6.83,0-13.57-12.23-20.36-18.76Z" fill="#999"/><path d="M653.3,692c39.76-.67,79.51-1.6,119.27-1.95s79.31-.06,119-.13c43.16-.08,86.32-.37,129.48,0,1.67,0,4.15,6.12,4.54,9.59.18,1.58-3.82,5.23-5.92,5.23q-194.64.31-389.29,0c-2.93,0-5.86-1.52-8.79-2.33a8.94,8.94,0,0,1-.23-1.22c5.17-1.71,10.28-3.69,15.54-5s10.71-2.09,16.08-3.09Q653.14,692.52,653.3,692Z" fill="#292929"/><path d="M1954.07,728.56c-8.1,6.68-16.16,19.12-24.3,19.18-123.66.88-247.34.32-371-1-4.41,0-8.69-11.55-13-17.72q197.57,0,395.15,0C1945.27,729,1949.67,728.71,1954.07,728.56Z" fill="#999"/><path d="M593.4,765.82l1,3.54.79-5c10.86,3.13,21.76,9.11,32.58,9,135.53-1.83,271-5,406.58-6.68,29.57-.37,59.21,5.61,88.79,5.31,139.59-1.4,279.16-4,418.74-6.1L1546,931.15l-6.74,9.39-1.31-80.61,3.36,16.41c.6-6.39,1.56-12.76,1.73-19.16q.43-16.15,0-32.32c-.1-3.4-1.52-6.77-2.33-10.15l-3,9.74-10.73-41-376.57-.38,42.19-1.29q131.5-.65,263-1.36c1.78,0,3.55-.77,5.33-1.19a15.48,15.48,0,0,0-3.61-.94q-168.05-2.23-336.11-4.37c-8.9-2.2-18-6.75-26.68-6.16-24,1.65-47.83,6.09-71.83,8.22-25.12,2.23-50.37,3-75.56,4.52a17.79,17.79,0,0,0-3.26.81,31.35,31.35,0,0,0,3.2.38q38.83.75,77.66,1.47-203.9.06-407.8.23c-3,0-5.92,1.5-8.88,2.29-2.64,2.19-7.48,4.29-7.57,6.58-1.35,32.17-2.05,64.37-2.91,96.56l-4.28,4.41-1-3q-.05-43.55-.1-87.1Z" fill="#484848"/><path d="M1483.74,587.22l.11,94.35-1.54,6.39c0-31.29.24-62.58-.29-93.86,0-2.72-5.08-7.7-7.79-7.7q-410.52-.5-821.05-.27.74-57.43,1.48-114.86L656,444.46c3.89-1.27,7.79-3.7,11.66-3.65q195.74,2.36,391.47,5.15h18.52c30.95-1.72,61.89-4.67,92.85-4.93q128.25-1,256.51.07c17.57.16,35.1,4.86,52.65,7.47l1.11,4.1Q1482.25,519.95,1483.74,587.22ZM827.63,561.73c1.55-11.48,3.56-22.91,4.56-34.43,1.93-22.23-7.19-31-30.7-29.24-30.42,2.21-61.14,0-91.71.79-11,.27-30.93,2.35-31.35,5.6-2.5,19.34-.48,39.27,0,59,3.22,1.83,6.43,5.22,9.67,5.25,42.87.36,85.74.42,128.6-.07C820.38,568.58,824,564.13,827.63,561.73Z" fill="#666"/><path d="M1474.34,315l1.21,2.76c7.49,1.29,15.07,2.2,22.42,4,4,1,7.55,3.5,11.31,5.33-3.56,1.65-7.45,5.2-10.61,4.63-20.48-3.69-24,6.4-21.71,23.77,1.59,11.92,1.08,24.12,1.5,36.2,5.35,35.71-23,21-36,21.25-96.27,1.46-192.58.95-288.87.79-13.43,0-26.87-1.46-40.3-2.24l-2.69-44.87c-15.29-8-30.57-22-45.88-22.07-13.36,0-26.75,15.78-40.12,24.59l-2.48,39.72c-6.28,1.77-12.57,5.09-18.84,5.07-82.41-.19-164.82-1.17-247.23-1.23-33,0-65.92,1.73-98.87,2.68.39-19.57-.61-39.3,1.57-58.67,2.23-19.75-3-28.79-24-25-2.31.42-5.33-3.11-8-4.81,2.88-1.76,5.54-4.2,8.67-5.16,8.19-2.53,16.58-4.42,24.89-6.57,13.77.43,27.55,1.2,41.32,1.23q127.28.26,254.56.24c129,.13,258,.46,387.05.32C1386.91,316.93,1430.62,315.71,1474.34,315Z" fill="#131313"/><path d="M1474.34,315c-43.71.69-87.43,1.91-131.14,2-129,.14-258-.19-387.05-.32q-127.28-.12-254.56-.24c-13.78,0-27.55-.8-41.32-1.23a5.59,5.59,0,0,0-.7-.35l10.83-18.28q394.47,0,788.94.68c5,0,10,9,15,13.78Q1474.35,313,1474.34,315Z" fill="#434343"/><path d="M1113.28,411.52c13.43.78,26.86,2.22,40.3,2.24,96.29.15,192.6.67,288.87-.79,13-.2,41.36,14.46,36-21.25l1.3,8.09q.06,12.49.11,25-.12,11.9-.23,23.79c-17.55-2.61-35.08-7.31-52.65-7.47q-128.25-1.16-256.51-.07c-31,.25-61.9,3.21-92.85,4.93l-4-8,13.22-15.9,11.2,6.42,3.4-19.49Z" fill="#3d3d3d"/><path d="M1479.76,399.81l-1.3-8.09c-.42-12.08.09-24.28-1.5-36.2-2.32-17.38,1.22-27.46,21.71-23.77,3.16.57,7.05-3,10.61-4.63-3.76-1.83-7.34-4.35-11.31-5.33-7.36-1.81-14.94-2.72-22.42-4,12.1-1.9,24.17-4.71,36.31-5.09,3.14-.1,9.07,7.26,9.35,11.48,1.36,20.12,5.86,41.95-.35,59.84C1517.75,393,1494.11,394.77,1479.76,399.81Z" fill="#575757"/><path d="M1512.65,434.08c-12.15,3.61-35.56-12.12-31.9,18.6l-1.11-4.1q.12-11.89.23-23.79c8.67-2.61,17.25-6.21,26.08-7C1507.7,417.65,1510.4,428.37,1512.65,434.08Z" fill="#bcbcbc"/><path d="M1482.31,688l1.54-6.39,32.69,3.85-34,6.27Q1482.42,689.83,1482.31,688Z" fill="#d5d5d5"/><path d="M1999.27,790.84c0,43.77.09,87.55-.2,131.32,0,2.88-2.91,5.75-4.47,8.62-1.5-2.95-4.34-5.91-4.31-8.84q.87-82.73,2.48-165.45c0-1.6,1.86-3.16,2.85-4.74,1.65,2,4.62,4,4.71,6.09.48,11,.22,22,.22,33Z" fill="#9f9f9f"/><path d="M1543.53,751.44l2.21-1.38q195.9.15,391.8.33c4.38,0,8.76.52,13.13.8l-.46.31Z" fill="#c4c4c4"/><path d="M1482.31,688q.1,1.86.21,3.72c6.38,1.48,12.74,3,19.13,4.43,4.18.93,8.4,1.73,12.6,2.58-4.47,2.07-8.93,5.92-13.41,5.94-78.58.39-157.17.3-235.75.33-47.77,0-95.54.25-143.3-.29-4.12,0-8.18-5.17-12.27-7.94l1.39-20.62c4.57-.48,9.15-1.37,13.72-1.36q161.12.44,322.25,1.05c8.78-4.73,20.53-7.5,25.4-14.83,3.87-5.83,2.57-20.51-2.3-25.35-6.19-6.15-18.22-6.8-28-8.71-2-.39-5,4.14-7.49,6.4l17.31,4.26-7.84-1.09q-160-.67-320.07-1.24c-3.09,0-6.18,1.5-9.27,2.3,2.77.9,5.54,2.57,8.31,2.57q142.05.23,284.11.14a37.87,37.87,0,0,0,4.41-.5l-4.57-2,16.49,2.19c-5.27.6-10.54,1.71-15.81,1.72-94,.06-188.11,1.15-282.11-.72-30.28-.6-60.44-13.35-90.6-13.17-98.58.6-197.15,4.59-295.72,7.3-12.32.34-24.63,1-36.94,1.08-5.22.06-10.44-.82-15.66-1.27l15.54-1.38c-1.54-1.9-3.26-5.57-4.6-5.43-10.06,1-22.52-.31-29.3,5.19-5.56,4.5-8.69,20.14-5.06,25.87,5.06,8,17.43,11.28,26.68,16.58,5.78,0,11.56.1,17.34.09,77.72-.1,155.44-.37,233.16-.22,28.09.06,56.17,1.16,84.26,1.78-2.41,3.55-4.81,10.21-7.24,10.22-121.34.43-242.69.29-364,.21q-.22-.58-.38-1.18L653,586l.19.11q410.53,0,821.05.27c2.72,0,7.75,5,7.79,7.7C1482.56,625.38,1482.34,656.68,1482.31,688Z" fill="#292929"/><path d="M620.22,517.3c-.08,15.38,1.6,31-.62,46.09C614.82,595.91,635.4,588.12,653,586l-.06,100.64-33-.24q-.66-43.5-1.31-87Q617.83,583,617,566.55l-7.47,10.28,1.3-55.52Z" fill="#a1a1a1"/><path d="M660.25,315.19c-8.31,2.15-16.7,4-24.89,6.57-3.12,1-5.79,3.4-8.67,5.16,2.69,1.7,5.71,5.23,8,4.81,21-3.79,26.25,5.25,24,25-2.19,19.37-1.18,39.1-1.57,58.67L656,432.68l-.45-13c-5.69-5.83-11.18-11.88-17.13-17.43-8.11-7.56-21.84-13.59-23.75-22.33-3.7-16.91-2.6-35.55.13-52.9,1.24-7.9,11.1-14.44,17.06-21.6,1.61,2.74,2.87,7.49,4.9,7.85,7.47,1.32,15.2,1.17,22.84,1.58A5.59,5.59,0,0,1,660.25,315.19Z" fill="#595959"/><path d="M655.51,419.67l.45,13q0,5.89,0,11.78l-1.32,26.81c2-23.07,2.1-44.31-31.69-33.17C620.82,409,643.44,423.67,655.51,419.67Z" fill="#cdcdcd"/><path d="M592.26,890.22l1,3,4.28-4.41,7.8,51.83q.14.48.24,1l-8.1,23.78-1.25,14.78C590.74,950.4,585.52,920.57,592.26,890.22Z" fill="#747474"/><path d="M600.65,978.7c2.92-3.11,5.23-6.81,6.28-6.48,5,1.58,9.75,4.24,14.58,6.52-1.56,2.29-3.7,6.75-4.59,6.52C611.85,983.92,607.08,981.46,600.65,978.7Z" fill="#979797"/><path d="M609.52,576.82,617,566.55q.84,16.44,1.68,32.88Z" fill="#969696"/><path d="M1064.32,1354.53c0,90.14.17,180.28-.3,270.42,0,3.26-6,9.32-9.26,9.33q-170.25.73-340.51,0c-3.21,0-9.15-6.13-9.18-9.44-.91-100.26-1.23-200.52-1.65-300.78,4.78-8,8.45-21.86,14.54-23,16.87-3.21,34.75-1.15,52.23-1.19a24.55,24.55,0,0,0,2.7-.33c17.06-2,34.07-4.65,51.18-5.58,10.47-.57,21.09,1.47,31.63,2.52,9.06.9,18.1,2.07,27.14,3.11a41.87,41.87,0,0,0-2.09,5.64c-.15.63.89,2.22,1.42,2.23,7.49.23,15,.26,22.49.34-1.73-1.45-3.54-2.8-5.16-4.36-2.4-2.32-4.67-4.78-7-7.18,2.84-.3,6.05-1.56,8.42-.64s3.43,5,5.78,6a217.28,217.28,0,0,0,24.81,8.3c10.86,2.87,22.22,4.09,32.8,7.69,10.32,3.51,19.6,10.44,30,13.1,3.55.9,13.16-6.45,13.35-10.36,2-39.73,2.64-79.52,3.66-119.3q1.31,91.37,2.61,182.75c.13,23.14.06,46.28.61,69.41.07,3.06,3.24,6,5,9.06,2-2.55,5.62-5.09,5.64-7.67q1.44-133.2,1.9-266.41c0-3.74-5-7.49-7.71-11.24l-6.62,10.84-2.42.37c.2-7.47-.79-15.23,1-22.31,1.43-5.76,6.16-10.7,9.42-16,2.85,5.21,7.89,10.31,8.18,15.66,1.19,22.37,1,44.82,1.24,67.25,0,61.85-.11,123.69.15,185.54,0,2,3.07,5.08,5.34,5.9,24.78,8.91,22.07-11.15,24.27-24.3C1062.42,1384.9,1062.94,1369.64,1064.32,1354.53Z" fill="#303030"/><path d="M1432.06,1420.56c-.43,67.61-.57,135.23-2,202.81-.08,3.85-10.9,10.69-16.76,10.73q-167.53,1-335.07.12c-2.4,0-6.83-6.54-6.84-10-.37-90.76-.29-181.52-.28-272.29,10.12,22.21-10.49,57.65,29,67.42,1.51.37,2.21,4.06,3.29,6.2.66-2.56,1.9-5.12,1.91-7.69q.17-87.91.09-175.83l1.35-40.94c.52,2.46,1.48,4.92,1.49,7.38q.24,111.72.38,223.44c0,1.6,1.29,3.19,2,4.79q.1,10.45.2,20.89l-3.81,7.07c-.52-4.11-1.09-8.21-1.55-12.33-.72-6.49-1.37-13-2-19.48.06,6.19.35,12.39.12,18.57-.23,5.91-2.45,12.13-1.22,17.63,2.26,10.11,6.24,19.87,10.16,29.52.29.72,8.43-.56,8.45-1.08.53-13.28.47-26.58.51-39.87,1-88.54,2.14-177.08,2.68-265.63,0-5-4.8-10-7.36-15l-7.43,12.06a3.74,3.74,0,0,1-1.26,0c-.53-5.9-2.51-12.14-1.24-17.62,1.72-7.44,5.92-14.31,9.05-21.43,3.17,7.14,8.58,14.13,9.08,21.46,1.59,23,1.34,46.14,1.8,69.22q0,82.92,0,165.84c0,2.74.78,5.48,1.28,8.2,0,0,1.56,0,1.7-.28,1.6-3.38,3-6.87,4.6-10.22.71-1.45,2.08-3.85,2.91-3.75,5.5.66,11,2.88,16.36,2.39,2.06-.19,2.83-7.9,5.53-9.06,8.73-3.75,18.05-6.14,27.2-8.87,16-4.79,32.1-9.45,48.15-14.15,3.33-1,6.67-1.92,10-2.88a98.94,98.94,0,0,1-9.67-3.83c-2.18-1.12-4-3-5.93-4.56,2.6-.13,5.71-1.25,7.72-.21,6.61,3.4,13.1,11.22,19.14,10.77,18-1.34,35.71-5.64,53.46-9.21,3.72-.75,7.06-3.35,10.58-5.1a49.29,49.29,0,0,1-2.25,7.27c-.75,1.58-2.35,2.74-3.58,4.09,2.9,1.17,5.73,2.78,8.74,3.27,1,.17,2.47-2.54,3.83-3.83,2.64-2.52,5.41-7.15,8-7.07,15.48.47,31,1.65,46.38,3.34,14.39,1.58,35.92-.79,41.38,7.3C1431.08,1383.1,1429.34,1403.34,1432.06,1420.56Z" fill="#2f2f2f"/><path d="M1011.37,1201c-1,39.78-1.65,79.57-3.66,119.3-.2,3.91-9.81,11.26-13.35,10.36-10.44-2.65-19.72-9.58-30-13.1-10.58-3.6-21.94-4.83-32.8-7.69a217.28,217.28,0,0,1-24.81-8.3c-2.35-.93-3.44-5.06-5.78-6s-5.58.33-8.42.64c2.32,2.4,4.59,4.86,7,7.18,1.62,1.56,3.43,2.91,5.16,4.36-7.5-.08-15-.11-22.49-.34-.53,0-1.57-1.6-1.42-2.23a41.87,41.87,0,0,1,2.09-5.64c-9-1-18.08-2.21-27.14-3.11-10.54-1-21.16-3.09-31.63-2.52-17.11.93-34.13,3.63-51.18,5.58a24.55,24.55,0,0,1-2.7.33c-17.48,0-35.35-2-52.23,1.19-6.09,1.16-9.76,15-14.54,23q-.67-104.5-1.33-209c.89-3.94.68-8.68,2.86-11.69,7-9.66,13.7-24.82,22.75-26.64,18.35-3.67,38.17.32,57.39.53,7.29.08,14.75-2.9,21.86-2.09,10.95,1.24,21.63,4.77,32.54,6.66,1.22.21,3.4-5.83,4.77-5.68,11.9,1.31,23.7,4.79,35.55,4.88,17.37.13,34.81-3.37,52.13-2.76,14.13.5,28.07,6.35,42.21,6.94,19.76.82,39.62-1.07,59.45-1.66.9,0,1.86,1.31,2.76,2.06,4.2,3.48,8.09,9,12.69,9.7,2.74.41,9.16-6.56,9.56-10.64,2.6-26.39,4-52.89,5.78-79.35.45,5,1.33,9.92,1.29,14.88q-.51,71.24-1.28,142.48c.16,12.53,2.27,25.42,0,37.48-2.52,13.14-8.57,25.78-14.77,37.76-.66,1.28-12.67-3.33-19.42-5.2-.29-22.42-.05-44.87-1.24-67.25-.28-5.35-5.33-10.45-8.18-15.66-3.26,5.3-8,10.24-9.42,16-1.76,7.08-.77,14.84-1,22.31Z" fill="#141414"/><path d="M1432.06,1420.56c-2.72-17.22-1-37.46-9.81-50.56-5.46-8.09-27-5.72-41.38-7.3-15.41-1.69-30.9-2.87-46.38-3.34-2.6-.08-5.38,4.55-8,7.07-1.35,1.29-2.79,4-3.83,3.83-3-.48-5.84-2.1-8.74-3.27,1.22-1.35,2.83-2.52,3.58-4.09a49.29,49.29,0,0,0,2.25-7.27c-3.52,1.75-6.86,4.35-10.58,5.1-17.75,3.58-35.51,7.87-53.46,9.21-6,.45-12.53-7.37-19.14-10.77-2-1-5.12.08-7.72.21,2,1.55,3.75,3.44,5.93,4.56a98.94,98.94,0,0,0,9.67,3.83c-3.34,1-6.68,1.9-10,2.88-16.05,4.71-32.12,9.36-48.15,14.15-9.15,2.73-18.47,5.13-27.2,8.87-2.7,1.16-3.46,8.88-5.53,9.06-5.32.49-10.85-1.74-16.36-2.39-.83-.1-2.2,2.31-2.91,3.75-1.65,3.35-3,6.84-4.6,10.22-.15.31-1.7.3-1.7.28-.5-2.72-1.28-5.46-1.28-8.2q-.08-82.92,0-165.84c9.89-7.84,19.19-16.65,29.88-23.21,8.06-4.94,18-6.79,26.89-10.41,7.51-3,14.51-7.77,22.25-9.73,8.28-2.1,17.52-.58,25.68-2.92,9.08-2.6,17.35-11,26.1-11.19,21.14-.48,42.36,3.54,63.53,3.42,13.44-.08,26.77-5.09,40.3-6.44,7.43-.74,15.16,2.26,22.75,2.23,8.9,0,17.8-1.54,26.7-2.4-4.4,2.68-9,5.13-13.12,8.13-2.38,1.71-4.11,4.32-6.13,6.52,11.37.42,22.81,1.6,34.06.59,2-.18,4.11-9.19,4.75-14.31,1.46-11.7,2-23.51,3-35.28q0,132-.06,263.94C1433.25,1413.19,1432.48,1416.87,1432.06,1420.56Z" fill="#1e1e1e"/><path d="M1433.31,1145.56c-.94,11.76-1.52,23.58-3,35.28-.64,5.11-2.7,14.12-4.75,14.31-11.25,1-22.69-.16-34.06-.59,2-2.2,3.75-4.81,6.13-6.52,4.17-3,8.73-5.45,13.12-8.13-8.9.87-17.8,2.37-26.7,2.4-7.59,0-15.32-3-22.75-2.23-13.53,1.35-26.86,6.36-40.3,6.44-21.17.13-42.39-3.89-63.53-3.42-8.75.2-17,8.58-26.1,11.19-8.17,2.34-17.4.83-25.68,2.92-7.74,2-14.74,6.68-22.25,9.73-8.93,3.62-18.84,5.47-26.89,10.41-10.68,6.56-20,15.37-29.88,23.21-.46-23.08-.2-46.22-1.79-69.22-.51-7.33-5.92-14.31-9.08-21.46-3.14,7.12-7.34,14-9.05,21.43-1.27,5.49.71,11.72,1.24,17.62l-1.29,12.11-1.35,40.94c-2.62.06-5.29.43-7.86.07-1.37-.19-2.56-1.65-3.83-2.53l3.92-3.55c-6.37-1.71-12.71-3.61-19.17-4.87-.75-.15-3,3.11-3.19,4.94-1.6,14.32-2.86,28.67-4.23,43l-1.32,0-3.93-104.48c2.15-8,5.74-16,6.16-24.13,1-18.79.38-37.67.43-56.5,1-5.36,2.23-15.41,3-15.38,16.27.76,32.47,3,48.73,4.23,19.74,1.46,39.57,1.88,59.3,3.44,8.58.68,17,4.41,25.52,4.39,9.8,0,19.55-3,29.39-4,13.18-1.42,26.42-2.85,39.66-3.21q43.68-1.2,87.39-1.21c15.75,0,32.47-1.73,46.9,3,9.66,3.16,16.63,22.08,21.11-3.12Q1433.32,1113.79,1433.31,1145.56Z" fill="#141414"/><path d="M1433.32,1082c-4.48,25.2-11.45,6.28-21.11,3.12-14.43-4.72-31.15-3-46.9-3q-43.7,0-87.39,1.21c-13.24.36-26.47,1.79-39.66,3.21-9.84,1.06-19.6,4-29.39,4-8.5,0-16.94-3.71-25.52-4.39-19.73-1.57-39.56-2-59.3-3.44-16.27-1.21-32.46-3.46-48.73-4.23-.75,0-2,10-3,15.38.12-28.11.11-56.22.72-84.32,0-1.48,5.35-4.09,8.22-4.09q171.9-.31,343.8.18c2.76,0,7.81,5.31,7.9,8.26C1433.63,1036.61,1433.33,1059.32,1433.32,1082Z" fill="#111"/><path d="M1064.4,1005.29c-1.79,26.46-3.18,53-5.78,79.35-.4,4.08-6.82,11-9.56,10.64-4.61-.68-8.49-6.22-12.69-9.7-.9-.75-1.86-2.08-2.76-2.06-19.82.59-39.69,2.49-59.45,1.66-14.14-.59-28.08-6.44-42.21-6.94-17.32-.61-34.76,2.89-52.13,2.76-11.85-.09-23.65-3.57-35.55-4.88-1.37-.15-3.55,5.89-4.77,5.68-10.91-1.89-21.59-5.42-32.54-6.66-7.11-.81-14.57,2.17-21.86,2.09-19.22-.21-39-4.2-57.39-.53-9.06,1.81-15.73,17-22.75,26.64-2.18,3-2,7.74-2.86,11.69.26-34.59.36-69.18,1.2-103.75.05-2.07,6.09-5.73,9.35-5.74Q888.52,1005.1,1064.4,1005.29Z" fill="#111"/><path d="M1380.38,1671.72l-5.21.11q-331.74,0-663.48-.51c-4.11,0-8.21-6.54-12.31-10q.11-9.82.23-19.65l7.73-.35c4.84.09,9.69.25,14.53.25q346.95.06,693.89.13a67.88,67.88,0,0,1,7.06.72c-.11.37-.11.9-.36,1.07Q1401.44,1657.62,1380.38,1671.72Z" fill="#6e6e6e"/><path d="M696.87,995.82c17.79-5.26,35.29-13.21,53.43-15.12,25.18-2.65,50.85-1.09,76.3-.73,20.24.29,40.47,2.18,60.7,2.12,24.17-.08,48.33-2.26,72.49-2.12,38,.22,76.06,2.3,114.08,2.27,24.55,0,49.11-3.46,73.66-3.4,29.92.08,59.84,2.82,89.77,3.24,14.5.2,29-3,43.56-3.37,21.18-.55,42.39-.18,63.58.25q37.51.75,75,2.46c3,.14,5.92,3.41,8.94,5.13,3.49,2,7,3.87,10.57,5.79.79-3,1-8.2,2.47-8.62,12.5-3.5,25.24-8.3,37.93-8.35,11.13,0,22.29,5.55,33.43,8.65,7.88,1.07,21.07-.22,22.77,3.61,10.7,24-8,47.24-33,51.53-29,5-74.22-3-60.16,53,.33,1.3-.7,2.94-1.09,4.42q0-33.71-.06-67.42l-1.29-33-743.19-.07Z" fill="#484848"/><path d="M1065.75,1174.54l3.93,104.48c-1.32,11.62-3,23.22-3.85,34.87-.93,13.51-1,27.08-1.51,40.63-1.38,15.12-1.9,30.38-4.39,45.31-2.19,13.15.51,33.21-24.27,24.3-2.27-.82-5.33-3.87-5.34-5.9-.26-61.84-.18-123.69-.15-185.54,6.75,1.88,18.76,6.48,19.42,5.2,6.21-12,12.26-24.62,14.77-37.76,2.31-12.05.2-25,0-37.48Z" fill="#1f1f1f"/><path d="M1071,1279.06c1.37-14.34,2.64-28.69,4.23-43,.2-1.83,2.44-5.09,3.19-4.94,6.46,1.26,12.8,3.16,19.17,4.87l-3.92,3.55c1.27.88,2.46,2.34,3.83,2.53,2.56.36,5.23,0,7.86-.07q0,87.91-.09,175.83c0,2.56-1.25,5.13-1.91,7.69-1.08-2.14-1.77-5.83-3.29-6.2-39.48-9.77-18.88-45.21-29-67.42Q1071,1315.47,1071,1279.06Z" fill="#1f1f1f"/><path d="M1380.38,1671.72q21-14.12,42.08-28.26c.25-.17.25-.7.36-1.07a67.88,67.88,0,0,0-7.06-.72q-346.95-.09-693.89-.13c-4.84,0-9.69-.16-14.53-.25,6.11-.38,12.22-1.09,18.33-1.09,228.52-.05,457-.38,685.55.48,23.4.09,27.08-7.08,26.85-29.1-1.07-102.86.22-205.74.67-308.61.42-.06.83-.1,1.25-.12q-.57,166.18-1.11,332.35a47.71,47.71,0,0,0,.81,6.36,4.75,4.75,0,0,1,1.56-.69c28.92-1,57.85-1.92,86.75-3.31,2.46-.12,4.75-3.59,7.12-5.51-5.44,4.71-10.52,12.91-16.39,13.53-23.67,2.48-48,.08-71.27,4.34C1424.54,1654.15,1402.7,1664.22,1380.38,1671.72Z" fill="#333"/><path d="M696.77,996.07l743.19.07c-9.73.41-19.47,1.19-29.2,1.19q-342.78.11-685.56,0C715.72,997.33,706.25,996.51,696.77,996.07Z" fill="#1e1e1e"/><path d="M1440,1302.86c-.42,0-.84.07-1.25.12q.63-133.38,1.3-266.77c0-2.36.79-4.72,1.22-7.08q0,33.71.06,67.42Q1440.65,1199.7,1440,1302.86Z" fill="#111"/><path d="M1440,1302.86q.67-103.15,1.33-206.31c.39-1.48,1.42-3.12,1.09-4.42-14.06-56,31.18-48,60.16-53,24.94-4.29,43.68-27.53,33-51.53-1.71-3.83-14.89-2.53-22.77-3.61l20.65-15.45,6.09,27.72q-2.19,317.89-4.39,635.77c-2.37,1.91-4.67,5.39-7.12,5.51-28.9,1.38-57.83,2.26-86.75,3.31a4.75,4.75,0,0,0-1.56.69,47.71,47.71,0,0,1-.81-6.36Q1439.39,1469,1440,1302.86Z" fill="#696969"/><path d="M1363,938.48c-9.4,8.17-18.67,16.5-28.3,24.4a13.86,13.86,0,0,1-8.23,2.63c-207.05.12-414.1.61-621.15-.56-24.25-.14-48.32-10.41-72.76-14-5.89-.87-13,6.09-19.43,9.65-1.55.86-2.65,2.53-4,3.83-1.13-4.92-2.77-9.81-3.13-14.79-.15-2,2.07-5.15,4-6,2.39-1.1,5.61-.44,8.47-.44q375.54,0,751.08,0c4.43,0,8.86.71,13.29,1.09l-14.16,1.45Z" fill="#484848"/><path d="M605.34,940.69l-7.8-51.84c.86-32.19,1.56-64.39,2.91-96.56.1-2.3,4.94-4.39,7.57-6.58-1.23,48.41-2.56,96.83-3.39,145.25,0,2.31,4.33,6.74,6.65,6.74q456.1.39,912.2-.07c2.63,0,7.58-3.25,7.55-4.9-1.06-49.77-2.62-99.52-4.1-149.28l10.73,41q.14,17.74.28,35.48l1.31,80.61-7.72.26-.52-.42c-2.78-.43-5.56-1.25-8.33-1.25q-454.11-.12-908.22-.07c-3,0-5.94.94-8.92,1.43Z" fill="#858585"/><path d="M605.58,941.65q-.1-.49-.24-1l.2-.19,925.47-.12.52.42c-58.34.34-116.69.95-175,1Q981,941.85,605.58,941.65Z" fill="#858585"/><path d="M699.37,1661.3c4.1,3.49,8.2,10,12.31,10q331.74.77,663.48.51c-.64,4.59-1.13,9.2-1.94,13.76-2.86,16.11-5.83,32.21-8.76,48.31l2.51-9.23q.1-7.11.21-14.23l-6.36-5.63L1342.28,1681c-1.19-.4-2.39-1.15-3.58-1.15q-205.92,0-411.84.13l-219.48-.07c-2.29,1.22-6.54,2.39-6.57,3.67-.37,14.14-.09,28.3,0,42.45v4q0,2.64,0,5.29v37l-2.59,6.81Q698.8,1720.17,699.37,1661.3Z" fill="#2e2e2e"/><path d="M1566.81,1054.26h-2.57c3.8-2.75,9.78-4.74,11.05-8.38,13.32-38.19,81.19-70.3,121.68-68.2,20.87,1.09,64.27,20,64.31-31.89-2.22,44.36-3.39,88.83-7.66,133-.74,7.6-15.17,13.48-22.36,21-4.12,4.33-5.56,11.28-9.78,15.43-3.94,3.88-9.84,6-15.14,8.2-4.51,1.9-11.26,1.46-13.68,4.61-3.71,4.84-4.55,11.88-6.63,18-.93,2.73-1.38,5.81-3,8.07-1.79,2.54-4.63,4.34-7,6.46-.53-2.34-1-4.71-1.63-7-.19-.67-1-1.16-1.53-1.73-.94,1.1-2.26,2.06-2.76,3.33-13.43,34.49-29.37,68.28-39.44,103.73-11.25,39.6-18.53,80.5-25.05,121.24-9.3,58-19.56,116.2-23,174.69-1.75,29.64,10.38,60.13,16.51,90.18,4.88,23.93,10.4,47.73,15,71.71.52,2.71-3.19,6.22-4.94,9.36-20.28-38.33-44.89-75.13-59.27-115.56-9.16-25.75-3.62-56.88-3.84-85.6-.21-27.73.65-55.47,1-83.2,2.16-60.2,3.32-120.46,6.73-180.59,3.67-64.64,9.51-129.16,14.23-193.75C1568.35,1063,1567.25,1058.63,1566.81,1054.26Z" fill="#565656"/><path d="M1761.28,945.79c0,51.9-43.43,33-64.31,31.89-40.49-2.11-108.35,30-121.68,68.2-1.27,3.64-7.25,5.63-11.05,8.38-4.86-4.67-13.87-9.3-13.92-14-.33-35.81,1.09-71.64,2-107.46l11.75-.38c59.8.05,119.61-.27,179.4.74C1749.46,933.24,1755.34,941.38,1761.28,945.79Z" fill="#454545"/><path d="M1541.88,765.84c-139.58,2.15-279.15,4.71-418.74,6.1-29.58.3-59.22-5.68-88.79-5.31-135.53,1.7-271,4.85-406.58,6.68-10.82.15-21.72-5.83-32.58-9,4.3-4.37,8.59-12.54,12.9-12.55,135-.29,269.93.37,404.9.56q196.51.27,393-.06c40.42,0,80.83-1,121.24-.52,4.87.06,9.67,6.39,14.5,9.81Q1541.82,763.72,1541.88,765.84Z" fill="#a2a2a2"/><path d="M1811,844.23c-2.27,28.72-17.8,44.92-45.66,45.21-29.87.31-47.36-17.29-48.09-46.75-.7-28.09,16.7-45.78,43.86-46.55C1791.55,795.28,1808.53,813.71,1811,844.23Zm4.9-3.87c-14.18-10.78-25.9-19.71-37.69-28.56-.5-.37-1.6.07-2.42.13a16.45,16.45,0,0,0,2.08,1.32c27.63,12.28,31.27,31.37,15.9,55.87-.54.86-1,1.77-1.48,2.66.88-.45,2.07-.68,2.58-1.4C1800.27,862.84,1805.54,855.22,1815.92,840.36Zm-62.44-31.3c-5.74,7.45-17,15.77-18.46,25.56-1.78,11.87,4.68,25,7.68,37.53.11.46,1.44.63,2.2.93a13.08,13.08,0,0,0-1.24-2.63c-17.34-22.35-11.09-45.7,15.21-56.85a19.69,19.69,0,0,0,2.65-1.65Z" fill="#595959"/><path d="M1558.76,821.43c18.2-7.07,36.29-18.86,54.64-19.29,9.69-.23,22.9,17.92,28.76,30.46,4.21,9-1.11,22.48-2.18,34-7.36,4.28-14.22,10.33-22.15,12.54-40.41,11.25-60.33-6.93-54.16-48.26.65-4.38-.19-9-.34-13.49Z" fill="#313131"/><path d="M1543.53,751.44l406.68.06c-4.25.83-8.49,2.4-12.73,2.39q-193.74-.33-387.48-.9a41.22,41.22,0,0,0-6.49,1Z" fill="#d3d3d3"/><path d="M1558.76,821.43l4.58-4.09c.15,4.5,1,9.11.34,13.49-6.17,41.33,13.74,59.51,54.16,48.26,7.93-2.21,14.79-8.26,22.15-12.54-14.46,29.33-45.14,27.9-61.73,15.89C1564.33,872.37,1564.71,842.53,1558.76,821.43Z" fill="#070707"/><path d="M1421.29,1881l22.54,10.47,21.32,10.37c-13.75-1.83-27.63-3.09-41.1-6.15C1422.11,1895.22,1422.16,1886.07,1421.29,1881Z" fill="#999"/><path d="M1465.15,1901.8l-21.32-10.37,83.57,1.56-18.73,8.81Z" fill="#575757"/><path d="M1508.67,1901.79l18.73-8.81,20.86-8.44-9.23,15.83Z" fill="#979797"/><path d="M1543.2,1667.76c33,9.68,66.27,52.73,68.51,88.52,3.62,57.76-25.79,107.92-75.14,128.12-52.3,21.41-111,6.09-144.31-37.67-35.87-47.1-35.75-98.28,6.23-147.17,15.21-17.71,40.53-26.75,61.23-39.74Zm-5.37,201.09c37.34-16.5,50.64-49.82,59.14-86,1.71-7.26-.7-15.48-1.21-23.26l-22.22,15.32c.65-21.33,9.18-46.83.52-63.25-31.07-58.88-136.18-57.76-171.27.13-6.61,10.9-9,26.24-7.83,39,.45,4.84,16.49,8.24,25.42,12.29l4.49,3.69c-3.31.93-6.67,2.84-9.92,2.64-28-1.66-36.56,4.38-27.6,36.65C1403.9,1865.72,1486.09,1902.74,1537.83,1868.84Z" fill="#444"/><path d="M1566.81,1054.26c.44,4.37,1.54,8.79,1.23,13.1-4.72,64.58-10.55,129.1-14.23,193.75-3.42,60.13-4.58,120.39-6.73,180.59q1.3-187.5,2.73-375c0-2.26,1.32-5.81,3-6.47,3.09-1.26,6.86-.86,10.34-1.15l-9.78-1.1c.37-.79.65-2.21,1.13-2.28C1558.55,1055.08,1562.68,1054.7,1566.81,1054.26Z" fill="#454545"/><path d="M1543.2,1667.76l-83.47-7.94Z" fill="#353535"/><path d="M616.41,1799.95c15.38,18.4,25.22,29.93,34.62,41.8.8,1-1.27,4.31-2,6.54a80.37,80.37,0,0,1-6.64-4.93c-8.3-7.54-16.37-21-24.75-21.21-8.73-.17-17.67,12.53-26.59,19.51-2.35,1.84-5,3.35-7.45,5-.63-2.4-2.6-5.91-1.68-7C591.09,1828.53,600.74,1817.8,616.41,1799.95Z" fill="#070707"/><path d="M582.84,1877c21,19.87,42.79,19.87,65.3,2.69-3,4.23-5.79,11.91-9.07,12.12a290.73,290.73,0,0,1-48.42-.73C587.61,1890.74,585.42,1881.88,582.84,1877Z" fill="#717171"/><path d="M1446.88,675.82q-161.12-.56-322.25-1.05c-4.57,0-9.15.89-13.72,1.36q0-3.11-.08-6.21c5.17-3.22,10.21-9,15.52-9.23,22.56-1.15,45.2-.69,67.81-.81l251.07.25,17.21,6.91ZM1221,673.29v-.14q50.52,0,101,0a24,24,0,0,0,3.21-.42,20.23,20.23,0,0,0-3.16-.51q-101-.76-202-1.41c-1.57,0-3.14.77-4.72,1.18,1.75.44,3.5,1.27,5.26,1.27Q1170.83,673.35,1221,673.29Zm165,.14.12,1.35c15.73-1.42,31.46-2.79,47.17-4.33,1.52-.15,2.94-1.34,4.4-2a27.34,27.34,0,0,0-4.34-.67c-20.51.05-41,.05-61.53.43-2.07,0-3.95,3.14-6.18,3.63-3.86.85-7.93.78-11.91,1.1,4.15.18,8.3.46,12.45.52C1372.77,673.49,1379.38,673.43,1386,673.43Z" fill="#434343"/><path d="M1024.58,677.41c-28.09-.62-56.17-1.72-84.26-1.78-77.72-.16-155.44.12-233.16.22-5.78,0-11.56-.06-17.34-.09L674.42,670l11.88-3.25c11.8-.87,23.59-2.48,35.39-2.5q145.54-.31,291.08-.17c3.55,0,7.09-.82,10.64-1.26Zm-108.1-4.15q49.54,0,99.08,0a33.24,33.24,0,0,0,5.58-.95c-1.7-.49-3.4-1.43-5.1-1.42q-100,.6-200.06,1.39a20.75,20.75,0,0,0-3.11.49,26.23,26.23,0,0,0,3.22.39Q866.28,673.15,916.48,673.26Zm-172.68,2,.27-2.39H771q-13.84-1.08-27.68-2.15c-1.09-.08-2.2,0-3.29,0l-40.47-2.07Z" fill="#494949"/><path d="M1114.77,644.36c3.19,2.31,6.38,6.63,9.58,6.65,95.84.56,191.69.68,287.54,1,3.37,0,6.74,1.54,10.11,2.36-3.51.63-7,1.81-10.54,1.81q-143.48.06-287,0c-2.68,0-5.36.85-8,1.31,2.78.57,5.55,1.58,8.34,1.63,23.12.37,46.24.56,69.36.8-22.61.13-45.25-.34-67.81.81-5.32.27-10.36,6-15.52,9.23-13.42-49.89-52.27-8.23-76-21-3-1.6-6.51-2.13-9.78-3.15,3.14-1.8,6.34-5.25,9.42-5.15C1061.22,641.48,1088,643,1114.77,644.36Z" fill="#929292"/><path d="M667.74,651.8c88.46-.2,176.91-.27,265.37-.67,29.62-.13,59.25-1.08,88.87-1.66l-.18,7q-102.28-.14-204.55-.28-62.22-.06-124.44,0h-2.64Z" fill="#a2a2a2"/><path d="M690.17,656.2h2.64c2.11.4,4.21,1.14,6.33,1.16q161.3,1.31,322.61,2.49l1.67,3c-3.55.44-7.09,1.26-10.64,1.26q-145.54.11-291.08.17c-11.8,0-23.59,1.63-35.39,2.5-.92-2.65-2.49-5.32-2.41-7.93C683.93,657.87,688,657.06,690.17,656.2Z" fill="#292929"/><path d="M868.31,637.32q73.72,0,147.44.09c2,0,4.08,1.37,6.12,2.1-1.91.71-3.83,2-5.74,2q-149.07.56-298.14.81c-1.6,0-3.2-1.5-4.8-2.31,2.13-.76,4.25-2.17,6.38-2.18q74.38-.19,148.75-.1C868.31,637.63,868.31,637.48,868.31,637.32Z" fill="#292929"/><path d="M1406.91,637.8l4.57,2a37.87,37.87,0,0,1-4.41.5q-142.05,0-284.11-.14c-2.77,0-5.54-1.68-8.31-2.57Z" fill="#090909"/><path d="M690.17,656.2c-2.21.87-6.24,1.67-6.27,2.61-.09,2.61,1.49,5.28,2.41,7.93L674.42,670l15.39,5.77c-9.24-5.3-21.62-8.62-26.68-16.58-3.63-5.72-.5-21.36,5.06-25.87,6.78-5.5,19.23-4.2,29.3-5.19,1.34-.13,3.06,3.53,4.6,5.43l-30.29,3-4.07,15.27Z" fill="#979797"/><path d="M1408.22,644.12l-293.53.29c6.74-.47,13.49-1.34,20.23-1.35q130.77-.13,261.54,0C1400.38,643.08,1404.3,643.76,1408.22,644.12Z" fill="#929292"/><path d="M1467.32,648.58c-14.72-1-29.45-2-44.17-3-2.38-.17-4.74-.68-7.11-1l28-8,7.84,1.09,16.23,10.35Z" fill="#aaa"/><path d="M301,762.83c2.88,3.72,8.69,8.19,8,10.93-1.45,5.49-5.59,11.56-10.39,14.33-2.47,1.42-8.74-3.74-13.29-5.92,3.41-.78,6.85-1.42,10.21-2.36,4.09-1.15,8.11-2.56,12.16-3.85-3.94-2.51-7.84-5.1-11.84-7.49a20.13,20.13,0,0,0-4.14-1.4Z" fill="#5b5b5b"/><path d="M1150.36,783.07l-38.16.25c-13.22,7.74-26.15,16.06-39.82,22.9-5,2.49-13.33,4-17.33,1.54-11-6.88-20.41-16.14-30.45-24.46l.1-.12q-38.83-.73-77.66-1.47a31.35,31.35,0,0,1-3.2-.38,17.79,17.79,0,0,1,3.26-.81c25.19-1.47,50.44-2.29,75.56-4.52,24-2.13,47.81-6.57,71.83-8.22,8.71-.6,17.77,4,26.68,6.16l71.38,7.85Z" fill="#292929"/><path d="M1192.55,781.79l-71.38-7.85q168.05,2.17,336.11,4.37a15.48,15.48,0,0,1,3.61.94c-1.78.41-3.55,1.18-5.33,1.19Q1324.06,781.17,1192.55,781.79Z" fill="#444"/><path d="M1537.94,859.93q-.14-17.74-.28-35.48l3-9.74c.82,3.38,2.24,6.75,2.33,10.15q.46,16.15,0,32.32c-.17,6.4-1.13,12.77-1.73,19.16Z" fill="#444"/><path d="M656,444.46q0-5.89,0-11.78l1.2-17.27c33-.95,65.92-2.7,98.87-2.68,82.41.06,164.82,1,247.23,1.23,6.28,0,12.56-3.3,18.84-5.07,1.11,3.95,1.58,8.23,3.47,11.75,2.75,5.12,6.52,9.7,9.85,14.5l2.39-6.37,12.06,1.24,11.92,7.95-2.7,8q-195.73-2.66-391.47-5.15C663.76,440.77,659.86,443.19,656,444.46Z" fill="#3b3b3b"/><path d="M678.45,563.44l149.18-1.72c-3.64,2.4-7.25,6.86-10.91,6.9-42.86.49-85.73.43-128.6.07C684.88,568.67,681.68,565.27,678.45,563.44Z" fill="#333"/><path d="M1059.11,446l2.7-8c0-2.08-.6-4.54.27-6.17,1.47-2.72,3.91-4.91,5.94-7.32l5.6,13.49,4,8Z" fill="#2c2c2c"/><path d="M1073.62,438l-5.6-13.49c-2,2.41-4.47,4.61-5.94,7.32-.88,1.63-.23,4.08-.27,6.17L1049.89,430c-4.25-6.69-8.48-13.4-12.86-20a7.06,7.06,0,0,0-2.81,1c1.09,5.94,2.36,11.84,3.61,17.74l-2.39,6.37c-3.33-4.81-7.11-9.38-9.85-14.5-1.89-3.52-2.36-7.81-3.47-11.75l2.48-39.72c2.59-.44,6.46.07,7.58-1.45,18.57-25.35,53.1-25.39,71.58.13.94,1.3,2.5,2.15,3.77,3.21l3.08-4.4,2.69,44.87L1101.44,409,1086.84,422Zm-39.84-39.5c-.39,1.45-1.6,3.49-1,4.26,13.56,18.93,55.56,19.51,69.79.95.53-.69-.85-2.84-1.34-4.3l2.52-7.22-12,10.69c-.17-15,5.23-34.67-2.23-43.54-6.3-7.5-27.59-3.47-42-2.18-3,.27-8.12,11.83-6.84,16.79,3,11.71,9.31,22.59,14.28,33.8-5.11-2.73-10.44-5.11-15.22-8.32-2.41-1.62-3.8-4.75-5.65-7.2Z" fill="#666"/><path d="M1086.84,422l14.6-13.07-3.4,19.49Z" fill="#2c2c2c"/><path d="M1445.24,660.13l22.08-11.55.76-.63,3.45,7.24c-.73-5.11-.26-14-2.4-14.69-11.17-3.54-23-5-34.6-7.15,2.52-2.26,5.49-6.79,7.49-6.4,9.73,1.9,21.76,2.56,28,8.71,4.87,4.84,6.17,19.52,2.3,25.35-4.87,7.33-16.62,10.09-25.4,14.83l15.56-8.79Z" fill="#aaa"/><path d="M1434.53,633.34c11.6,2.17,23.43,3.62,34.6,7.15,2.14.68,1.67,9.58,2.4,14.69l-3.45-7.24-16.23-10.35Z" fill="#6a6a6a"/><path d="M1012.79,1187.73c3.07,37.17,6.18,74.33,9.09,111.51.17,2.24-1.31,4.6-2,6.91-.55-2.2-1.51-4.38-1.6-6.59-1-27.93-1.95-55.87-2.91-83.81-.05-1.51-.3-3-.46-4.51a27.92,27.92,0,0,0-.79,4.67q-.1,83.92-.11,167.83-1.31-91.37-2.61-182.75l-1-12.89Z" fill="#c8c8c8"/><path d="M1109.26,1189c3.08,35.81,6.21,71.62,9.11,107.45.21,2.56-1.36,5.26-2.1,7.9-.54-2.39-1.48-4.77-1.57-7.18-1-27.5-1.92-55-2.92-82.5a32.93,32.93,0,0,0-1.11-5.45,31,31,0,0,0-.94,5.45q.36,111,.83,222c-.69-1.6-2-3.19-2-4.79q-.26-111.72-.38-223.44c0-2.46-1-4.92-1.49-7.38l1.29-12.11A3.74,3.74,0,0,0,1109.26,1189Z" fill="#c3c3c3"/><path d="M1110.76,1457.55l10.61,0c0,13.3,0,26.6-.51,39.87,0,.53-8.16,1.8-8.45,1.08-3.91-9.64-7.89-19.4-10.16-29.52-1.23-5.5,1-11.72,1.22-17.63.24-6.18-.06-12.38-.12-18.57.68,6.49,1.33,13,2,19.48.46,4.12,1,8.22,1.55,12.33Z" fill="#1f1f1f"/><path d="M1531,940.38l-925.47.12c3-.5,5.94-1.43,8.92-1.43q454.11-.06,908.22.07C1525.45,939.13,1528.23,939.94,1531,940.38Z" fill="#cdcdcd"/><path d="M1342.28,1681H926.9c0-.34,0-.68,0-1q205.92-.09,411.84-.13C1339.89,1679.82,1341.09,1680.57,1342.28,1681Z" fill="#cecece"/><path d="M1815.92,840.36c-10.38,14.87-15.65,22.48-21,30-.51.72-1.71.94-2.58,1.4.49-.89.94-1.8,1.48-2.66,15.37-24.51,11.73-43.6-15.9-55.87a16.45,16.45,0,0,1-2.08-1.32c.82-.06,1.93-.5,2.42-.13C1790,820.64,1801.74,829.58,1815.92,840.36Z" fill="#c1c1c1"/><path d="M1753.48,809.05l8,2.9a19.69,19.69,0,0,1-2.65,1.65c-26.31,11.15-32.55,34.5-15.21,56.85a13.08,13.08,0,0,1,1.24,2.63c-.76-.3-2.09-.47-2.2-.93-3-12.55-9.47-25.66-7.68-37.53C1736.49,824.83,1747.74,816.5,1753.48,809.05Z" fill="#a3a3a3"/><path d="M1420.38,1763.14c-8.93-4.05-25-7.46-25.43-12.29-1.18-12.78,1.22-28.12,7.83-39,35.09-57.88,140.21-59,171.27-.12,8.66,16.42.13,41.91-.52,63.25l-14.64,14.42c-1.31-4.8-4.33-9.87-3.63-14.36,2.24-14.26,5.87-28.3,9-42.43-4.75-9.94-8.47-20.61-14.78-29.43-2.4-3.36-13.65-5.31-15.92-3-11.42,11.56-21.23,24.73-31.56,37.37a41.1,41.1,0,0,0-2.43,3.69c1.37-.81,3.07-1.33,4.07-2.47,14.6-16.63,24.09-9.47,32.13,6.53,1,2,3.94,3,6,4.46-3.07,3-5.67,7.31-9.33,8.56-3.86,1.32-8.73-.29-13.15-.62l2.23-14c-5.19.59-12.77-.8-15.16,2.09-14.49,17.56-17.85,3.79-24-6.86-1.69-2.94-8.36-4.48-12.4-4-1.8.23-4.19,7.32-3.72,11,.61,4.8,4.63,9.14,5.4,14,.31,2-4.06,4.68-6.3,7.06l-1.57-9.16-16-28.92c11.07-3.15,22.61-5.36,32.73-10.41,1.64-.82-1.15-15.55-5.3-21.44-3.65-5.18-14.93-11.37-17.87-9.46-8.51,5.52-14.51,14.9-21.5,22.76L1415,1743.5l31.58,16.92Z" fill="#353535"/><path d="M1558.9,1789.36l14.64-14.42,22.22-15.32c.51,7.78,2.92,16,1.21,23.26-8.5,36.15-21.79,69.46-59.14,86,5.31-4.22,11-8,15.85-12.73,19.17-18.78,3.13-18.39-10.62-19.11,4.46-.94,10.5-.5,12.91-3.24,2-2.27.75-11.55-.92-12.11-7.62-2.52-15.89-3.06-23.93-4.31l-12.93-6.63-13.37-9.23c5.41.72,11.2,3,16.13,1.79,6.75-1.66,12.84-6,19.21-9.17-1.82-2.67-3.37-5.59-5.55-7.92-1.18-1.26-3.44-1.51-5.21-2.21a6.71,6.71,0,0,1,0,1.12q-1.39,7.56-2.8,15.11c-4.75-1.25-9.86-4.23-14.18-3.35-7.27,1.48-14,5.42-21,8.33-5.5-1.37-15.89-3.36-15.81-4,3.75-29.79-17.95-10.55-27.27-14.57-3.9-1.68-7.21-4.7-10.79-7.11,3-3.29,5.71-7,9.11-9.79,4.57-3.79,9.67-6.94,14.55-10.36l2.6-1.6,1.57,9.16c2.24-2.38,6.61-5.09,6.3-7.06-.77-4.82-4.79-9.17-5.4-14-.46-3.65,1.92-10.74,3.72-11,4-.52,10.71,1,12.4,4,6.11,10.66,9.47,24.42,24,6.86,2.39-2.9,10-1.5,15.16-2.09l-2.23,14c-1.42,4.39-4.56,12.38-4,12.64C1529.56,1777.14,1544.27,1783.18,1558.9,1789.36Z" fill="#535353"/><path d="M1543.06,1837c13.74.72,29.79.33,10.62,19.11-4.82,4.72-10.54,8.51-15.85,12.73-51.75,33.9-133.93-3.12-150.48-62.72-9-32.27-.39-38.31,27.6-36.65,3.24.19,6.61-1.71,9.92-2.64l-4.49-3.69,26.23-2.72,11.87-1.35c-3.26,2.52-6.76,4.79-9.73,7.61-5.21,5-10.1,10.25-15.12,15.4,6.12,2.29,12.17,4.79,18.38,6.75,2.57.81,5.5.45,8.27.63l-5.63,5.46-14.77,3.64c-10.88.1-21.77.06-32.65.46-1.7.06-4.44,2-4.68,3.36s1.49,3.81,2.92,5.18c15,14.31,30.07,28.5,45.13,42.73-.21,2.54-1,7.21-.56,7.33,12.84,3.48,25.75,6.87,38.84,9.16,1.59.28,4.29-5.79,6.48-8.91l1.3-3.83Z" fill="#636363"/><path d="M1221,673.29q-50.19,0-100.37-.06c-1.75,0-3.5-.83-5.26-1.27,1.57-.41,3.15-1.19,4.72-1.18q101,.63,202,1.41a20.23,20.23,0,0,1,3.16.51,24,24,0,0,1-3.21.42q-50.52,0-101,0Z" fill="#a9a9a9"/><path d="M1386,673.43c-6.61,0-13.22.06-19.82,0-4.15-.05-8.3-.34-12.45-.52,4-.31,8-.24,11.91-1.1,2.23-.49,4.11-3.59,6.18-3.63,20.51-.38,41-.38,61.53-.43a27.34,27.34,0,0,1,4.34.67c-1.47.71-2.88,1.9-4.4,2-15.71,1.54-31.45,2.91-47.17,4.33Z" fill="#858585"/><path d="M916.48,673.2q-50.2-.09-100.4-.08a26.23,26.23,0,0,1-3.22-.39,20.75,20.75,0,0,1,3.11-.49q100-.75,200.06-1.39c1.7,0,3.4.92,5.1,1.42a33.24,33.24,0,0,1-5.58.95Q966,673.31,916.48,673.2Z" fill="#a9a9a9"/><path d="M743.8,675.22l-44.24-6.63L740,670.66c1.09.06,2.2-.06,3.29,0q13.84,1.05,27.68,2.15H744.07Z" fill="#a1a1a1"/><path d="M1395,886.28a4,4,0,0,1,0,1.31q-3.25,9.67-6.57,19.31c4-3.24,9.79-5.69,11.68-9.89,4.21-9.34,6.61-19.51,9.42-29.44.62-2.2-1.14-5.74,0-7a9.21,9.21,0,0,1,7.42-2.3c1.89.38,5,4.43,4.57,5.13-10.66,18.41-17.72,43.51-33.85,52.82-15.27,8.82-43.68,7.41-59.64-1.48-12.51-7-18.9-31.88-20.42-49.48-1.27-14.75,8.43-30.45,13.28-45.72.23-.72.48-1.43.73-2.15q-6.21,4.17-12.42,8.33c-1.73,1.15-3.48,2.27-5.22,3.41,1-1.9,1.6-4.84,3.17-5.54,17.09-7.55,36.39-23.69,51.14-20.31,38.37,8.81,48.58,39.29,39.39,76.41-29.07,31.42-57.91,33.55-86.46-.69-.3-.36-1-.42-1.47-.63a32,32,0,0,0,1.32,4.28C1326.28,915.33,1368.56,917.13,1395,886.28Zm-9.07-18.78c3-6.64,7.33-13,8.63-20,.81-4.38-2.89-9.59-4.56-14.43-.08,3.71,1.38,8.88-.51,10.87-9.61,10.1-20,26.86-30.3,27-12.34.16-25.35-13.51-37-22.61-2.6-2-.58-10-.69-15.2l-1.42,0c.83,7.8,1.59,15.6,2.56,23.38.15,1.2,1.27,2.28,1.94,3.41-.62,2.15-2.46,5-1.68,6.34C1334,885.22,1373.26,885.84,1385.93,867.5Zm-31.82,38c17.26-14.45,29-24.1,40.39-34.08,1-.9.2-3.92.23-5.95a32.69,32.69,0,0,0-3.86,3.1c-19.73,21.33-55.89,19.16-72.85-4.33-1.14-1.58-3.11-2.58-4.69-3.85-.34,2.24-1.79,5.63-.85,6.53C1324.78,878.71,1337.4,890.14,1354.11,905.48Z" fill="#6a6a6a"/><path d="M1024.6,783.3c10,8.32,19.5,17.58,30.45,24.46,4,2.51,12.36.95,17.33-1.54,13.67-6.84,26.6-15.16,39.82-22.9-14.88,22.32-5.44,43.81.8,66.16,2.68,9.59-1,21-1.84,31.54-36.82,31.28-53.65,30.55-87.95-3.82,2.24-17.19,4.44-34.39,6.79-51.56.19-1.37,1.38-2.6,2.11-3.89-1.44.72-2.94,1.35-4.32,2.18-2.94,1.78-5.81,3.67-8.72,5.51,2.46-2.87,7-5.71,7-8.63C1026.31,808.32,1025.22,795.8,1024.6,783.3Zm75.46,83.27c1.69-9.37,3.63-18.71,4.92-28.13.34-2.47-1.34-5.22-2.09-7.84,0,2.45.94,5.74-.28,7.2-9.91,11.87-19.08,31-30.76,32.81-11.08,1.67-25.41-14.43-37.18-24.09-2.49-2,0-10,0-15.31,0-.42-1.46-.83-2.25-1.24.64,8.11,1.14,16.24,2,24.33.2,1.86,1.6,3.59,2.44,5.38-.21,2.51-1.54,5.77-.45,7.43C1048.63,885.76,1087.83,885.29,1100.06,866.57Zm-32.39,40.29c18.1-16.46,30.16-27.32,42-38.44.79-.74-.32-3.48-.54-5.29a14.76,14.76,0,0,0-2.91,2.11c-21,24.94-56.72,24.06-75.86-1.86-.79-1.07-2.2-1.68-3.31-2.5-.26,1.66-1.36,4.15-.65,4.87C1038.3,877.88,1050.45,889.81,1067.67,906.86Z" fill="#6a6a6a"/><path d="M740.84,883.05q.86-27.89,1.76-55.79a9.82,9.82,0,0,1,1.12-2.93c-.38,0-.86-.12-1.12.06-2.44,1.7-4.85,3.46-7.26,5.19-.21-.36-.67-1-.6-1,3.19-3.22,5.88-7.62,9.75-9.35,13.91-6.22,30-18.76,42-15.82,34.24,8.36,45.86,35.68,42.52,69.7-33,36.65-58.95,39.82-87.24,10.64A11.17,11.17,0,0,0,740.84,883.05Zm8.81-23.2c-.43,2.32-1.66,6.48-1.17,6.7,11.63,5.07,23.4,13.19,35.24,13.34,9.71.12,19.55-9.34,29.33-14.55,1.71-7,3.73-14,5-21.17.43-2.49-1.08-5.31-1.7-8-.19,2.33.55,5.58-.7,6.86-10,10.13-19.55,26.56-30.8,27.89s-25.1-11.57-36.21-20.27c-3.33-2.61-1.33-12-1.77-18.34-.82,7.19-2,14.37-2.18,21.57C744.62,855.84,747.9,857.86,749.65,859.85ZM783.82,909c17.58-20.49,29.68-34.51,41.6-48.68.57-.68-.39-2.65-.63-4a15.64,15.64,0,0,0-2.47,2.61c-17.26,29.59-56.33,32.92-77.42,6.61-1-1.26-2.58-2.08-3.89-3.1-.27,1.77-1.43,4.44-.69,5.17C752,879,764,890.24,783.82,909Z" fill="#707070"/><path d="M827.55,879.61c-4.76,13.27-6.48,35.37-14.82,38.26-32.66,11.27-64.51,10.68-71.89-34.82.33.21.65.44,1,.68,12.06,8.26,25.52,24.71,35.89,23C795.33,903.69,811,889.25,827.55,879.61Z" fill="#707070"/><path d="M1110.65,884.95c-4.41,11.39-6.15,30.18-13.69,32.9-34.16,12.32-64.26,8.89-72.14-35.56C1051.88,917.12,1080.61,918,1110.65,884.95Z" fill="#696969"/><path d="M638.16,798.44c7.08-2,14.24-5.73,21.22-5.42,5.45.24,10.69,5.5,16,8.53-6.25,9.32-10.7,23.37-19.25,26.61s-21-4.55-31.78-7.5Zm.83,10.26c4.21,5.57,8.11,10.95,12.31,16.08.67.82,2.69.54,4.08.77-1.29-3.95-2.31-8-4-11.82-2.09-4.82-4.7-9.41-7.09-14.1l7.41-3.17c-1.94-.43-5.19-1.76-5.6-1.15C643.74,798.85,642,802.84,639,808.71Z" fill="#858585"/><path d="M1495,781.73c7,11.73,14.07,18.3,13.22,23.58-1,6.14-8.95,11.15-13.88,16.66-4.89-5.45-13.15-10.57-13.7-16.43C1480.05,799.86,1487.44,793.44,1495,781.73Zm8.07,3.13-16.83,15.3c2.78,2.55,5.44,7,8.36,7.15s8.22-3.1,9.12-5.93C1505,797.1,1503.49,791.91,1503,784.86Z" fill="#5f5f5f"/><path d="M827.55,879.61c-16.52,9.63-32.22,24.07-49.87,27.07-10.37,1.76-23.82-14.69-35.89-23,28.3,29.18,54.28,26,87.24-10.64Z" fill="#191919"/><path d="M1395,886.28c-26.43,30.85-68.71,29.05-83.89-3.59a32,32,0,0,1-1.32-4.28c.5.2,1.17.26,1.47.63,28.56,34.24,57.39,32.11,86.46.69Z" fill="#1a1a1a"/><path d="M1110.65,884.95c-30,33.06-58.76,32.17-85.83-2.66l-1.61-5.1c34.3,34.37,51.12,35.1,87.95,3.82Z" fill="#1b1b1b"/><path d="M1502.09,847.46c-14.87-13.08-19.74-16.92-23.93-21.41-.88-.94.77-4.25,1.26-6.46,3.55,1.68,7,4.36,10.69,4.81,6.48.79,13.13.21,19.7.2Z" fill="#7e7e7e"/><path d="M1287.54,877.06c-4.74-5.7-10.37-9.73-9.8-12.47.78-3.76,6.33-9.11,9.73-9,3.7.08,9.2,5.08,10.23,8.92C1298.36,867,1292.47,871.25,1287.54,877.06Z" fill="#555"/><path d="M843.49,853.71c4.7,5.77,8.53,8.8,8,10.11-3.57,9.07-8,17.79-12.24,26.61-1.06-.83-3.14-1.86-3-2.46C838.22,877.83,840.46,867.74,843.49,853.71Z" fill="#6c6c6c"/><path d="M1134.1,878.82l-25.2,31.11a21,21,0,0,1-2.5-2.13c7.61-12,15.36-24,23.09-35.91Z" fill="#3a3a3a"/><path d="M717.06,877.5c-4.62-6.1-10.05-10.45-9.3-12.93,1.14-3.76,6.47-8.4,10.21-8.58,3.32-.16,9.79,5.39,9.67,8.18C727.47,867.88,722.26,871.37,717.06,877.5Zm1.73-14.85,2.69,7.43c1.46-1.75,4.46-4.59,4.13-5.07-2-2.85-4.86-7.2-7.31-7.12-3.09.1-6.27,3.74-8.9,6.37-.44.44,1.75,3.5,2.72,5.35.14-1.14-.14-2.82.49-3.31a20.09,20.09,0,0,1,6.33-3.36C719.58,862.74,720.89,864.87,718.79,862.64Z" fill="#525252"/><path d="M999.44,861.59l6.67,3.36-4.36,5.57c-1.46-1.35-3.65-2.47-4.16-4.12C997.17,865.07,998.79,863.12,999.44,861.59Z" fill="#535353"/><path d="M1037.83,428.77c-1.25-5.91-2.52-11.81-3.61-17.74a7.06,7.06,0,0,1,2.81-1c4.39,6.6,8.61,13.31,12.86,20Z" fill="#2c2c2c"/><path d="M752.07,563.34c-16.73,0-33.72-1.91-50.11.43-25.38,3.62-27.62-11-26.67-29.43.9-17.43-2.87-36.5,26.92-34.12,33.9,2.71,68.29-.9,102.21,1.67,8.89.67,22.22,12.89,24.14,21.81,5.31,24.67,1.41,45.83-33.64,40C781,561.42,766.38,563.35,752.07,563.34Zm.22-3.15c17.85,0,35.85-1.49,53.5.35,26,2.72,22.05-16.66,19.85-29-1.79-10.05-11.33-24.44-19.85-26.39-17.79-4.08-37.19-1.65-55.87-.71-2.49.12-7,7.4-6.49,10.81,1.26,9.11,5.59,17.79,6.81,26.9.44,3.31-4.48,7.34-7,11-2.22-3.65-6.91-7.81-6.28-10.87,6.74-32.67-6.2-47.08-37.95-37.33-9,2.76-18.66,18.29-19.3,28.51-.53,8.49,10.38,23.58,18.61,25.5C715.51,563,734.23,560.24,752.29,560.19Z" fill="#333"/><path d="M1101.18,399.36c.49,1.47,1.87,3.62,1.34,4.3-14.23,18.56-56.23,18-69.79-.95-.55-.77.66-2.81,1-4.26C1056,419.25,1078.43,420,1101.18,399.36Z" fill="#090909"/><path d="M1541.74,1749.71c-2-1.46-5-2.47-6-4.46-8-16-17.53-23.16-32.13-6.53-1,1.14-2.7,1.66-4.07,2.47a41.1,41.1,0,0,1,2.43-3.69c10.34-12.63,20.14-25.8,31.56-37.37,2.27-2.3,13.51-.34,15.92,3,6.31,8.82,10,19.5,14.78,29.43Z" fill="#535353"/><path d="M1435.86,1710.26c7-7.86,13-17.24,21.5-22.76,2.95-1.91,14.22,4.28,17.87,9.46,4.15,5.89,6.94,20.62,5.3,21.44-10.12,5-21.66,7.25-32.73,10.41Z" fill="#4f4f4f"/><path d="M1435.86,1710.26l11.95,18.54,16,28.92-2.6,1.59-2.69-.26-11.87,1.35L1415,1743.5Z" fill="#1f1f1f"/><path d="M1541.74,1749.71l22.5-17.13c-3.09,14.13-6.72,28.17-9,42.43-.71,4.49,2.31,9.56,3.63,14.36-14.64-6.18-29.34-12.23-43.66-19.07-.55-.26,2.59-8.25,4-12.64,4.43.33,9.29,1.94,13.15.62C1536.07,1757,1538.67,1752.69,1541.74,1749.71Z" fill="#222"/><path d="M1458.48,1759.07l2.69.26c-4.87,3.43-10,6.57-14.55,10.36-3.4,2.83-6.1,6.49-9.11,9.79,3.58,2.41,6.9,5.43,10.79,7.11,9.33,4,31-15.22,27.27,14.57-.08.67,10.3,2.66,15.81,4l-13.61,18.45c-1.75-5.49-3.47-11-5.27-16.46-1.08-3.28-2.29-6.51-3.43-9.77-1.43,1.83-3.54,3.45-4.19,5.53-4.92,15.73-9.55,31.54-14.27,47.33-15.06-14.22-30.15-28.42-45.13-42.72-1.43-1.37-3.18-3.64-2.92-5.18s3-3.3,4.68-3.36c10.87-.4,21.76-.35,32.65-.46,0,3.13-1.17,7.85.37,9,2.94,2.28,7.44,2.56,11.29,3.67l3.1-16.35,5.63-5.46c-2.77-.17-5.7.18-8.27-.63-6.22-2-12.27-4.47-18.38-6.75,5-5.15,9.91-10.44,15.13-15.4C1451.72,1763.85,1455.22,1761.58,1458.48,1759.07Z" fill="#353535"/><path d="M1469.06,1797.42c1.15,3.25,2.36,6.49,3.43,9.77,1.8,5.47,3.52,11,5.27,16.46l13.61-18.45c7-2.91,13.75-6.84,21-8.33,4.32-.88,9.43,2.1,14.18,3.35q1.4-7.55,2.8-15.11a6.71,6.71,0,0,0,0-1.12c1.77.7,4,1,5.21,2.21,2.18,2.33,3.73,5.25,5.55,7.92-6.37,3.18-12.47,7.5-19.21,9.17-4.93,1.22-10.72-1.07-16.13-1.79l-2.79,19.94c3.93.11,8.86,1.7,11.53-.08s3.17-7,4.63-10.63l12.93,6.63c2.8,2.1,5.56,4.26,8.41,6.29,2.14,1.53,4.55,2.71,6.56,4.39,1.26,1,2,2.73,3,4.13-2.48-.37-5.5,0-7.35-1.24-29.58-20.5-29.36,16.79-45,23.1l-1.3,3.83c1.24-15.81,2.56-31.62,3.64-47.45.16-2.36-.81-4.79-1.26-7.2-1.63,2.07-3.39,4.05-4.86,6.23-4.16,6.15-8.21,12.37-12.3,18.57Z" fill="#222"/><path d="M1496.66,1854c15.67-6.31,15.45-43.6,45-23.1,1.85,1.28,4.87.87,7.35,1.24-1-1.4-1.7-3.08-3-4.12-2-1.68-4.42-2.86-6.56-4.39-2.85-2-5.61-4.19-8.41-6.29,8,1.25,16.31,1.79,23.93,4.31,1.67.55,2.91,9.84.92,12.11-2.4,2.74-8.44,2.3-12.91,3.24Z" fill="#444"/><path d="M1518.19,1810.72c-1.45,3.68-1.92,8.83-4.62,10.63s-7.59.19-11.53.08l2.79-19.94Z" fill="#bbb"/><path d="M1469.06,1797.42l11.5,30.58c4.09-6.19,8.14-12.42,12.3-18.57,1.47-2.17,3.23-4.16,4.86-6.23.45,2.4,1.42,4.84,1.26,7.2-1.08,15.83-2.4,31.64-3.64,47.45-2.19,3.12-4.89,9.19-6.48,8.91-13.09-2.28-26-5.67-38.84-9.16-.44-.12.34-4.78.56-7.33,4.72-15.79,9.35-31.61,14.27-47.33C1465.52,1800.87,1467.63,1799.25,1469.06,1797.42Z" fill="#535353"/><path d="M1454.65,1794.91l-3.1,16.35c-3.85-1.11-8.35-1.39-11.29-3.67-1.54-1.19-.33-5.91-.37-9Z" fill="#c3c3c3"/><path d="M1354.11,905.48c-16.71-15.35-29.33-26.78-41.62-38.56-.94-.9.51-4.3.85-6.53,1.58,1.27,3.54,2.26,4.69,3.85,17,23.49,53.12,25.66,72.85,4.33a32.69,32.69,0,0,1,3.86-3.1c0,2,.79,5.05-.23,5.95C1383.08,881.38,1371.37,891,1354.11,905.48Z" fill="#343434"/><path d="M1385.93,867.5c-12.67,18.35-52,17.72-63-1.2-.78-1.34,1.06-4.19,1.68-6.34q27.5,3.48,55,7C1381.72,867.18,1383.83,867.31,1385.93,867.5Z" fill="#343434"/><path d="M1067.67,906.86c-17.22-17-29.37-29-41.3-41.12-.71-.72.39-3.21.65-4.87,1.12.82,2.53,1.44,3.31,2.5,19.14,25.92,54.82,26.8,75.86,1.86a14.76,14.76,0,0,1,2.91-2.11c.22,1.81,1.33,4.55.54,5.29C1097.83,879.54,1085.77,890.39,1067.67,906.86Z" fill="#323232"/><path d="M1100.06,866.57c-12.23,18.72-51.43,19.19-63.68.55-1.09-1.66.24-4.91.45-7.43q28.72,2.79,57.43,5.61A49.26,49.26,0,0,1,1100.06,866.57Z" fill="#323232"/><path d="M783.82,909C764,890.24,752,879,740.32,867.58c-.74-.73.42-3.4.69-5.17,1.31,1,2.88,1.84,3.89,3.1,21.09,26.31,60.16,23,77.42-6.61a15.64,15.64,0,0,1,2.47-2.61c.25,1.37,1.21,3.34.63,4C813.5,874.48,801.41,888.5,783.82,909Z" fill="#343434"/><path d="M813,865.33c-9.78,5.21-19.61,14.67-29.33,14.55-11.84-.15-23.61-8.27-35.24-13.34-.49-.21.74-4.38,1.17-6.7l57.59,4.92C809.18,864.94,811.11,865.15,813,865.33Z" fill="#343434"/><path d="M639,808.71c3-5.87,4.75-9.85,7.15-13.39.41-.61,3.66.72,5.6,1.15l-7.41,3.17c2.39,4.69,5,9.28,7.09,14.1,1.65,3.79,2.66,7.87,4,11.82-1.39-.23-3.41.05-4.08-.77C647.1,819.66,643.2,814.28,639,808.71Z" fill="#d3d3d3"/><path d="M1503,784.86c.46,7,2,12.24.65,16.51-.9,2.83-6.07,6.12-9.12,5.93s-5.58-4.59-8.36-7.15Z" fill="#ccc"/><path d="M1071.27,407.86c-6.66-3.21-11.67-5-11.53-5.65,2.29-10.89,5.23-21.64,8-32.43,1.17,1.81,3.29,3.59,3.35,5.44C1071.45,385.34,1071.27,395.48,1071.27,407.86Z" fill="#595959"/><path d="M690.75,529.1l2.34-11.21c1,5.23,2.18,10.43,2.94,15.69s1.13,10.87,1.67,16.31c.63-5.43,1.22-10.87,1.9-16.3.65-5.17,1.39-10.32,2.09-15.48.71,5.2,1.47,10.39,2.11,15.6.65,5.39,1.17,10.79,1.75,16.19.59-4.14,1.17-8.28,1.78-12.41q1.44-9.75,2.92-19.5c.85,2.31,3,5.06,2.35,6.85-3.29,9.44-7.28,18.65-11,27.93-3.61-4.44-7.44-8.73-10.68-13.43C690,538,690.75,535.48,690.75,529.1Z" fill="#3b3b3b"/><path d="M755.28,529.25a102.56,102.56,0,0,1,5.18-11.54c.26-.47,5.49,1.75,8.42,2.72-2.54,4.92-5.81,9.61-7.4,14.82-1.29,4.22-.58,9-.76,13.6,1.08-.79,2.74-1.37,3.1-2.41.55-1.58-.14-3.56.33-5.19.39-1.34,1.7-2.41,2.6-3.6.85,1.46,2.76,3.33,2.38,4.32-1.45,3.74-3.63,7.19-5.54,10.75-2.77-1.51-7.22-2.48-7.93-4.66C754.35,544.09,755.28,539.4,755.28,529.25Z" fill="#3a3a3a"/><path d="M717.53,529.4a129.15,129.15,0,0,1,5.72-11.82c.22-.39,5.08,1.84,7.78,2.85-2.42,4.82-5.49,9.44-7,14.52-1.29,4.21-.78,9-1.07,13.5,1-.6,2.72-1,3-1.83.5-1.61-.15-3.56.31-5.19.39-1.38,1.67-2.51,2.55-3.75.87,1.66,2.83,3.71,2.4,4.89-1.29,3.56-3.08,7.23-5.69,9.83-.63.63-6.88-2.14-7.58-4.3C716.61,544.12,717.53,539.44,717.53,529.4Z" fill="#393939"/><path d="M805.5,538.89c-4.81-6-10.23-9.87-10-13.31.23-3.19,6.42-8.08,10.17-8.25,3.27-.15,9.3,5.08,9.5,8.23C815.42,529,810.29,532.71,805.5,538.89Z" fill="#3d3d3d"/><path d="M773.53,536.31c.83-7.69,1.11-13.4,2.51-18.81.15-.57,8.92-.72,10,1.15,2.11,3.47,1.66,8.56,2,13a3.41,3.41,0,0,1-1.87,2.74c-.87.2-2.78-.74-3-1.5-1-4-1.69-8.18-2.48-12.29-.5,5.12-.84,10.26-1.53,15.35-.76,5.62-1.84,11.2-2.79,16.8Z" fill="#313131"/><path d="M804.68,531.53c5.82,8.17,9.13,12.72,12.2,17.43.12.19-2.16,2.83-3.13,2.71-6.46-.78-12.88-2-19.31-3.07Z" fill="#b4b4b4"/><path d="M2012.52,806.59q-1.27-38-5.64-75.88c-.05-.39-.11-.79-.16-1.18a4.27,4.27,0,0,0-2.23-2.72,71,71,0,0,0-8.92-11.19A80.55,80.55,0,0,0,1984,706a103.78,103.78,0,0,0-27.35-13.07,152.67,152.67,0,0,0-30.68-6.24,169.25,169.25,0,0,0-18.1-.94q-5.94,0-11.87.36-3.55.21-7.09.58c-4.73-.55-9.52-.68-14.28-.9-5.42-.25-10.85-.47-16.27-.7q-16.38-.68-32.76-1.29c-22-.83-44.06-1.59-66.1-2.14-21.12-.53-42.26-.87-63.39-.87-23,0-46.08.41-69.1,1.43-26.61,1.18-53.19,3.22-79.65,6.36.47-3,.69-6,.91-9.08.25-3.38.44-6.77.64-10.16.37-6.52.66-13,.93-19.56.53-13.06.88-26.12,1.15-39.19.54-26.16.69-52.32.57-78.48q-.09-19.59-.32-39.18-.11-9.78-.27-19.55c-.1-6.08-.2-12.16-.44-18.23-.87-22.77,1.27-23.16-3.34-45.49-3.38-16.37-12.57-54.8-18.36-70.48a341.58,341.58,0,0,0-18.19-40.63,4.77,4.77,0,0,0,.06-.62,4.69,4.69,0,0,0-1.36-3.29,5.11,5.11,0,0,0-1.3-.92c-.41-.75-.8-1.5-1.22-2.24a2.72,2.72,0,0,0-3.7-1,2.71,2.71,0,0,0-1.14,3.29l-2.89.44c-2,.31-3.91.71-5.88,1-5.82.73-11.67,1.14-17.53,1.31a2.33,2.33,0,0,0-.62-.2c-1.48-.24-2.88-.42-4.39-.52-1.69-.11-3.39-.12-5.09-.15-3.39-.07-6.79-.09-10.18-.09q-11,0-22,0-21.2.08-42.4.27-42.4.33-84.8.57c-56.53.26-113.06.08-169.58-1.34-55.32-1.39-110.61-4-165.9-6.26-55.55-2.29-111.13-4.32-166.73-4.81q-11.91-.1-23.82-.11c-49.67,0-99.35,1.44-148.88,5.28a4.45,4.45,0,0,0-.29-.63,4.65,4.65,0,0,0-6.3-1.65,30.67,30.67,0,0,0-9.42,9.12A54,54,0,0,0,609,308.59c-3.36,8.95-5,18.48-6.75,27.83-.8,4.21-1.61,8.43-2.7,12.57-.79,3-1.69,6-2.52,9q-1.32,4.72-2.56,9.46a171.71,171.71,0,0,0-3.88,18.88,113.44,113.44,0,0,0-1.14,16.61c-.67,5.59-.94,11.25-1.36,16.86-.5,6.67-1,13.34-1.49,20q-1.43,20-2.8,40.07c-1.82,26.74-3.43,53.5-4.32,80.28C578,604.47,578.66,649,584.2,693c-1.78,0-3.57,0-5.34,0-3.64,0-7.29,0-10.93,0-7-.07-14-.27-21-.57-14-.6-28-1.65-41.93-2.64-28.08-2-56.2-3.24-84.34-4s-56.34-.94-84.51-1.15-56.35-.46-84.52-1.06q-12.75-.28-25.5-.69a5.6,5.6,0,0,0-1-.73,5.21,5.21,0,0,0-2.72-.72,9,9,0,0,0-1.59.16l-.9.15,1.49-.2a221.6,221.6,0,0,0-21.82,4.2A263,263,0,0,0,173,693.53,150.63,150.63,0,0,0,146.7,705.3c-7.11,4.17-13.87,9.38-18.49,16.31a26.55,26.55,0,0,0-4,10.07,3.93,3.93,0,0,0-2.24,3.48c-.12,8.11.15,16.21.45,24.31s.64,16.18,1,24.27c.69,16.2,1.38,32.39,1.51,48.61.05,6.38,0,12.73-.43,19.1-.39,6.13-1,12.25-1.45,18.37-1,12.65-1.88,25.41-.67,38.08a95.54,95.54,0,0,0,2.05,12.79,61,61,0,0,0,4.33,12.14,5.79,5.79,0,0,0,3.59,2.75,5.94,5.94,0,0,0,7.11-3.48c.09,0,.18.08.28.1a32.85,32.85,0,0,0,4.58.7c1.65.18,3.31.32,5,.47,3.37.29,6.74.52,10.12.73,6.5.41,13,.72,19.5,1,13,.5,26.09.72,39.14.75,26.24.06,52.47-.71,78.69-1.74,52.55-2.05,105.06-5.27,157.66-5.62,30.79-.21,61.6.59,92.29,3.2a3.77,3.77,0,0,0,.52,2.92c.89,1.12,1.8,2.2,2.77,3.24s2.3,2.27,3.48,3.36c2.36,2.2,4.75,4.36,7.14,6.52q6.84,6.22,13.53,12.61c7.27,7,14.32,14.18,21.36,21.39.05,13.05.35,26.1.52,39.16q.26,19.87.3,39.75.1,39.77-.47,79.54c-.66,53-1.91,106.07-2.66,159.1q-.57,39.74-.6,79.49c0,26.48.35,52.95.85,79.42,1,52.9,2.81,105.79,4.88,158.65.63,15.94,1.45,31.87,1.77,47.81.26,12.77.39,25.54.48,38.3q.15,21.4,0,42.81-.06,8.78-.21,17.57c-.07,4-.17,8.05-.39,12.07,0,.75-.09,1.5-.16,2.25,0,.17,0,.34-.07.5a3.43,3.43,0,0,0,.14,3.21,3,3,0,0,0,1.54,1.25,38.64,38.64,0,0,0-15.51,7,48.09,48.09,0,0,0-5.42,4.79,56,56,0,0,0-11.11,17.86,73.8,73.8,0,0,0-4.06,14.29,79.29,79.29,0,0,0-1.14,14.8,73.73,73.73,0,0,0,1.71,14.09,65,65,0,0,0,5,14c5,10.64,12.59,20.39,22.88,26.29a39.34,39.34,0,0,0,7.3,3.12,35.33,35.33,0,0,0,8.37,1.47,33.15,33.15,0,0,0,8.08-.54,38.54,38.54,0,0,0,8.33-2.45,58.33,58.33,0,0,0,17-11.27,57.19,57.19,0,0,0,10.92-14c5.5-9.8,7.85-21,9.31-32,2-15.2,2.35-30.84,7.71-45.36q.82-2.06,1.77-4l1.28-.12c2.74-.28,5.46-.69,8.18-1.12,2.92-.46,5.82-1,8.73-1.52a51.64,51.64,0,0,0,7.89-1.81,4.91,4.91,0,0,0,2.77-2.27,5.09,5.09,0,0,0,.36-3.67,32,32,0,0,1,.19-5.28l0,.3c.4-4.15.54-8.31.68-12.48.17-4.69.29-9.38.41-14.07q.36-14.1.63-28.21.43-22.32.48-44.64h0a78.86,78.86,0,0,1,9.51,0q8.38.33,16.78.57,16.15.48,32.3.73c21.56.36,43.12.49,64.68.64s43.15.38,64.73.66q130,1.68,260.11,1.61,91.07,0,182.14-.62c2.39,0,8.48,5.73,8.4,3.38a34.28,34.28,0,0,0,2.2,4.82,28.43,28.43,0,0,0,2.66,3.84c1.27,1.66,2.57,3.3,4,4.85,1,1.14,2.13,2.21,3.16,3.36,1.24,1.38,2.37,2.86,3.52,4.31q1.92,2.42,3.83,4.86l-.24.21a55.93,55.93,0,0,0-8.3,13,99.88,99.88,0,0,0-5.68,14.32,98.66,98.66,0,0,0-3.18,13.67,118.16,118.16,0,0,0-1.5,15.25,126.51,126.51,0,0,0,2.71,29.21,140.18,140.18,0,0,0,9.16,28,142.27,142.27,0,0,0,14.09,24.85,150.48,150.48,0,0,0,19.26,22.38,139.33,139.33,0,0,0,23.18,17.75,137.75,137.75,0,0,0,27.57,12.67,133.87,133.87,0,0,0,58.6,6.45,125.15,125.15,0,0,0,27.45-6.41,133.32,133.32,0,0,0,25-12,137.43,137.43,0,0,0,40.14-38.26,146.6,146.6,0,0,0,22.9-52.94,159.64,159.64,0,0,0,3.45-27.61c.23.08.45.17.69.23a20.33,20.33,0,0,0,2.22.41c1.66.26,3.32.44,5,.6,3.35.32,6.71.45,10.07.6,6.5.29,13,.48,19.51.63,13.09.29,26.19.29,39.28-.09,26.24-.75,52.59-3.07,78.29-8.56,8.58-1.84,17.1-4,25.51-6.48a5.16,5.16,0,0,0-1.19-10.14l.12-.5c.66-2.89,1.25-5.81,1.82-8.73,1.11-5.66,1.95-11.36,2.73-17.07,1.61-11.77,2.84-23.58,3.8-35.42,1.91-23.7,2.68-47.47,2.76-71.23.16-47.19-2.55-94.34-5.92-141.38q-.46-6.46-.95-12.92a6.55,6.55,0,0,0-.29-1.51q.54-6.9,1-13.8,1-13.35,1.83-26.71,1.73-26.7,3.14-53.41,2.85-53.36,4.46-106.77,3.25-106.78,2.16-213.62-.56-53-2.23-106l2.7.25c3.6.35,7.2.62,10.81.88q10.45.75,20.92,1.18c14.05.61,28.12.84,42.18.78,28.15-.14,56.29-1.55,84.32-4q15.35-1.36,30.65-3.16a2.48,2.48,0,0,0,2.49-.82,3.74,3.74,0,0,0,.48-.4,4.15,4.15,0,0,0,1.21-2.93,4.09,4.09,0,0,0-.12-.94c.23-.95.44-1.91.62-2.86.49-2.56.88-5.13,1.25-7.71.75-5.19,1.36-10.4,1.89-15.62,1.07-10.42,1.78-20.87,2.27-31.34C2013.24,849.32,2013.23,827.94,2012.52,806.59ZM1834.11,930.33q-7.51-.45-15-1l-7.47-.57c-2.47-.18-5-.43-7.45-.42a4.13,4.13,0,0,0-3.94,3,4.29,4.29,0,0,0,1.52,4.42q3.55,105.56,2.37,211.23c-.71,71.21-3,142.41-6.46,213.55q-1.32,27.25-2.89,54.48-.79,13.89-1.62,27.78-.39,6.49-.78,13l0,0a4.62,4.62,0,0,0-1.4,3.38q.38,5.07.74,10.15c0,.42,0,.84,0,1.26a3.35,3.35,0,0,0,.22,1.25c3,42.62,5.47,85.29,5.81,128,.19,23.82-.29,47.66-1.69,71.44q-1,17.6-2.8,35.14c-1.15,11.49-2.61,23-3.95,34.42-.24,2-.5,4.07-.69,6.1,0,.48-.08,1-.11,1.44q-9.23,2.54-18.62,4.47c-8.49,1.74-17.08,3.13-25.67,4.29a563.78,563.78,0,0,1-64,4.25c-10.72.17-21.45.13-32.17,0-5.45-.05-10.9-.13-16.36-.17-2.58,0-5.16,0-7.74.07-1.29,0-2.57.13-3.86.25-.87.08-1.73.21-2.58.34a4.88,4.88,0,0,0-.92.24,3,3,0,0,0-5.61,1.4,155.34,155.34,0,0,1-1.33,19.53,148,148,0,0,1-10,36.42,140.3,140.3,0,0,1-17.41,29.88,135.46,135.46,0,0,1-23.24,23.32,129,129,0,0,1-27.36,16,126.2,126.2,0,0,1-30.58,8.31,128.07,128.07,0,0,1-32.27,0,138.69,138.69,0,0,1-34-9.42,125.52,125.52,0,0,1-13.44-6.74,122.85,122.85,0,0,1-12.56-8.46,137.42,137.42,0,0,1-23.12-23.19,147.32,147.32,0,0,1-18.2-31.21,139,139,0,0,1-9-32.89,123.26,123.26,0,0,1-.08-30.39,119.18,119.18,0,0,1,7.78-28.22c1.76-4,3.77-8,5.39-12.08a5.71,5.71,0,0,0,.13-2.4l.26-.21a5.1,5.1,0,0,0,1.49-3.6l-.18-1.35a5.06,5.06,0,0,0-1.31-2.25l-1.69-2.15q-2.46-3.19-4.8-6.46c-.9-1.26-1.72-2.57-2.5-3.91s-1.43-2.75-2.17-4.12a61.43,61.43,0,0,0-4.41-7.12c-2-2.71-4.27-5.41-7.26-7a5,5,0,0,0-2.42-.63,4.67,4.67,0,0,0-1,.12c-1.16-1.64-4.34-2.82-11.43-2.82-86.71,0-173.43.6-260.14.1q-65-.37-130.05-1.16-32.56-.4-65.12-.91c-21.54-.33-43.09-.51-64.64-.7-24.57-.21-49.15-.47-73.71-1.08q-9-.22-18.08-.52l-9-.31c-2.37-.09-4.75-.27-7.12-.18-.71,0-1.42.07-2.14.12,0-.65,0-1.3,0-1.95A5.12,5.12,0,0,0,699,1659h-.15a5.14,5.14,0,0,0-4.91,5.24c0,.88,0,1.75,0,2.63-.79.07-1.58.14-2.37.18l-.14-.25a4.76,4.76,0,0,0-2.88-2.07,5,5,0,0,0-1.16-.13,4,4,0,0,0-2.44.72c-.54.43-1.08.86-1.59,1.34a8.5,8.5,0,0,0-1.09,1.48,5.22,5.22,0,0,0-.49,4.29l.07.16a4.75,4.75,0,0,0,1.3,2.07,5.34,5.34,0,0,0,1.28,1,9.91,9.91,0,0,0,4,1,31.76,31.76,0,0,0,5.58-.07c0,15-.24,30-.52,45q-.28,14.57-.6,29.14c-.09,4.69-.18,9.38-.22,14.06,0,2.5,0,5,0,7.48,0,1.46.14,2.9.19,4.35-1,0-2,.09-3,.15-2.73.15-5.45.36-8.17.61s-5.46.54-8.19.88a56.28,56.28,0,0,0-8.76,1.57,5.55,5.55,0,0,0-2.16,9.36l1.15.83h0a81.93,81.93,0,0,0-3.73,11.45,158.67,158.67,0,0,0-3.3,19.76c-1.55,13-2.52,26.25-7.09,38.65a58.13,58.13,0,0,1-6.29,11.77,55.77,55.77,0,0,1-8.48,9,57.5,57.5,0,0,1-10.59,6.81,38.87,38.87,0,0,1-8,2.53,32.37,32.37,0,0,1-6.88.25,32,32,0,0,1-6.32-1.53,36.38,36.38,0,0,1-6.4-3.51,46.46,46.46,0,0,1-7-6.67,66,66,0,0,1-7.89-12.78,68.76,68.76,0,0,1-2.76-7.16,48.63,48.63,0,0,1-1.45-6,72.84,72.84,0,0,1-.39-17.15,76.75,76.75,0,0,1,4.12-17.49,57.86,57.86,0,0,1,6-11.18,43.74,43.74,0,0,1,6.09-6.57,36.78,36.78,0,0,1,6.27-3.94,35,35,0,0,1,6.75-2.05,42.12,42.12,0,0,1,7-.35c3.25.09,5.87-3.05,5.77-6.15a6,6,0,0,0-1.88-4.16l-1.23-.89a5.91,5.91,0,0,0-3-.72,39.83,39.83,0,0,0-8.29.18,3.94,3.94,0,0,0,1.25-2.34,33,33,0,0,0,.36-3.56c.26-3.75.36-7.51.47-11.27.36-12.54.45-25.08.55-37.62q.17-21.51.17-43c0-10.24,0-20.49-.19-30.73-.22-10.73-.6-21.46-.9-32.2q-.56-19.85-1.08-39.68-1-39.67-1.7-79.34-1.27-79.43-.09-158.87c1.7-106.05,6.53-212.1,4.46-318.18-.26-13-.59-26-1.28-39a4.53,4.53,0,0,0-.29-6.2l-.13-.13a5.53,5.53,0,0,0-4.25-4.35c-7.17-7.35-14.34-14.71-21.59-22-4.35-4.36-8.73-8.7-13.24-12.91q-3.24-3-6.62-5.9a48.83,48.83,0,0,0-8.09-5.84,3.85,3.85,0,0,0-1.21-.41v-.13a3.26,3.26,0,0,0-1-2.27,3.53,3.53,0,0,0-2.33-.88c-30.12-2.68-60.32-3.63-90.53-3.63-22.07,0-44.14.51-66.19,1.23-52.57,1.71-105.11,4.6-157.71,4.81q-23.13.09-46.25-.62-11.71-.38-23.42-1-5.84-.32-11.68-.7l-5.44-.33a42.73,42.73,0,0,0-6.2-.13,4.23,4.23,0,0,0-1.93.65l-.08-.18A68.93,68.93,0,0,1,134.48,910c-1.53-12.31-.95-24.79-.14-37.14.41-6.2.91-12.4,1.29-18.6.37-6,.5-12,.41-18-.26-16.23-1.21-32.44-2.37-48.62-.58-8.09-1.24-16.18-1.85-24.27-.59-7.87-1.13-15.75-1.75-23.62a4.71,4.71,0,0,0,2.85-4.22c0-.46,0-.91.09-1.37a19.55,19.55,0,0,1,1-3.54,25.5,25.5,0,0,1,2.59-4.3,40.33,40.33,0,0,1,6.17-6,93.73,93.73,0,0,1,19.44-10.78,247.93,247.93,0,0,1,33.92-10.88c5.17-1.32,10.37-2.52,15.58-3.66l6.52-1.4c1.88-.4,3.75-.87,5.65-1.21a5.4,5.4,0,0,0,3.34-2.57,5.47,5.47,0,0,0,.35-.76c54.79,1.64,109.62,1.83,164.41,3.45,28.16.83,56.32,1.94,84.43,3.83,14,.94,28,2.17,42,3.37s28,2.36,42,3q7.14.32,14.29.36a87.08,87.08,0,0,0,15.5-.87,4.52,4.52,0,0,0,3.33-4.37c0-.14,0-.27,0-.41a4.09,4.09,0,0,0,.75-2.59c-6.88-53.16-6.2-106.92-3.68-160.36,1.05-22.21,2.43-44.41,3.61-66.61.59-11.21,1.2-22.42,1.62-33.64.21-5.59.36-11.2.49-16.8.13-5.44.38-10.93,0-16.37a93.38,93.38,0,0,1,.67-10.08,148.08,148.08,0,0,1,6-24.54c2.29-7.18,5-14.22,6.85-21.53,3-12,4.86-24.47,9.56-36a47.24,47.24,0,0,1,5.1-9.07A33.56,33.56,0,0,1,628,296c109-8.46,218.56-4.85,327.69.13,55.2,2.52,110.39,5.41,165.63,7.32,56.5,2,113,2.48,169.57,2.43q45.79,0,91.59-.52,22.9-.21,45.8-.48,11.87-.13,23.74-.32,5.94-.1,11.87-.24c1.7,0,3.39-.12,5.09-.18a45.31,45.31,0,0,0,6.08-.66,3.06,3.06,0,0,0,1.8-1.12l4.56.07,12.34.26c1.93,0,3.86.16,5.79.18a51.59,51.59,0,0,0,6.5-.34l.54-.07q5.44,10.56,10.09,21.5a315.62,315.62,0,0,1,13.95,41.06,347.15,347.15,0,0,1,8.37,42.56q2.16,16.41,3.09,32.94c.69,12,.82,24,.91,35.95q.27,39.18.07,78.36-.21,33.35-1,66.7-.37,16.45-.89,32.9-.25,8.21-.49,16.43c-.08,2.87-.16,5.73-.23,8.6s-.17,5.73,0,8.59a3.56,3.56,0,0,0,2.26,3.24,3,3,0,0,0,0,.42,3,3,0,0,0,.88,2.11,2.85,2.85,0,0,0,2.11.87c43.4-5.28,87.16-7.08,130.85-7.34,44.21-.26,88.42,1.2,132.6,2.76,13.58.48,27.15,1,40.73,1.42q10.11.32,20.22.58,4.4.11,8.81.17a3.88,3.88,0,0,0,1,1.77,3.73,3.73,0,0,0,2.77,1.15,164.22,164.22,0,0,1,42.73.16,145.25,145.25,0,0,1,35.34,9.29,97.15,97.15,0,0,1,20.41,11.71,73.85,73.85,0,0,1,12,12q1.54,2,2.94,4.19a5.45,5.45,0,0,0,2.4,2.09q3.23,28.57,4.68,57.3,1.66,32,1.09,64.05-.36,19.3-1.62,38.57c-.39,6.16-.87,12.3-1.39,18.45-.25,3-.53,6-.76,9q-.12,1.57-.21,3.14A947.42,947.42,0,0,1,1834.11,930.33ZM690.57,1672.85l0,.06,0-.06Z" fill="#2c2c2c"/><path d="M595.25,1777.14a1.1,1.1,0,1,0-1.07,1.14A1.11,1.11,0,0,0,595.25,1777.14Z" fill="#2c2c2c"/><path d="M381.3,1350a3,3,0,1,0,3.09,2.91A3,3,0,0,0,381.3,1350Z" fill="#2c2c2c"/><path d="M1992.76,726.74a34.58,34.58,0,0,0-5.68-1.12c-1.83-.26-3.66-.45-5.5-.62-4-.38-8-.61-11.94-.82q-11.49-.6-23-.9-20.15-.52-40.31-.53h-5.69c-30.69.12-61.39,1-92.05,2.21s-61.39,2.68-92.09,4c-15.35.68-30.69,1.34-46,1.8s-30.69.81-46,1c-28.33.33-56.68.15-85-.88a5.27,5.27,0,0,0-.74-.66,5.08,5.08,0,0,0-2.93-.93,5,5,0,0,0-.89.08,5.11,5.11,0,0,0-4.06,5.87c.4,2.55.77,5.11.94,7.68a30.48,30.48,0,0,1-.46,6.27,20.21,20.21,0,0,1-1.27,3.47,21.37,21.37,0,0,1-2.19,3,18.68,18.68,0,0,1-2.49,2.07,27.12,27.12,0,0,1-4.9,2.22,58.79,58.79,0,0,1-13.78,2.14,200.05,200.05,0,0,1-22.05-.69c-6.89-.5-13.79-1.18-20.7-1.27s-14.11,0-21.15,0l-22.84.06q-22.83.06-45.66.1c-60.87.11-121.74,0-182.6-.7q-39.27-.45-78.53-1.22a3.32,3.32,0,0,0-2.93-2.4c-17.14-.63-34.29-.85-51.44-1.15s-34.33-.59-51.5-1-34.33-.81-51.49-1.36-34.32-1.3-51.48-2c-34.39-1.43-68.8-2.61-103.22-3.25q-25.81-.48-51.63-.5-12.57,0-25.14.13c-3.74,0-7.48.26-11.21.5-13.69.86-27.34,2.18-41,2.89-9.28.45-18.58.66-27.86.35a145,145,0,0,1-25.45-2.84,62.86,62.86,0,0,1-14.07-4.88,35.11,35.11,0,0,1-6.21-4.27,26,26,0,0,1-3.54-4.21A4.08,4.08,0,0,0,592,733h-.35a4.24,4.24,0,0,0-1,.13,3.68,3.68,0,0,0,1.85-2.84,3.58,3.58,0,0,0-3.24-3.84c-3-.16-6.08-.32-9.12-.41-3.31-.09-6.62-.08-9.93-.06-6.4.05-12.8.14-19.2.2q-19.29.16-38.59,0c-25.87-.21-51.74-.82-77.61-1.44-31.3-.75-62.61-1.53-93.92-1.53-20.42,0-40.84.33-61.25,1.22-27.68,1.21-55.32,3.42-82.78,7.16a5,5,0,0,0,.47-1.7,5,5,0,0,0-4.55-5.39c-10.53-1.1-21.09-2.28-31.68-2.38h-1a84.38,84.38,0,0,0-15,1.26,57.19,57.19,0,0,0-15.59,5.28,4.87,4.87,0,1,0,4.19,8.79,55.38,55.38,0,0,1,6.9-2.92A59.38,59.38,0,0,1,154,732.17a128.5,128.5,0,0,1,18.43.94c4.14.46,8.3.92,12.46,1.15a3.48,3.48,0,0,0-.65,2.67,3.44,3.44,0,0,0,4,2.72,764.5,764.5,0,0,1,76.57-7.48c51.46-2.5,103-1,154.48.78,25.87.9,51.73,1.9,77.61,2.46q19.32.42,38.64.45c13,0,26-.13,38.93-.85,5.07-.28,10.1-.87,15.13-1.56l.16,0a4.22,4.22,0,0,0-.89.56,4.28,4.28,0,0,0-1.49,2.89l.06,1.14a4.25,4.25,0,0,0,.93,2c4.32,6.47,11.34,10.59,18.47,13.29A82.06,82.06,0,0,0,620,756.79a130,130,0,0,0,14.28,1.91,262.72,262.72,0,0,0,31.32.46c10.42-.37,20.82-1.1,31.21-1.89,7.17-.54,14.33-1.15,21.51-1.51,5-.21,9.91-.21,14.88-.23q12.91-.06,25.81,0,25.82.13,51.63.73c34.42.77,68.82,2.05,103.21,3.52q48.9,2.07,97.84,2.71,24.22.34,48.44.44c8.64,0,17.29.07,25.93,0a3.93,3.93,0,0,0,3.53,3q91.28,1.94,182.58,2.52t182.6.27c4.55,0,9.1-.1,13.65.13,3.5.18,7,.47,10.5.77,7.55.64,15.11,1.32,22.7,1.46a116.15,116.15,0,0,0,11.66-.36,52.44,52.44,0,0,0,9.71-1.67c6.27-1.74,12.65-4.89,16.14-10.63a24.94,24.94,0,0,0,3.49-11.44,36.54,36.54,0,0,0-.29-6.85c0-.28-.09-.56-.14-.84,29.09,1,58.2,1.35,87.31,1.21,30.67-.14,61.33-.64,92-1.16,15.33-.26,30.66-.66,46-1l46-1.05c30.67-.71,61.34-1.27,92-1.49,14.43-.1,28.85-.16,43.28-.09l21.19.08c3.69,0,7.38,0,11.07-.06,1.85,0,3.7-.11,5.55-.21a34.13,34.13,0,0,0,5.78-.63,4.26,4.26,0,0,0,.43-8.2Z" fill="#2c2c2c"/></svg>