<svg id="addbbba1-b354-4d55-bb1b-0b3a93db3f6e" data-name="Layer 1" xmlns="http://www.w3.org/2000/svg" xmlns:xlink="http://www.w3.org/1999/xlink" width="1500" height="1500" viewBox="0 0 1500 1500"><defs><radialGradient id="c1fd0ab3-2cc6-4111-8b7d-39c98932851e" cx="1006.21" cy="1981.48" r="769.44" gradientTransform="matrix(0.97, 0, 0, -0.74, -230.79, 2226.92)" gradientUnits="userSpaceOnUse"><stop offset="0" stop-color="#daff00"/><stop offset="0.22" stop-color="#daff00" stop-opacity="0.7"/><stop offset="0.43" stop-color="#daff00" stop-opacity="0.45"/><stop offset="0.62" stop-color="#daff00" stop-opacity="0.26"/><stop offset="0.78" stop-color="#daff00" stop-opacity="0.12"/><stop offset="0.91" stop-color="#daff00" stop-opacity="0.03"/><stop offset="1" stop-color="#daff00" stop-opacity="0"/></radialGradient></defs><title>start</title><ellipse cx="750" cy="766.76" rx="750" ry="567" fill="url(#c1fd0ab3-2cc6-4111-8b7d-39c98932851e)"/><rect x="46.77" y="521.76" width="1389.41" height="489.99" rx="143.36" ry="143.36" opacity="0.21"/><path d="M1075.57,640.52v17a127.46,127.46,0,0,0-15.27-7.74,114.49,114.49,0,0,0-45.08-9.22H835.36v46.62a131.29,131.29,0,0,0-11.68-12.52,147.29,147.29,0,0,0-48.41-30,162.86,162.86,0,0,0-58.55-10.57,151.29,151.29,0,0,0-91,30V640.52H452.48l-2.13-2C435.88,625,417.86,614.35,396.79,607a197.74,197.74,0,0,0-65.18-10.63A160.19,160.19,0,0,0,288.51,602a123.56,123.56,0,0,0-36.79,16.72,116.3,116.3,0,0,0-27,25.7,109.33,109.33,0,0,0-17.19,33.34A123,123,0,0,0,202,714.65a129.54,129.54,0,0,0,7.64,44.62,114.77,114.77,0,0,0,22.71,37.88,98.67,98.67,0,0,0,17.4,15.16L226.47,830l.75.44-13.15,10.15.53.41-4.31,3.46-28.4,21.05,26.22,24.58c14.47,13.57,32.53,24.17,53.66,31.51A198.41,198.41,0,0,0,327,932.21a160.27,160.27,0,0,0,43.1-5.63,123.6,123.6,0,0,0,36.78-16.72,116.38,116.38,0,0,0,27-25.71,109.66,109.66,0,0,0,10.45-16.78v53.81H581.59V842.57a131.39,131.39,0,0,0,17.81,28.9A154.52,154.52,0,0,0,632,901.32a146.16,146.16,0,0,0,40.86,19.38,156.72,156.72,0,0,0,44.62,6.45,134.91,134.91,0,0,0,39.73-6H972.59V901.75l7.23,19.43h277.12V755.68h44.13V640.52Zm17.74,202.25a112,112,0,0,0,22-26.09c1.59-2.6,3.06-5.27,4.43-8V910.92Z"/><path d="M334,736.71H315.5q-11.8,0-17-6.05t-5.21-16q0-22.07,32.95-22.07,31,0,46.58,9.19l-8.89,6.74q-10.73-4.9-37.7-4.9-13.18,0-17.7,2.91a9.16,9.16,0,0,0-4.52,8.12q0,5.21,2.45,8.12t9,2.91h19q20.69,0,37.31,7A74.54,74.54,0,0,1,399.16,752a85.61,85.61,0,0,1,16.4,28,100.13,100.13,0,0,1,5.67,33.94,92.57,92.57,0,0,1-4.14,27.89A79.07,79.07,0,0,1,404.6,866a86,86,0,0,1-20.07,19.08,93.34,93.34,0,0,1-27.89,12.57,129.7,129.7,0,0,1-35,4.52,167.74,167.74,0,0,1-55.39-9q-25.82-9-43-25.05l8.89-6.59q15.63,14.1,39.15,21.84a160.07,160.07,0,0,0,50.34,7.74q21,0,37.93-6.05t27.89-16.63A73.62,73.62,0,0,0,404.3,844a76.3,76.3,0,0,0,5.9-30q0-21.3-8.58-38.54a68,68,0,0,0-26.13-28Q357.94,736.72,334,736.71ZM315.5,791.88h16.86q11.8,0,17,6.13t5.21,15.94q0,22.07-32.95,22.07-31.11,0-46.74-9.19l8.89-6.74Q294.5,825,321.63,825q13.18,0,17.7-2.91a9.16,9.16,0,0,0,4.52-8.12,12,12,0,0,0-2.53-8q-2.53-3-9.27-3H315.5q-21.15,0-38.23-6.9t-28-19a84.53,84.53,0,0,1-16.78-28,99.21,99.21,0,0,1-5.82-34.32,92.58,92.58,0,0,1,4.14-27.89,79,79,0,0,1,12.49-24.21,86,86,0,0,1,20.07-19.08,93.3,93.3,0,0,1,27.89-12.56,129.66,129.66,0,0,1,35-4.52,167.07,167.07,0,0,1,55.32,9q25.74,9,42.91,25.05L415.56,667q-15.63-14.1-39.08-21.84a159.44,159.44,0,0,0-50.26-7.74q-21,0-37.93,6.05T260.41,660.1a73.58,73.58,0,0,0-16.86,24.52,76.27,76.27,0,0,0-5.9,30q0,21.61,8.73,38.92t26.66,27.81Q291,791.88,315.5,791.88Zm0-44.13H333q31.11,0,48.65,19t17.55,47.2q0,28.66-20.38,47.43t-57.16,18.77a151,151,0,0,1-45.82-6.74q-21.3-6.74-35.4-19l8.58-6.9q12.56,10.27,31.64,15.94a143.21,143.21,0,0,0,41,5.67q32.33,0,49.42-15.48t17.09-39.69q0-23.9-14.33-39.53t-41-15.63H315.5q-22.37,0-33.56-12.26t-11.19-31.87q0-19.61,13.87-31.87t41.6-12.26A138.12,138.12,0,0,1,362.39,675Q379.09,679.56,390,688l-8.73,6.74q-19.16-13.18-55-13.18-23.14,0-33.79,9.12t-10.65,24q0,15,7.89,24.06T315.5,747.75Zm0,22.07h16.86q22.37,0,33.56,12.41t11.19,31.72q0,19.62-13.87,31.87t-41.6,12.26a138.87,138.87,0,0,1-36.24-4.52q-16.78-4.52-27.66-12.95l8.73-6.74Q285.62,847,321.63,847q23.14,0,33.79-9.12t10.65-24q0-14.86-8-24t-25.9-9.12H315.5q-31.41,0-49.11-18.77t-17.7-47.43q0-28.65,20.38-47.43t57.16-18.77A150.31,150.31,0,0,1,372,655.19q21.22,6.74,35.32,19l-8.58,6.9q-12.57-10.26-31.57-15.94a142.52,142.52,0,0,0-40.91-5.67q-32.33,0-49.42,15.48t-17.09,39.69q0,24.06,14.4,39.61T315.5,769.81Z" fill="#28fcf1"/><path d="M424.85,681.55v-11H590.34v11Zm0,22.07v-11H590.34v11Zm0,22.07v-11H590.34v11Zm44.13,6h11V891.18H469Zm22.07,0h11V891.18H491Zm22.07,0h11V891.18h-11Zm22.07,0h11V891.18h-11Z" fill="#28fcf1"/><path d="M832.7,782.38v108.8h-11V782.38q0-31.26-14.56-55.85a100,100,0,0,0-39.69-38q-25.13-13.41-56.08-13.41a106.8,106.8,0,0,0-54.4,14.25,104.84,104.84,0,0,0-52.87,91.48,105.45,105.45,0,0,0,6.05,35.78,96.8,96.8,0,0,0,16.55,29.57A113.25,113.25,0,0,0,650.88,868,108.88,108.88,0,0,0,680.46,882a111.8,111.8,0,0,0,32.26,4.75,86.94,86.94,0,0,0,34.32-6.9v11.34a104.66,104.66,0,0,1-34.94,6A126.15,126.15,0,0,1,676,891.94a115.66,115.66,0,0,1-32.49-15.4,124,124,0,0,1-26.28-24.06,105.07,105.07,0,0,1-17.78-32.41A118.77,118.77,0,0,1,593,780.85a116.64,116.64,0,0,1,9-45.28,112.09,112.09,0,0,1,62.21-62.21,120.78,120.78,0,0,1,47.12-9.27,132.39,132.39,0,0,1,47.81,8.58,116.91,116.91,0,0,1,38.62,23.83A108.15,108.15,0,0,1,823.35,734,123.64,123.64,0,0,1,832.7,782.38Zm-22.07,0v108.8h-11V782.38q0-25.28-11.57-44.82a77.73,77.73,0,0,0-31.64-30q-20.08-10.42-45.05-10.42A85.53,85.53,0,0,0,668,708.44a82.46,82.46,0,0,0-41.83,72.4,86.92,86.92,0,0,0,7.2,35.78,73.9,73.9,0,0,0,19.38,26.59,90.52,90.52,0,0,0,27.74,16.17A93.19,93.19,0,0,0,713,865.13a85.15,85.15,0,0,0,34-7.2v11.19a96.82,96.82,0,0,1-34.32,6.59,101.21,101.21,0,0,1-48.73-12,92,92,0,0,1-35.55-33.87q-13.33-21.91-13.33-49a93,93,0,0,1,7.43-36.78,92.14,92.14,0,0,1,50.8-50.41,97.4,97.4,0,0,1,38-7.51q28,0,50.64,12a88.86,88.86,0,0,1,35.63,34Q810.63,754.18,810.63,782.38Zm-22.07,0v108.8h-11V782.38q0-29-18.54-46t-47.66-17.09q-27,0-45.05,17.93T648.2,780.85a69.17,69.17,0,0,0,5.44,28,51.46,51.46,0,0,0,14.79,19.92,67.66,67.66,0,0,0,20.92,11.42,75.85,75.85,0,0,0,24.44,3.91A71.69,71.69,0,0,0,747,836v11.65a86.19,86.19,0,0,1-33.41,6.9,88.2,88.2,0,0,1-28.81-4.67,76.06,76.06,0,0,1-24.36-13.64,62.36,62.36,0,0,1-17-23.29,79.09,79.09,0,0,1-6.28-32.1q0-30.19,21.38-51.41t52.79-21.22q22.07,0,39.53,9a67.21,67.21,0,0,1,27.58,26Q788.57,760.16,788.57,782.38Zm-33.1,0q0-19.61-12.11-30.34t-32-10.73a40.31,40.31,0,0,0-29,11.65q-12.11,11.65-12.11,27.89a51.42,51.42,0,0,0,2.45,16.47,35.23,35.23,0,0,0,6.67,12.11,35.6,35.6,0,0,0,10,8,46.08,46.08,0,0,0,12.18,4.52,63.87,63.87,0,0,0,13.56,1.38A61.09,61.09,0,0,0,747,814.71v11a67.8,67.8,0,0,1-32,7.81,70.36,70.36,0,0,1-20.76-3,56.3,56.3,0,0,1-17.7-9A41.38,41.38,0,0,1,663.91,805a58.76,58.76,0,0,1-4.67-24.13A48.54,48.54,0,0,1,674.1,745q14.86-14.71,37.24-14.71,24.67,0,39.92,13.87t15.25,38.23v108.8h-11Z" fill="#28fcf1"/><path d="M943.34,829.88h66.5a75.19,75.19,0,0,0,37.7-9.81,75.15,75.15,0,0,0,38-65.89,67.68,67.68,0,0,0-10.27-35.93,76,76,0,0,0-27.81-26.74,75,75,0,0,0-37.62-10H871V891.18H860V670.52h149.86a84.26,84.26,0,0,1,33.33,6.82,90.14,90.14,0,0,1,27.66,18.08,86.9,86.9,0,0,1,18.69,26.74,76.49,76.49,0,0,1,7,32q0,26.82-12.26,46.81a80.42,80.42,0,0,1-32.95,30.42l23.14,59.76h-11.8l-21.91-55.32q-4.14,1.38-9.65,2.76l20.69,52.56H1040l-20.23-50.72q-4.75.46-10,.46l19.46,50.26h-11.65l-19.31-50.26h-10l18.54,50.26H995.28l-18.69-50.26H943.34Zm0-22.07h66.5a53,53,0,0,0,37.85-15q15.78-15,15.78-38.62,0-20.07-16.09-35.32t-37.54-15.25H893.07V891.18H882V692.58h127.8q26,0,45.36,18.46t19.31,43.14q0,27.58-19.08,46.12a63.12,63.12,0,0,1-45.59,18.54h-66.5Zm0-22.07h66.5a32.25,32.25,0,0,0,22.37-8.27q9.19-8.27,9.19-23.29,0-11-9.58-19.77a31.69,31.69,0,0,0-22-8.73h-94.7V891.18h-11V714.65h105.73a42.3,42.3,0,0,1,29.8,12q12.79,12,12.8,27.58,0,19.46-12.41,31t-30.19,11.57h-66.5Zm-6.13,105.43h-11V736.71h83.67a21.58,21.58,0,0,1,14.56,5.13,15.74,15.74,0,0,1,6,12.34q0,20.54-20.53,20.53h-66.5v-11h66.5q9.5,0,9.5-9.5,0-2.6-2.83-4.52a11.63,11.63,0,0,0-6.67-1.92H937.21Z" fill="#28fcf1"/><path d="M1100.19,681.55v-11h165.49v11Zm0,22.07v-11h165.49v11Zm0,22.07v-11h165.49v11Zm44.13,6h11V891.18h-11Zm22.07,0h11V891.18h-11Zm22.07,0h11V891.18h-11Zm22.07,0h11V891.18h-11Z" fill="#28fcf1"/><path d="M1292.82,1020.76H190.13A152.78,152.78,0,0,1,37.77,868.4V665.12A152.78,152.78,0,0,1,190.13,512.76H1292.82a152.78,152.78,0,0,1,152.36,152.36V868.4a152.78,152.78,0,0,1-152.36,152.36Zm-1102.69-490A134.78,134.78,0,0,0,55.77,665.12V868.4a134.78,134.78,0,0,0,134.36,134.36H1292.82A134.78,134.78,0,0,0,1427.18,868.4V665.12a134.78,134.78,0,0,0-134.36-134.36Z"/></svg>